%TF.GenerationSoftware,KiCad,Pcbnew,5.1.9+dfsg1-1*%
%TF.CreationDate,2021-10-11T10:55:51+01:00*%
%TF.ProjectId,pumpkin_jasmine,70756d70-6b69-46e5-9f6a-61736d696e65,rev?*%
%TF.SameCoordinates,Original*%
%TF.FileFunction,Profile,NP*%
%FSLAX46Y46*%
G04 Gerber Fmt 4.6, Leading zero omitted, Abs format (unit mm)*
G04 Created by KiCad (PCBNEW 5.1.9+dfsg1-1) date 2021-10-11 10:55:51*
%MOMM*%
%LPD*%
G01*
G04 APERTURE LIST*
%TA.AperFunction,Profile*%
%ADD10C,0.100000*%
%TD*%
G04 APERTURE END LIST*
D10*
%TO.C,Ref\u002A\u002A*%
X138450000Y-117621900D02*
X138150000Y-117564900D01*
X138150000Y-117564900D02*
X137857000Y-117497900D01*
X137857000Y-117497900D02*
X137570000Y-117419900D01*
X137570000Y-117419900D02*
X137289000Y-117330900D01*
X137289000Y-117330900D02*
X137010000Y-117229900D01*
X137010000Y-117229900D02*
X136735000Y-117117900D01*
X136735000Y-117117900D02*
X136462000Y-116992900D01*
X136462000Y-116992900D02*
X136190000Y-116855900D01*
X136190000Y-116855900D02*
X135865000Y-116670900D01*
X135865000Y-116670900D02*
X135530000Y-116453900D01*
X135530000Y-116453900D02*
X135194000Y-116209900D01*
X135194000Y-116209900D02*
X134859000Y-115945900D01*
X134859000Y-115945900D02*
X134535000Y-115665900D01*
X134535000Y-115665900D02*
X134230000Y-115376900D01*
X134230000Y-115376900D02*
X133947000Y-115083900D01*
X133947000Y-115083900D02*
X133697000Y-114792900D01*
X133697000Y-114792900D02*
X133524000Y-114583900D01*
X133524000Y-114583900D02*
X133405000Y-114465900D01*
X133405000Y-114465900D02*
X133354000Y-114431900D01*
X133354000Y-114431900D02*
X133304000Y-114408900D01*
X133304000Y-114408900D02*
X133182000Y-114382900D01*
X133182000Y-114382900D02*
X133019000Y-114348900D01*
X133019000Y-114348900D02*
X132812000Y-114291900D01*
X132812000Y-114291900D02*
X132321000Y-114122900D01*
X132321000Y-114122900D02*
X131801000Y-113911900D01*
X131801000Y-113911900D02*
X131558000Y-113800900D01*
X131558000Y-113800900D02*
X131344000Y-113691900D01*
X131344000Y-113691900D02*
X131049000Y-113526900D01*
X131049000Y-113526900D02*
X130760000Y-113352900D01*
X130760000Y-113352900D02*
X130476000Y-113168900D01*
X130476000Y-113168900D02*
X130198000Y-112975900D01*
X130198000Y-112975900D02*
X129925000Y-112772900D01*
X129925000Y-112772900D02*
X129657000Y-112560900D01*
X129657000Y-112560900D02*
X129394000Y-112338900D01*
X129394000Y-112338900D02*
X129137000Y-112106900D01*
X129137000Y-112106900D02*
X128884000Y-111864900D01*
X128884000Y-111864900D02*
X128637000Y-111612900D01*
X128637000Y-111612900D02*
X128395000Y-111350900D01*
X128395000Y-111350900D02*
X128158000Y-111079900D01*
X128158000Y-111079900D02*
X127925000Y-110797900D01*
X127925000Y-110797900D02*
X127698000Y-110506900D01*
X127698000Y-110506900D02*
X127475100Y-110204900D01*
X127475100Y-110204900D02*
X127257100Y-109892900D01*
X127257100Y-109892900D02*
X127068800Y-109599900D01*
X127068800Y-109599900D02*
X127049900Y-109553900D01*
X127049900Y-109553900D02*
X127076100Y-109570900D01*
X127076100Y-109570900D02*
X127246100Y-109773900D01*
X127246100Y-109773900D02*
X127545400Y-110175900D01*
X127545400Y-110175900D02*
X127777000Y-110482900D01*
X127777000Y-110482900D02*
X128049000Y-110814900D01*
X128049000Y-110814900D02*
X128347000Y-111159900D01*
X128347000Y-111159900D02*
X128661000Y-111503900D01*
X128661000Y-111503900D02*
X128978000Y-111833900D01*
X128978000Y-111833900D02*
X129285000Y-112137900D01*
X129285000Y-112137900D02*
X129571000Y-112401900D01*
X129571000Y-112401900D02*
X129824000Y-112612900D01*
X129824000Y-112612900D02*
X130224000Y-112907900D01*
X130224000Y-112907900D02*
X130646000Y-113187900D01*
X130646000Y-113187900D02*
X131082000Y-113447900D01*
X131082000Y-113447900D02*
X131523000Y-113683900D01*
X131523000Y-113683900D02*
X131962000Y-113892900D01*
X131962000Y-113892900D02*
X132389000Y-114069900D01*
X132389000Y-114069900D02*
X132799000Y-114210900D01*
X132799000Y-114210900D02*
X133180000Y-114310900D01*
X133180000Y-114310900D02*
X133327000Y-114350900D01*
X133327000Y-114350900D02*
X133387000Y-114378900D01*
X133387000Y-114378900D02*
X133445000Y-114419900D01*
X133445000Y-114419900D02*
X133585000Y-114556900D01*
X133585000Y-114556900D02*
X133795000Y-114803900D01*
X133795000Y-114803900D02*
X134012000Y-115052900D01*
X134012000Y-115052900D02*
X134237000Y-115291900D01*
X134237000Y-115291900D02*
X134474000Y-115522900D01*
X134474000Y-115522900D02*
X134717000Y-115742900D01*
X134717000Y-115742900D02*
X134969000Y-115953900D01*
X134969000Y-115953900D02*
X135227000Y-116152900D01*
X135227000Y-116152900D02*
X135492000Y-116341900D01*
X135492000Y-116341900D02*
X135762000Y-116518900D01*
X135762000Y-116518900D02*
X136039000Y-116684900D01*
X136039000Y-116684900D02*
X136319000Y-116837900D01*
X136319000Y-116837900D02*
X136604000Y-116977900D01*
X136604000Y-116977900D02*
X136890000Y-117105900D01*
X136890000Y-117105900D02*
X137180000Y-117219900D01*
X137180000Y-117219900D02*
X137473000Y-117318900D01*
X137473000Y-117318900D02*
X137767000Y-117404900D01*
X137767000Y-117404900D02*
X138060000Y-117475900D01*
X138060000Y-117475900D02*
X138383000Y-117537900D01*
X138383000Y-117537900D02*
X138712000Y-117584900D01*
X138712000Y-117584900D02*
X139042000Y-117616900D01*
X139042000Y-117616900D02*
X139375000Y-117633900D01*
X139375000Y-117633900D02*
X139710000Y-117635900D01*
X139710000Y-117635900D02*
X140048000Y-117623900D01*
X140048000Y-117623900D02*
X140388000Y-117595900D01*
X140388000Y-117595900D02*
X140730000Y-117552900D01*
X140730000Y-117552900D02*
X141073000Y-117495900D01*
X141073000Y-117495900D02*
X141418000Y-117423900D01*
X141418000Y-117423900D02*
X141763000Y-117336900D01*
X141763000Y-117336900D02*
X142112000Y-117234900D01*
X142112000Y-117234900D02*
X142458000Y-117118900D01*
X142458000Y-117118900D02*
X142806000Y-116987900D01*
X142806000Y-116987900D02*
X143155000Y-116841900D01*
X143155000Y-116841900D02*
X143503000Y-116681900D01*
X143503000Y-116681900D02*
X143778000Y-116543900D01*
X143778000Y-116543900D02*
X144015000Y-116410900D01*
X144015000Y-116410900D02*
X144220000Y-116275900D01*
X144220000Y-116275900D02*
X144400000Y-116136900D01*
X144400000Y-116136900D02*
X144558000Y-115986900D01*
X144558000Y-115986900D02*
X144703000Y-115821900D01*
X144703000Y-115821900D02*
X144838000Y-115637900D01*
X144838000Y-115637900D02*
X144970000Y-115428900D01*
X144970000Y-115428900D02*
X145100000Y-115237900D01*
X145100000Y-115237900D02*
X145155000Y-115179900D01*
X145155000Y-115179900D02*
X145193000Y-115158900D01*
X145193000Y-115158900D02*
X145238000Y-115174900D01*
X145238000Y-115174900D02*
X145318000Y-115218900D01*
X145318000Y-115218900D02*
X145533000Y-115363900D01*
X145533000Y-115363900D02*
X145963000Y-115664900D01*
X145963000Y-115664900D02*
X146426000Y-115957900D01*
X146426000Y-115957900D02*
X146915000Y-116236900D01*
X146915000Y-116236900D02*
X147418000Y-116498900D01*
X147418000Y-116498900D02*
X147928000Y-116736900D01*
X147928000Y-116736900D02*
X148431000Y-116948900D01*
X148431000Y-116948900D02*
X148921000Y-117127900D01*
X148921000Y-117127900D02*
X149389000Y-117269900D01*
X149389000Y-117269900D02*
X149979000Y-117411900D01*
X149979000Y-117411900D02*
X150253000Y-117461900D01*
X150253000Y-117461900D02*
X150519000Y-117499900D01*
X150519000Y-117499900D02*
X150784000Y-117524900D01*
X150784000Y-117524900D02*
X151056000Y-117538900D01*
X151056000Y-117538900D02*
X151341000Y-117541900D01*
X151341000Y-117541900D02*
X151644000Y-117534900D01*
X151644000Y-117534900D02*
X152008000Y-117514900D01*
X152008000Y-117514900D02*
X152341000Y-117482900D01*
X152341000Y-117482900D02*
X152653000Y-117434900D01*
X152653000Y-117434900D02*
X152948000Y-117371900D01*
X152948000Y-117371900D02*
X153234000Y-117289900D01*
X153234000Y-117289900D02*
X153517000Y-117188900D01*
X153517000Y-117188900D02*
X153804000Y-117065900D01*
X153804000Y-117065900D02*
X154102000Y-116919900D01*
X154102000Y-116919900D02*
X154369000Y-116771900D01*
X154369000Y-116771900D02*
X154639000Y-116602900D01*
X154639000Y-116602900D02*
X154906000Y-116416900D01*
X154906000Y-116416900D02*
X155164000Y-116218900D01*
X155164000Y-116218900D02*
X155409000Y-116014900D01*
X155409000Y-116014900D02*
X155631000Y-115807900D01*
X155631000Y-115807900D02*
X155827000Y-115604900D01*
X155827000Y-115604900D02*
X155989000Y-115409900D01*
X155989000Y-115409900D02*
X156066000Y-115312900D01*
X156066000Y-115312900D02*
X156136000Y-115236900D01*
X156136000Y-115236900D02*
X156211000Y-115178900D01*
X156211000Y-115178900D02*
X156296000Y-115134900D01*
X156296000Y-115134900D02*
X156406000Y-115100900D01*
X156406000Y-115100900D02*
X156547000Y-115072900D01*
X156547000Y-115072900D02*
X156966000Y-115017900D01*
X156966000Y-115017900D02*
X157176000Y-114985900D01*
X157176000Y-114985900D02*
X157394000Y-114935900D01*
X157394000Y-114935900D02*
X157619000Y-114869900D01*
X157619000Y-114869900D02*
X157851000Y-114786900D01*
X157851000Y-114786900D02*
X158086000Y-114687900D01*
X158086000Y-114687900D02*
X158327000Y-114573900D01*
X158327000Y-114573900D02*
X158571000Y-114443900D01*
X158571000Y-114443900D02*
X158819000Y-114299900D01*
X158819000Y-114299900D02*
X159069000Y-114141900D01*
X159069000Y-114141900D02*
X159322000Y-113968900D01*
X159322000Y-113968900D02*
X159574000Y-113782900D01*
X159574000Y-113782900D02*
X159829000Y-113583900D01*
X159829000Y-113583900D02*
X160082000Y-113372900D01*
X160082000Y-113372900D02*
X160334000Y-113148900D01*
X160334000Y-113148900D02*
X160585000Y-112912900D01*
X160585000Y-112912900D02*
X160834000Y-112665900D01*
X160834000Y-112665900D02*
X161415000Y-112070900D01*
X161415000Y-112070900D02*
X161749000Y-112040900D01*
X161749000Y-112040900D02*
X162049000Y-111995900D01*
X162049000Y-111995900D02*
X162334000Y-111917900D01*
X162334000Y-111917900D02*
X162594000Y-111809900D01*
X162594000Y-111809900D02*
X162712000Y-111745900D01*
X162712000Y-111745900D02*
X162819000Y-111675900D01*
X162819000Y-111675900D02*
X163225000Y-111369900D01*
X163225000Y-111369900D02*
X163639000Y-111028900D01*
X163639000Y-111028900D02*
X164054000Y-110656900D01*
X164054000Y-110656900D02*
X164467000Y-110257900D01*
X164467000Y-110257900D02*
X164877000Y-109835900D01*
X164877000Y-109835900D02*
X165275000Y-109395900D01*
X165275000Y-109395900D02*
X165660000Y-108941900D01*
X165660000Y-108941900D02*
X166028000Y-108476900D01*
X166028000Y-108476900D02*
X166467000Y-107875900D01*
X166467000Y-107875900D02*
X166883000Y-107254900D01*
X166883000Y-107254900D02*
X167278000Y-106614900D01*
X167278000Y-106614900D02*
X167648000Y-105955900D01*
X167648000Y-105955900D02*
X167997000Y-105278900D01*
X167997000Y-105278900D02*
X168322000Y-104583900D01*
X168322000Y-104583900D02*
X168623000Y-103872900D01*
X168623000Y-103872900D02*
X168900000Y-103144700D01*
X168900000Y-103144700D02*
X169153000Y-102400900D01*
X169153000Y-102400900D02*
X169383000Y-101641900D01*
X169383000Y-101641900D02*
X169590000Y-100868200D01*
X169590000Y-100868200D02*
X169770000Y-100080400D01*
X169770000Y-100080400D02*
X169927000Y-99279200D01*
X169927000Y-99279200D02*
X170057000Y-98465100D01*
X170057000Y-98465100D02*
X170163000Y-97638400D01*
X170163000Y-97638400D02*
X170243000Y-96800200D01*
X170243000Y-96800200D02*
X170263000Y-96462600D01*
X170263000Y-96462600D02*
X170278000Y-96021400D01*
X170278000Y-96021400D02*
X170288000Y-94962100D01*
X170288000Y-94962100D02*
X170278000Y-93889100D01*
X170278000Y-93889100D02*
X170263000Y-93431100D01*
X170263000Y-93431100D02*
X170243000Y-93069900D01*
X170243000Y-93069900D02*
X170161000Y-92155300D01*
X170161000Y-92155300D02*
X170048000Y-91250900D01*
X170048000Y-91250900D02*
X169905000Y-90357100D01*
X169905000Y-90357100D02*
X169732000Y-89474400D01*
X169732000Y-89474400D02*
X169528000Y-88603400D01*
X169528000Y-88603400D02*
X169295000Y-87744400D01*
X169295000Y-87744400D02*
X169033000Y-86898100D01*
X169033000Y-86898100D02*
X168742000Y-86064900D01*
X168742000Y-86064900D02*
X168422000Y-85244800D01*
X168422000Y-85244800D02*
X168072000Y-84439100D01*
X168072000Y-84439100D02*
X167693000Y-83648000D01*
X167693000Y-83648000D02*
X167287000Y-82871600D01*
X167287000Y-82871600D02*
X166852000Y-82110800D01*
X166852000Y-82110800D02*
X166387000Y-81366100D01*
X166387000Y-81366100D02*
X165895000Y-80637600D01*
X165895000Y-80637600D02*
X165377000Y-79926100D01*
X165377000Y-79926100D02*
X165110000Y-79594000D01*
X165110000Y-79594000D02*
X164780000Y-79210100D01*
X164780000Y-79210100D02*
X164405000Y-78794300D01*
X164405000Y-78794300D02*
X164005000Y-78366100D01*
X164005000Y-78366100D02*
X163595000Y-77945500D01*
X163595000Y-77945500D02*
X163199000Y-77551600D01*
X163199000Y-77551600D02*
X162830000Y-77204600D01*
X162830000Y-77204600D02*
X162510000Y-76924100D01*
X162510000Y-76924100D02*
X162035000Y-76540100D01*
X162035000Y-76540100D02*
X161554000Y-76176500D01*
X161554000Y-76176500D02*
X161064000Y-75833500D01*
X161064000Y-75833500D02*
X160569000Y-75511200D01*
X160569000Y-75511200D02*
X160069000Y-75209500D01*
X160069000Y-75209500D02*
X159562000Y-74928700D01*
X159562000Y-74928700D02*
X159049000Y-74668500D01*
X159049000Y-74668500D02*
X158532000Y-74429500D01*
X158532000Y-74429500D02*
X158009000Y-74211500D01*
X158009000Y-74211500D02*
X157481000Y-74014700D01*
X157481000Y-74014700D02*
X156949000Y-73839000D01*
X156949000Y-73839000D02*
X156411000Y-73684700D01*
X156411000Y-73684700D02*
X155869000Y-73551700D01*
X155869000Y-73551700D02*
X155322000Y-73440200D01*
X155322000Y-73440200D02*
X154772000Y-73350300D01*
X154772000Y-73350300D02*
X154217000Y-73282200D01*
X154217000Y-73282200D02*
X153942000Y-73260800D01*
X153942000Y-73260800D02*
X153606000Y-73245500D01*
X153606000Y-73245500D02*
X152833000Y-73233500D01*
X152833000Y-73233500D02*
X152076000Y-73245800D01*
X152076000Y-73245800D02*
X151758000Y-73261200D01*
X151758000Y-73261200D02*
X151511000Y-73282500D01*
X151511000Y-73282500D02*
X150963000Y-73356800D01*
X150963000Y-73356800D02*
X150436000Y-73444800D01*
X150436000Y-73444800D02*
X149936000Y-73545600D01*
X149936000Y-73545600D02*
X149466000Y-73658100D01*
X149466000Y-73658100D02*
X149029000Y-73781100D01*
X149029000Y-73781100D02*
X148633000Y-73913600D01*
X148633000Y-73913600D02*
X148279000Y-74054300D01*
X148279000Y-74054300D02*
X147973000Y-74202300D01*
X147973000Y-74202300D02*
X147709000Y-74331800D01*
X147709000Y-74331800D02*
X147520000Y-74396100D01*
X147520000Y-74396100D02*
X147450000Y-74404300D01*
X147450000Y-74404300D02*
X147396000Y-74396600D01*
X147396000Y-74396600D02*
X147358000Y-74373300D01*
X147358000Y-74373300D02*
X147335000Y-74334500D01*
X147335000Y-74334500D02*
X147321000Y-74190800D01*
X147321000Y-74190800D02*
X147313000Y-73881000D01*
X147313000Y-73881000D02*
X147310000Y-72954500D01*
X147310000Y-72954500D02*
X147324000Y-71939500D01*
X147324000Y-71939500D02*
X147352000Y-71220000D01*
X147352000Y-71220000D02*
X147425000Y-70464800D01*
X147425000Y-70464800D02*
X147465000Y-70158000D01*
X147465000Y-70158000D02*
X147512000Y-69889700D01*
X147512000Y-69889700D02*
X147565000Y-69653000D01*
X147565000Y-69653000D02*
X147627000Y-69441500D01*
X147627000Y-69441500D02*
X147695000Y-69248300D01*
X147695000Y-69248300D02*
X147775000Y-69067000D01*
X147775000Y-69067000D02*
X147850000Y-68924200D01*
X147850000Y-68924200D02*
X147930000Y-68789500D01*
X147930000Y-68789500D02*
X148015000Y-68664200D01*
X148015000Y-68664200D02*
X148105000Y-68549200D01*
X148105000Y-68549200D02*
X148199000Y-68445800D01*
X148199000Y-68445800D02*
X148294000Y-68355000D01*
X148294000Y-68355000D02*
X148392000Y-68277800D01*
X148392000Y-68277800D02*
X148490000Y-68215500D01*
X148490000Y-68215500D02*
X148623000Y-68134500D01*
X148623000Y-68134500D02*
X148682000Y-68077700D01*
X148682000Y-68077700D02*
X148685000Y-68056300D01*
X148685000Y-68056300D02*
X148671000Y-68038800D01*
X148671000Y-68038800D02*
X148593000Y-68011500D01*
X148593000Y-68011500D02*
X147848000Y-67988000D01*
X147848000Y-67988000D02*
X146198000Y-67961300D01*
X146198000Y-67961300D02*
X144865000Y-67939300D01*
X144865000Y-67939300D02*
X143953000Y-67910200D01*
X143953000Y-67910200D02*
X143390000Y-67870500D01*
X143390000Y-67870500D02*
X143213000Y-67845300D01*
X143213000Y-67845300D02*
X143093000Y-67816300D01*
X143093000Y-67816300D02*
X143055000Y-67806600D01*
X143055000Y-67806600D02*
X143033000Y-67810600D01*
X143033000Y-67810600D02*
X143026000Y-67833300D01*
X143026000Y-67833300D02*
X143038000Y-67880000D01*
X143038000Y-67880000D02*
X143123000Y-68065000D01*
X143123000Y-68065000D02*
X143305000Y-68406300D01*
X143305000Y-68406300D02*
X143456000Y-68708000D01*
X143456000Y-68708000D02*
X143578000Y-68996500D01*
X143578000Y-68996500D02*
X143671000Y-69287800D01*
X143671000Y-69287800D02*
X143738000Y-69598500D01*
X143738000Y-69598500D02*
X143781000Y-69944600D01*
X143781000Y-69944600D02*
X143805000Y-70342800D01*
X143805000Y-70342800D02*
X143810000Y-70809300D01*
X143810000Y-70809300D02*
X143802000Y-71360500D01*
X143802000Y-71360500D02*
X143773000Y-72197100D01*
X143773000Y-72197100D02*
X143735000Y-72914000D01*
X143735000Y-72914000D02*
X143685000Y-73516500D01*
X143685000Y-73516500D02*
X143627000Y-74009500D01*
X143627000Y-74009500D02*
X143594000Y-74212500D01*
X143594000Y-74212500D02*
X143560000Y-74331100D01*
X143560000Y-74331100D02*
X143542000Y-74367600D01*
X143542000Y-74367600D02*
X143519000Y-74393500D01*
X143519000Y-74393500D02*
X143454000Y-74427800D01*
X143454000Y-74427800D02*
X143380000Y-74442300D01*
X143380000Y-74442300D02*
X143297000Y-74421100D01*
X143297000Y-74421100D02*
X143177000Y-74353100D01*
X143177000Y-74353100D02*
X142997000Y-74226600D01*
X142997000Y-74226600D02*
X142719000Y-74044100D01*
X142719000Y-74044100D02*
X142580000Y-73971300D01*
X142580000Y-73971300D02*
X142434000Y-73906800D01*
X142434000Y-73906800D02*
X142269000Y-73848000D01*
X142269000Y-73848000D02*
X142082000Y-73791800D01*
X142082000Y-73791800D02*
X141607000Y-73676400D01*
X141607000Y-73676400D02*
X141086000Y-73566300D01*
X141086000Y-73566300D02*
X140602000Y-73476100D01*
X140602000Y-73476100D02*
X140147000Y-73404900D01*
X140147000Y-73404900D02*
X139707000Y-73351800D01*
X139707000Y-73351800D02*
X139276000Y-73315600D01*
X139276000Y-73315600D02*
X138841000Y-73295100D01*
X138841000Y-73295100D02*
X138391000Y-73289600D01*
X138391000Y-73289600D02*
X137919000Y-73297900D01*
X137919000Y-73297900D02*
X137126000Y-73340400D01*
X137126000Y-73340400D02*
X136354000Y-73419400D01*
X136354000Y-73419400D02*
X135974000Y-73473100D01*
X135974000Y-73473100D02*
X135599000Y-73536200D01*
X135599000Y-73536200D02*
X135226000Y-73609100D01*
X135226000Y-73609100D02*
X134858000Y-73691700D01*
X134858000Y-73691700D02*
X134489000Y-73784200D01*
X134489000Y-73784200D02*
X134124000Y-73886900D01*
X134124000Y-73886900D02*
X133759000Y-73999700D01*
X133759000Y-73999700D02*
X133394000Y-74122700D01*
X133394000Y-74122700D02*
X132666000Y-74400400D01*
X132666000Y-74400400D02*
X131934000Y-74720700D01*
X131934000Y-74720700D02*
X131448000Y-74956600D01*
X131448000Y-74956600D02*
X130969000Y-75209200D01*
X130969000Y-75209200D02*
X130496000Y-75478200D01*
X130496000Y-75478200D02*
X130032000Y-75763100D01*
X130032000Y-75763100D02*
X129575000Y-76063600D01*
X129575000Y-76063600D02*
X129125000Y-76379400D01*
X129125000Y-76379400D02*
X128684000Y-76710200D01*
X128684000Y-76710200D02*
X128252000Y-77055600D01*
X128252000Y-77055600D02*
X127828000Y-77415100D01*
X127828000Y-77415100D02*
X127413000Y-77788400D01*
X127413000Y-77788400D02*
X127007300Y-78175400D01*
X127007300Y-78175400D02*
X126611400Y-78575600D01*
X126611400Y-78575600D02*
X126225100Y-78988400D01*
X126225100Y-78988400D02*
X125848900Y-79413900D01*
X125848900Y-79413900D02*
X125483100Y-79851400D01*
X125483100Y-79851400D02*
X125128000Y-80300600D01*
X125128000Y-80300600D02*
X124783500Y-80761200D01*
X124783500Y-80761200D02*
X124450300Y-81233100D01*
X124450300Y-81233100D02*
X124128700Y-81715600D01*
X124128700Y-81715600D02*
X123818500Y-82208500D01*
X123818500Y-82208500D02*
X123520400Y-82711400D01*
X123520400Y-82711400D02*
X123234600Y-83223900D01*
X123234600Y-83223900D02*
X122961300Y-83745900D01*
X122961300Y-83745900D02*
X122700600Y-84276700D01*
X122700600Y-84276700D02*
X122452900Y-84816200D01*
X122452900Y-84816200D02*
X122218800Y-85363900D01*
X122218800Y-85363900D02*
X121998000Y-85919500D01*
X121998000Y-85919500D02*
X121791200Y-86482900D01*
X121791200Y-86482900D02*
X121598500Y-87053200D01*
X121598500Y-87053200D02*
X121420000Y-87630500D01*
X121420000Y-87630500D02*
X121256400Y-88214400D01*
X121256400Y-88214400D02*
X121107500Y-88804400D01*
X121107500Y-88804400D02*
X120938500Y-89549500D01*
X120938500Y-89549500D02*
X120798900Y-90249200D01*
X120798900Y-90249200D02*
X120686600Y-90921700D01*
X120686600Y-90921700D02*
X120599400Y-91584700D01*
X120599400Y-91584700D02*
X120535400Y-92256200D01*
X120535400Y-92256200D02*
X120492700Y-92954300D01*
X120492700Y-92954300D02*
X120468900Y-93696800D01*
X120468900Y-93696800D02*
X120462400Y-94501800D01*
X120462400Y-94501800D02*
X120467600Y-95293700D01*
X120467600Y-95293700D02*
X120482900Y-95879200D01*
X120482900Y-95879200D02*
X120513100Y-96364200D01*
X120513100Y-96364200D02*
X120562600Y-96854700D01*
X120562600Y-96854700D02*
X120671300Y-97683700D01*
X120671300Y-97683700D02*
X120805400Y-98495800D01*
X120805400Y-98495800D02*
X120964900Y-99291500D01*
X120964900Y-99291500D02*
X121149900Y-100070200D01*
X121149900Y-100070200D02*
X121360200Y-100832200D01*
X121360200Y-100832200D02*
X121595900Y-101577200D01*
X121595900Y-101577200D02*
X121857000Y-102305500D01*
X121857000Y-102305500D02*
X122143500Y-103017000D01*
X122143500Y-103017000D02*
X122455300Y-103711900D01*
X122455300Y-103711900D02*
X122792600Y-104388900D01*
X122792600Y-104388900D02*
X123155100Y-105049900D01*
X123155100Y-105049900D02*
X123543100Y-105693900D01*
X123543100Y-105693900D02*
X123956400Y-106320900D01*
X123956400Y-106320900D02*
X124395000Y-106930900D01*
X124395000Y-106930900D02*
X124859000Y-107523900D01*
X124859000Y-107523900D02*
X125348300Y-108100900D01*
X125348300Y-108100900D02*
X125746100Y-108534900D01*
X125746100Y-108534900D02*
X126073900Y-108854900D01*
X126073900Y-108854900D02*
X126222400Y-108981900D01*
X126222400Y-108981900D02*
X126366600Y-109090900D01*
X126366600Y-109090900D02*
X126510700Y-109186900D01*
X126510700Y-109186900D02*
X126659100Y-109273900D01*
X126659100Y-109273900D02*
X126882000Y-109404900D01*
X126882000Y-109404900D02*
X126975400Y-109476900D01*
X126975400Y-109476900D02*
X126977700Y-109484900D01*
X126977700Y-109484900D02*
X126971500Y-109487900D01*
X126971500Y-109487900D02*
X126932800Y-109479900D01*
X126932800Y-109479900D02*
X126747800Y-109404900D01*
X126747800Y-109404900D02*
X126523300Y-109284900D01*
X126523300Y-109284900D02*
X126282000Y-109119900D01*
X126282000Y-109119900D02*
X126026200Y-108913900D01*
X126026200Y-108913900D02*
X125758200Y-108668900D01*
X125758200Y-108668900D02*
X125480200Y-108388900D01*
X125480200Y-108388900D02*
X125194800Y-108076900D01*
X125194800Y-108076900D02*
X124904100Y-107734900D01*
X124904100Y-107734900D02*
X124610500Y-107366900D01*
X124610500Y-107366900D02*
X124316300Y-106974900D01*
X124316300Y-106974900D02*
X124023800Y-106562900D01*
X124023800Y-106562900D02*
X123735500Y-106133900D01*
X123735500Y-106133900D02*
X123453500Y-105690900D01*
X123453500Y-105690900D02*
X123180400Y-105235900D01*
X123180400Y-105235900D02*
X122918200Y-104771900D01*
X122918200Y-104771900D02*
X122669200Y-104303900D01*
X122669200Y-104303900D02*
X122436300Y-103832900D01*
X122436300Y-103832900D02*
X122234300Y-103396900D01*
X122234300Y-103396900D02*
X122042900Y-102956200D01*
X122042900Y-102956200D02*
X121862100Y-102512100D01*
X121862100Y-102512100D02*
X121691800Y-102063400D01*
X121691800Y-102063400D02*
X121531800Y-101610100D01*
X121531800Y-101610100D02*
X121382200Y-101151700D01*
X121382200Y-101151700D02*
X121242700Y-100688100D01*
X121242700Y-100688100D02*
X121113300Y-100218600D01*
X121113300Y-100218600D02*
X120993800Y-99742900D01*
X120993800Y-99742900D02*
X120884300Y-99260900D01*
X120884300Y-99260900D02*
X120784700Y-98772100D01*
X120784700Y-98772100D02*
X120694700Y-98276100D01*
X120694700Y-98276100D02*
X120614400Y-97772400D01*
X120614400Y-97772400D02*
X120543500Y-97261100D01*
X120543500Y-97261100D02*
X120482200Y-96741400D01*
X120482200Y-96741400D02*
X120430200Y-96213200D01*
X120430200Y-96213200D02*
X120405000Y-95832100D01*
X120405000Y-95832100D02*
X120388200Y-95364900D01*
X120388200Y-95364900D02*
X120378700Y-94284900D01*
X120378700Y-94284900D02*
X120400400Y-93197700D01*
X120400400Y-93197700D02*
X120422400Y-92721400D01*
X120422400Y-92721400D02*
X120451700Y-92327800D01*
X120451700Y-92327800D02*
X120513200Y-91755300D01*
X120513200Y-91755300D02*
X120587000Y-91186900D01*
X120587000Y-91186900D02*
X120673000Y-90622900D01*
X120673000Y-90622900D02*
X120771200Y-90063600D01*
X120771200Y-90063600D02*
X120881300Y-89509300D01*
X120881300Y-89509300D02*
X121003500Y-88959800D01*
X121003500Y-88959800D02*
X121137300Y-88415600D01*
X121137300Y-88415600D02*
X121282800Y-87877100D01*
X121282800Y-87877100D02*
X121440000Y-87344300D01*
X121440000Y-87344300D02*
X121608600Y-86817300D01*
X121608600Y-86817300D02*
X121788600Y-86296600D01*
X121788600Y-86296600D02*
X121979900Y-85782100D01*
X121979900Y-85782100D02*
X122182200Y-85274300D01*
X122182200Y-85274300D02*
X122395700Y-84773300D01*
X122395700Y-84773300D02*
X122620100Y-84279400D01*
X122620100Y-84279400D02*
X122855200Y-83792800D01*
X122855200Y-83792800D02*
X123101200Y-83313600D01*
X123101200Y-83313600D02*
X123357700Y-82842100D01*
X123357700Y-82842100D02*
X123624700Y-82378500D01*
X123624700Y-82378500D02*
X123902000Y-81923000D01*
X123902000Y-81923000D02*
X124189600Y-81476000D01*
X124189600Y-81476000D02*
X124487400Y-81037300D01*
X124487400Y-81037300D02*
X124795300Y-80607600D01*
X124795300Y-80607600D02*
X125113100Y-80186800D01*
X125113100Y-80186800D02*
X125440700Y-79775300D01*
X125440700Y-79775300D02*
X125778000Y-79373300D01*
X125778000Y-79373300D02*
X126125200Y-78980800D01*
X126125200Y-78980800D02*
X126481700Y-78598300D01*
X126481700Y-78598300D02*
X126847600Y-78225800D01*
X126847600Y-78225800D02*
X127222800Y-77863800D01*
X127222800Y-77863800D02*
X127607000Y-77512100D01*
X127607000Y-77512100D02*
X128001000Y-77171500D01*
X128001000Y-77171500D02*
X128350000Y-76884000D01*
X128350000Y-76884000D02*
X128704000Y-76606800D01*
X128704000Y-76606800D02*
X129062000Y-76340100D01*
X129062000Y-76340100D02*
X129424000Y-76084000D01*
X129424000Y-76084000D02*
X129791000Y-75838300D01*
X129791000Y-75838300D02*
X130160000Y-75603100D01*
X130160000Y-75603100D02*
X130534000Y-75378600D01*
X130534000Y-75378600D02*
X130910000Y-75165000D01*
X130910000Y-75165000D02*
X131290000Y-74961800D01*
X131290000Y-74961800D02*
X131673000Y-74769500D01*
X131673000Y-74769500D02*
X132059000Y-74588000D01*
X132059000Y-74588000D02*
X132448000Y-74417500D01*
X132448000Y-74417500D02*
X132838000Y-74258000D01*
X132838000Y-74258000D02*
X133231000Y-74109300D01*
X133231000Y-74109300D02*
X133626000Y-73971800D01*
X133626000Y-73971800D02*
X134023000Y-73845500D01*
X134023000Y-73845500D02*
X134423000Y-73730300D01*
X134423000Y-73730300D02*
X134822000Y-73626300D01*
X134822000Y-73626300D02*
X135224000Y-73533500D01*
X135224000Y-73533500D02*
X135627000Y-73452200D01*
X135627000Y-73452200D02*
X136031000Y-73382200D01*
X136031000Y-73382200D02*
X136436000Y-73323700D01*
X136436000Y-73323700D02*
X136841000Y-73276500D01*
X136841000Y-73276500D02*
X137247000Y-73241000D01*
X137247000Y-73241000D02*
X137652000Y-73217200D01*
X137652000Y-73217200D02*
X138059000Y-73204800D01*
X138059000Y-73204800D02*
X138466000Y-73204300D01*
X138466000Y-73204300D02*
X138872000Y-73215700D01*
X138872000Y-73215700D02*
X139277000Y-73238700D01*
X139277000Y-73238700D02*
X139682000Y-73273700D01*
X139682000Y-73273700D02*
X140087000Y-73320700D01*
X140087000Y-73320700D02*
X140490000Y-73379500D01*
X140490000Y-73379500D02*
X141244000Y-73496600D01*
X141244000Y-73496600D02*
X141587000Y-73565100D01*
X141587000Y-73565100D02*
X142019000Y-73678500D01*
X142019000Y-73678500D02*
X142425000Y-73804300D01*
X142425000Y-73804300D02*
X142584000Y-73861800D01*
X142584000Y-73861800D02*
X142692000Y-73910300D01*
X142692000Y-73910300D02*
X142910000Y-74042600D01*
X142910000Y-74042600D02*
X143125000Y-74197000D01*
X143125000Y-74197000D02*
X143295000Y-74312500D01*
X143295000Y-74312500D02*
X143365000Y-74344300D01*
X143365000Y-74344300D02*
X143410000Y-74352000D01*
X143410000Y-74352000D02*
X143444000Y-74331300D01*
X143444000Y-74331300D02*
X143475000Y-74283300D01*
X143475000Y-74283300D02*
X143504000Y-74209000D01*
X143504000Y-74209000D02*
X143532000Y-74108700D01*
X143532000Y-74108700D02*
X143582000Y-73833500D01*
X143582000Y-73833500D02*
X143625000Y-73463500D01*
X143625000Y-73463500D02*
X143659000Y-73004500D01*
X143659000Y-73004500D02*
X143685000Y-72462000D01*
X143685000Y-72462000D02*
X143702000Y-71841700D01*
X143702000Y-71841700D02*
X143709000Y-71149400D01*
X143709000Y-71149400D02*
X143707000Y-70331000D01*
X143707000Y-70331000D02*
X143695000Y-69850400D01*
X143695000Y-69850400D02*
X143665000Y-69561500D01*
X143665000Y-69561500D02*
X143607000Y-69318400D01*
X143607000Y-69318400D02*
X143552000Y-69142400D01*
X143552000Y-69142400D02*
X143477000Y-68942400D01*
X143477000Y-68942400D02*
X143390000Y-68742700D01*
X143390000Y-68742700D02*
X143305000Y-68568000D01*
X143305000Y-68568000D02*
X143137000Y-68245400D01*
X143137000Y-68245400D02*
X143002000Y-67964500D01*
X143002000Y-67964500D02*
X142917000Y-67761500D01*
X142917000Y-67761500D02*
X142897000Y-67700700D01*
X142897000Y-67700700D02*
X142897000Y-67674400D01*
X142897000Y-67674400D02*
X142967000Y-67683900D01*
X142967000Y-67683900D02*
X143112000Y-67732200D01*
X143112000Y-67732200D02*
X143257000Y-67764400D01*
X143257000Y-67764400D02*
X143515000Y-67793600D01*
X143515000Y-67793600D02*
X144342000Y-67841900D01*
X144342000Y-67841900D02*
X145542000Y-67875100D01*
X145542000Y-67875100D02*
X147065000Y-67891200D01*
X147065000Y-67891200D02*
X147947000Y-67901600D01*
X147947000Y-67901600D02*
X148248000Y-67912900D01*
X148248000Y-67912900D02*
X148470000Y-67930100D01*
X148470000Y-67930100D02*
X148625000Y-67953900D01*
X148625000Y-67953900D02*
X148722000Y-67985600D01*
X148722000Y-67985600D02*
X148772000Y-68026600D01*
X148772000Y-68026600D02*
X148787000Y-68078100D01*
X148787000Y-68078100D02*
X148779000Y-68115900D01*
X148779000Y-68115900D02*
X148757000Y-68150900D01*
X148757000Y-68150900D02*
X148725000Y-68180100D01*
X148725000Y-68180100D02*
X148685000Y-68199900D01*
X148685000Y-68199900D02*
X148610000Y-68231100D01*
X148610000Y-68231100D02*
X148529000Y-68276700D01*
X148529000Y-68276700D02*
X148359000Y-68402700D01*
X148359000Y-68402700D02*
X148190000Y-68561600D01*
X148190000Y-68561600D02*
X148049000Y-68736700D01*
X148049000Y-68736700D02*
X147912000Y-68956700D01*
X147912000Y-68956700D02*
X147794000Y-69203200D01*
X147794000Y-69203200D02*
X147695000Y-69484400D01*
X147695000Y-69484400D02*
X147612000Y-69807900D01*
X147612000Y-69807900D02*
X147542000Y-70182200D01*
X147542000Y-70182200D02*
X147485000Y-70615200D01*
X147485000Y-70615200D02*
X147439000Y-71115200D01*
X147439000Y-71115200D02*
X147402000Y-71690100D01*
X147402000Y-71690100D02*
X147362000Y-72714400D01*
X147362000Y-72714400D02*
X147357000Y-73152600D01*
X147357000Y-73152600D02*
X147362000Y-73531400D01*
X147362000Y-73531400D02*
X147377000Y-73843100D01*
X147377000Y-73843100D02*
X147400000Y-74080600D01*
X147400000Y-74080600D02*
X147433000Y-74235900D01*
X147433000Y-74235900D02*
X147452000Y-74280400D01*
X147452000Y-74280400D02*
X147475000Y-74301700D01*
X147475000Y-74301700D02*
X147528000Y-74294200D01*
X147528000Y-74294200D02*
X147633000Y-74255700D01*
X147633000Y-74255700D02*
X147932000Y-74110900D01*
X147932000Y-74110900D02*
X148107000Y-74025200D01*
X148107000Y-74025200D02*
X148317000Y-73937700D01*
X148317000Y-73937700D02*
X148562000Y-73849000D01*
X148562000Y-73849000D02*
X148840000Y-73759500D01*
X148840000Y-73759500D02*
X149487000Y-73581000D01*
X149487000Y-73581000D02*
X150240000Y-73406400D01*
X150240000Y-73406400D02*
X150582000Y-73339200D01*
X150582000Y-73339200D02*
X150931000Y-73282200D01*
X150931000Y-73282200D02*
X151286000Y-73235000D01*
X151286000Y-73235000D02*
X151648000Y-73197900D01*
X151648000Y-73197900D02*
X152013000Y-73170500D01*
X152013000Y-73170500D02*
X152383000Y-73153200D01*
X152383000Y-73153200D02*
X152755000Y-73145700D01*
X152755000Y-73145700D02*
X153128000Y-73148000D01*
X153128000Y-73148000D02*
X153503000Y-73160300D01*
X153503000Y-73160300D02*
X153876000Y-73182500D01*
X153876000Y-73182500D02*
X154251000Y-73214300D01*
X154251000Y-73214300D02*
X154623000Y-73256200D01*
X154623000Y-73256200D02*
X154993000Y-73307700D01*
X154993000Y-73307700D02*
X155358000Y-73369000D01*
X155358000Y-73369000D02*
X155721000Y-73440000D01*
X155721000Y-73440000D02*
X156076000Y-73520800D01*
X156076000Y-73520800D02*
X156783000Y-73711000D01*
X156783000Y-73711000D02*
X157481000Y-73936500D01*
X157481000Y-73936500D02*
X158169000Y-74197000D01*
X158169000Y-74197000D02*
X158846000Y-74492000D01*
X158846000Y-74492000D02*
X159514000Y-74820800D01*
X159514000Y-74820800D02*
X160169000Y-75183200D01*
X160169000Y-75183200D02*
X160813000Y-75578200D01*
X160813000Y-75578200D02*
X161443000Y-76005700D01*
X161443000Y-76005700D02*
X162057000Y-76465000D01*
X162057000Y-76465000D02*
X162659000Y-76955700D01*
X162659000Y-76955700D02*
X163244000Y-77477300D01*
X163244000Y-77477300D02*
X163814000Y-78029000D01*
X163814000Y-78029000D02*
X164367000Y-78610600D01*
X164367000Y-78610600D02*
X164904000Y-79221500D01*
X164904000Y-79221500D02*
X165421000Y-79861100D01*
X165421000Y-79861100D02*
X165919000Y-80529100D01*
X165919000Y-80529100D02*
X166337000Y-81133800D01*
X166337000Y-81133800D02*
X166737000Y-81756100D01*
X166737000Y-81756100D02*
X167117000Y-82395300D01*
X167117000Y-82395300D02*
X167479000Y-83050300D01*
X167479000Y-83050300D02*
X167820000Y-83720300D01*
X167820000Y-83720300D02*
X168142000Y-84404500D01*
X168142000Y-84404500D02*
X168444000Y-85102000D01*
X168444000Y-85102000D02*
X168725000Y-85811800D01*
X168725000Y-85811800D02*
X168987000Y-86533000D01*
X168987000Y-86533000D02*
X169225000Y-87265000D01*
X169225000Y-87265000D02*
X169444000Y-88006600D01*
X169444000Y-88006600D02*
X169640000Y-88757100D01*
X169640000Y-88757100D02*
X169814000Y-89515600D01*
X169814000Y-89515600D02*
X169965000Y-90281300D01*
X169965000Y-90281300D02*
X170094000Y-91052900D01*
X170094000Y-91052900D02*
X170199000Y-91830100D01*
X170199000Y-91830100D02*
X170285000Y-92675600D01*
X170285000Y-92675600D02*
X170345000Y-93531600D01*
X170345000Y-93531600D02*
X170375000Y-94393600D01*
X170375000Y-94393600D02*
X170378000Y-95256900D01*
X170378000Y-95256900D02*
X170353000Y-96116800D01*
X170353000Y-96116800D02*
X170302000Y-96968600D01*
X170302000Y-96968600D02*
X170220000Y-97807800D01*
X170220000Y-97807800D02*
X170112000Y-98629600D01*
X170112000Y-98629600D02*
X169973000Y-99449100D01*
X169973000Y-99449100D02*
X169810000Y-100256600D01*
X169810000Y-100256600D02*
X169620000Y-101050700D01*
X169620000Y-101050700D02*
X169407000Y-101831100D01*
X169407000Y-101831100D02*
X169168000Y-102596400D01*
X169168000Y-102596400D02*
X168907000Y-103345900D01*
X168907000Y-103345900D02*
X168620000Y-104078900D01*
X168620000Y-104078900D02*
X168310000Y-104792900D01*
X168310000Y-104792900D02*
X167977000Y-105488900D01*
X167977000Y-105488900D02*
X167622000Y-106165900D01*
X167622000Y-106165900D02*
X167245000Y-106821900D01*
X167245000Y-106821900D02*
X166847000Y-107455900D01*
X166847000Y-107455900D02*
X166427000Y-108067900D01*
X166427000Y-108067900D02*
X165987000Y-108656900D01*
X165987000Y-108656900D02*
X165525000Y-109220900D01*
X165525000Y-109220900D02*
X165045000Y-109759900D01*
X165045000Y-109759900D02*
X164687000Y-110134900D01*
X164687000Y-110134900D02*
X164337000Y-110488900D01*
X164337000Y-110488900D02*
X163997000Y-110816900D01*
X163997000Y-110816900D02*
X163675000Y-111112900D01*
X163675000Y-111112900D02*
X163380000Y-111369900D01*
X163380000Y-111369900D02*
X163117000Y-111581900D01*
X163117000Y-111581900D02*
X162894000Y-111743900D01*
X162894000Y-111743900D02*
X162715000Y-111848900D01*
X162715000Y-111848900D02*
X162462000Y-111956900D01*
X162462000Y-111956900D02*
X162202000Y-112039900D01*
X162202000Y-112039900D02*
X161950000Y-112091900D01*
X161950000Y-112091900D02*
X161722000Y-112110900D01*
X161722000Y-112110900D02*
X161565000Y-112114900D01*
X161565000Y-112114900D02*
X161467000Y-112134900D01*
X161467000Y-112134900D02*
X161397000Y-112185900D01*
X161397000Y-112185900D02*
X161322000Y-112281900D01*
X161322000Y-112281900D02*
X161232000Y-112390900D01*
X161232000Y-112390900D02*
X161092000Y-112539900D01*
X161092000Y-112539900D02*
X160712000Y-112912900D01*
X160712000Y-112912900D02*
X160282000Y-113307900D01*
X160282000Y-113307900D02*
X159902000Y-113631900D01*
X159902000Y-113631900D02*
X159591000Y-113865900D01*
X159591000Y-113865900D02*
X159267000Y-114092900D01*
X159267000Y-114092900D02*
X158936000Y-114306900D01*
X158936000Y-114306900D02*
X158606000Y-114504900D01*
X158606000Y-114504900D02*
X158286000Y-114679900D01*
X158286000Y-114679900D02*
X157986000Y-114827900D01*
X157986000Y-114827900D02*
X157712000Y-114944900D01*
X157712000Y-114944900D02*
X157476000Y-115023900D01*
X157476000Y-115023900D02*
X157106000Y-115101900D01*
X157106000Y-115101900D02*
X156709000Y-115152900D01*
X156709000Y-115152900D02*
X156292000Y-115184900D01*
X156292000Y-115184900D02*
X156026000Y-115497900D01*
X156026000Y-115497900D02*
X155859000Y-115685900D01*
X155859000Y-115685900D02*
X155686000Y-115865900D01*
X155686000Y-115865900D02*
X155506000Y-116037900D01*
X155506000Y-116037900D02*
X155319000Y-116201900D01*
X155319000Y-116201900D02*
X155128000Y-116357900D01*
X155128000Y-116357900D02*
X154929000Y-116505900D01*
X154929000Y-116505900D02*
X154726000Y-116644900D01*
X154726000Y-116644900D02*
X154518000Y-116776900D01*
X154518000Y-116776900D02*
X154303000Y-116898900D01*
X154303000Y-116898900D02*
X154083000Y-117012900D01*
X154083000Y-117012900D02*
X153858000Y-117118900D01*
X153858000Y-117118900D02*
X153628000Y-117214900D01*
X153628000Y-117214900D02*
X153393000Y-117302900D01*
X153393000Y-117302900D02*
X153154000Y-117380900D01*
X153154000Y-117380900D02*
X152911000Y-117450900D01*
X152911000Y-117450900D02*
X152663000Y-117510900D01*
X152663000Y-117510900D02*
X152416000Y-117554900D01*
X152416000Y-117554900D02*
X152128000Y-117586900D01*
X152128000Y-117586900D02*
X151813000Y-117607900D01*
X151813000Y-117607900D02*
X151481000Y-117616900D01*
X151481000Y-117616900D02*
X151148000Y-117613900D01*
X151148000Y-117613900D02*
X150824000Y-117598900D01*
X150824000Y-117598900D02*
X150526000Y-117571900D01*
X150526000Y-117571900D02*
X150263000Y-117532900D01*
X150263000Y-117532900D02*
X149693000Y-117409900D01*
X149693000Y-117409900D02*
X149128000Y-117253900D01*
X149128000Y-117253900D02*
X148565000Y-117063900D01*
X148565000Y-117063900D02*
X148000000Y-116838900D01*
X148000000Y-116838900D02*
X147430000Y-116575900D01*
X147430000Y-116575900D02*
X146851000Y-116274900D01*
X146851000Y-116274900D02*
X146260000Y-115933900D01*
X146260000Y-115933900D02*
X145653000Y-115551900D01*
X145653000Y-115551900D02*
X145360000Y-115373900D01*
X145360000Y-115373900D02*
X145253000Y-115319900D01*
X145253000Y-115319900D02*
X145195000Y-115299900D01*
X145195000Y-115299900D02*
X145158000Y-115316900D01*
X145158000Y-115316900D02*
X145111000Y-115362900D01*
X145111000Y-115362900D02*
X145061000Y-115433900D01*
X145061000Y-115433900D02*
X145013000Y-115521900D01*
X145013000Y-115521900D02*
X144936000Y-115654900D01*
X144936000Y-115654900D02*
X144836000Y-115794900D01*
X144836000Y-115794900D02*
X144715000Y-115939900D01*
X144715000Y-115939900D02*
X144576000Y-116082900D01*
X144576000Y-116082900D02*
X144428000Y-116221900D01*
X144428000Y-116221900D02*
X144273000Y-116349900D01*
X144273000Y-116349900D02*
X144115000Y-116463900D01*
X144115000Y-116463900D02*
X143958000Y-116559900D01*
X143958000Y-116559900D02*
X143685000Y-116701900D01*
X143685000Y-116701900D02*
X143382000Y-116842900D01*
X143382000Y-116842900D02*
X143058000Y-116978900D01*
X143058000Y-116978900D02*
X142717000Y-117109900D01*
X142717000Y-117109900D02*
X142363000Y-117231900D01*
X142363000Y-117231900D02*
X142005000Y-117344900D01*
X142005000Y-117344900D02*
X141645000Y-117445900D01*
X141645000Y-117445900D02*
X141290000Y-117531900D01*
X141290000Y-117531900D02*
X140982000Y-117594900D01*
X140982000Y-117594900D02*
X140683000Y-117632900D01*
X140683000Y-117632900D02*
X140315000Y-117655900D01*
X140315000Y-117655900D02*
X139800000Y-117669900D01*
X139800000Y-117669900D02*
X139340000Y-117673900D01*
X139340000Y-117673900D02*
X138973000Y-117667900D01*
X138973000Y-117667900D02*
X138683000Y-117650900D01*
X138683000Y-117650900D02*
X138455000Y-117621900D01*
X138455000Y-117621900D02*
X138455000Y-117621900D01*
X138455000Y-117621900D02*
X138450000Y-117621900D01*
%TD*%
M02*
