%TF.GenerationSoftware,KiCad,Pcbnew,5.1.9+dfsg1-1*%
%TF.CreationDate,2021-10-11T10:55:51+01:00*%
%TF.ProjectId,pumpkin_jasmine,70756d70-6b69-46e5-9f6a-61736d696e65,rev?*%
%TF.SameCoordinates,Original*%
%TF.FileFunction,Soldermask,Top*%
%TF.FilePolarity,Negative*%
%FSLAX46Y46*%
G04 Gerber Fmt 4.6, Leading zero omitted, Abs format (unit mm)*
G04 Created by KiCad (PCBNEW 5.1.9+dfsg1-1) date 2021-10-11 10:55:51*
%MOMM*%
%LPD*%
G01*
G04 APERTURE LIST*
%ADD10C,0.010000*%
%ADD11R,1.600000X1.600000*%
%ADD12O,1.600000X1.600000*%
%ADD13R,1.800000X1.800000*%
%ADD14C,1.800000*%
%ADD15O,2.400000X2.400000*%
%ADD16C,2.400000*%
G04 APERTURE END LIST*
D10*
%TO.C,Ref\u002A\u002A*%
G36*
X146528176Y-92381348D02*
G01*
X146920280Y-92393682D01*
X147266981Y-92417383D01*
X147587784Y-92454840D01*
X147902191Y-92508443D01*
X148229708Y-92580583D01*
X148589838Y-92673648D01*
X148674667Y-92696970D01*
X149503384Y-92970225D01*
X150305657Y-93321270D01*
X151074894Y-93745586D01*
X151804502Y-94238658D01*
X152487891Y-94795967D01*
X153118467Y-95412996D01*
X153689639Y-96085229D01*
X153766502Y-96186171D01*
X154269300Y-96925061D01*
X154697261Y-97699880D01*
X155049539Y-98505400D01*
X155325290Y-99336398D01*
X155523669Y-100187646D01*
X155643829Y-101053921D01*
X155684928Y-101929996D01*
X155646118Y-102810647D01*
X155526555Y-103690646D01*
X155325394Y-104564770D01*
X155192373Y-105002795D01*
X154890253Y-105792709D01*
X154513360Y-106560636D01*
X154068678Y-107296201D01*
X153563188Y-107989028D01*
X153003873Y-108628739D01*
X152397718Y-109204960D01*
X152319658Y-109271456D01*
X151598379Y-109824475D01*
X150835494Y-110306374D01*
X150036407Y-110714687D01*
X149206520Y-111046945D01*
X148351236Y-111300679D01*
X147510500Y-111468219D01*
X147328944Y-111489744D01*
X147087114Y-111509568D01*
X146803563Y-111527026D01*
X146496846Y-111541456D01*
X146185518Y-111552193D01*
X145888135Y-111558576D01*
X145623250Y-111559939D01*
X145409418Y-111555621D01*
X145288000Y-111547673D01*
X144347546Y-111410893D01*
X143450908Y-111201807D01*
X142597110Y-110919957D01*
X141785175Y-110564886D01*
X141014129Y-110136136D01*
X140282995Y-109633249D01*
X139590797Y-109055767D01*
X139223101Y-108702940D01*
X138632466Y-108049544D01*
X138110793Y-107351330D01*
X137658992Y-106613852D01*
X137277971Y-105842662D01*
X136968637Y-105043312D01*
X136731900Y-104221353D01*
X136568668Y-103382339D01*
X136479849Y-102531822D01*
X136466352Y-101675354D01*
X136529085Y-100818486D01*
X136668957Y-99966772D01*
X136886875Y-99125764D01*
X137183749Y-98301013D01*
X137431383Y-97751900D01*
X137786496Y-97084042D01*
X138171331Y-96476504D01*
X138601631Y-95907367D01*
X139093141Y-95354710D01*
X139316574Y-95127234D01*
X139987739Y-94519027D01*
X140701461Y-93983830D01*
X141458098Y-93521462D01*
X142258010Y-93131739D01*
X143101554Y-92814478D01*
X143989090Y-92569496D01*
X144568334Y-92452651D01*
X144737724Y-92427006D01*
X144923314Y-92407562D01*
X145139012Y-92393628D01*
X145398731Y-92384514D01*
X145716379Y-92379528D01*
X146071167Y-92377992D01*
X146528176Y-92381348D01*
G37*
X146528176Y-92381348D02*
X146920280Y-92393682D01*
X147266981Y-92417383D01*
X147587784Y-92454840D01*
X147902191Y-92508443D01*
X148229708Y-92580583D01*
X148589838Y-92673648D01*
X148674667Y-92696970D01*
X149503384Y-92970225D01*
X150305657Y-93321270D01*
X151074894Y-93745586D01*
X151804502Y-94238658D01*
X152487891Y-94795967D01*
X153118467Y-95412996D01*
X153689639Y-96085229D01*
X153766502Y-96186171D01*
X154269300Y-96925061D01*
X154697261Y-97699880D01*
X155049539Y-98505400D01*
X155325290Y-99336398D01*
X155523669Y-100187646D01*
X155643829Y-101053921D01*
X155684928Y-101929996D01*
X155646118Y-102810647D01*
X155526555Y-103690646D01*
X155325394Y-104564770D01*
X155192373Y-105002795D01*
X154890253Y-105792709D01*
X154513360Y-106560636D01*
X154068678Y-107296201D01*
X153563188Y-107989028D01*
X153003873Y-108628739D01*
X152397718Y-109204960D01*
X152319658Y-109271456D01*
X151598379Y-109824475D01*
X150835494Y-110306374D01*
X150036407Y-110714687D01*
X149206520Y-111046945D01*
X148351236Y-111300679D01*
X147510500Y-111468219D01*
X147328944Y-111489744D01*
X147087114Y-111509568D01*
X146803563Y-111527026D01*
X146496846Y-111541456D01*
X146185518Y-111552193D01*
X145888135Y-111558576D01*
X145623250Y-111559939D01*
X145409418Y-111555621D01*
X145288000Y-111547673D01*
X144347546Y-111410893D01*
X143450908Y-111201807D01*
X142597110Y-110919957D01*
X141785175Y-110564886D01*
X141014129Y-110136136D01*
X140282995Y-109633249D01*
X139590797Y-109055767D01*
X139223101Y-108702940D01*
X138632466Y-108049544D01*
X138110793Y-107351330D01*
X137658992Y-106613852D01*
X137277971Y-105842662D01*
X136968637Y-105043312D01*
X136731900Y-104221353D01*
X136568668Y-103382339D01*
X136479849Y-102531822D01*
X136466352Y-101675354D01*
X136529085Y-100818486D01*
X136668957Y-99966772D01*
X136886875Y-99125764D01*
X137183749Y-98301013D01*
X137431383Y-97751900D01*
X137786496Y-97084042D01*
X138171331Y-96476504D01*
X138601631Y-95907367D01*
X139093141Y-95354710D01*
X139316574Y-95127234D01*
X139987739Y-94519027D01*
X140701461Y-93983830D01*
X141458098Y-93521462D01*
X142258010Y-93131739D01*
X143101554Y-92814478D01*
X143989090Y-92569496D01*
X144568334Y-92452651D01*
X144737724Y-92427006D01*
X144923314Y-92407562D01*
X145139012Y-92393628D01*
X145398731Y-92384514D01*
X145716379Y-92379528D01*
X146071167Y-92377992D01*
X146528176Y-92381348D01*
%TD*%
D11*
%TO.C,U1*%
X142176500Y-89827100D03*
D12*
X149796500Y-82207100D03*
X142176500Y-87287100D03*
X149796500Y-84747100D03*
X142176500Y-84747100D03*
X149796500Y-87287100D03*
X142176500Y-82207100D03*
X149796500Y-89827100D03*
%TD*%
D13*
%TO.C,D1*%
X133604000Y-91274900D03*
D14*
X136144000Y-91274900D03*
%TD*%
%TO.C,D2*%
X155511500Y-91376500D03*
D13*
X158051500Y-91376500D03*
%TD*%
D15*
%TO.C,R1*%
X166535100Y-99453700D03*
D16*
X166535100Y-91833700D03*
%TD*%
%TO.C,R2*%
X124498100Y-98247200D03*
D15*
X124498100Y-90627200D03*
%TD*%
M02*
