%TF.GenerationSoftware,KiCad,Pcbnew,5.1.9+dfsg1-1*%
%TF.CreationDate,2021-10-11T10:55:51+01:00*%
%TF.ProjectId,pumpkin_jasmine,70756d70-6b69-46e5-9f6a-61736d696e65,rev?*%
%TF.SameCoordinates,Original*%
%TF.FileFunction,Legend,Bot*%
%TF.FilePolarity,Positive*%
%FSLAX46Y46*%
G04 Gerber Fmt 4.6, Leading zero omitted, Abs format (unit mm)*
G04 Created by KiCad (PCBNEW 5.1.9+dfsg1-1) date 2021-10-11 10:55:51*
%MOMM*%
%LPD*%
G01*
G04 APERTURE LIST*
%ADD10C,0.300000*%
%ADD11C,0.150000*%
%ADD12C,0.100000*%
%ADD13C,0.120000*%
G04 APERTURE END LIST*
D10*
X159211271Y-95669257D02*
X160282700Y-95669257D01*
X160496985Y-95597828D01*
X160639842Y-95454971D01*
X160711271Y-95240685D01*
X160711271Y-95097828D01*
X160711271Y-97026400D02*
X159925557Y-97026400D01*
X159782700Y-96954971D01*
X159711271Y-96812114D01*
X159711271Y-96526400D01*
X159782700Y-96383542D01*
X160639842Y-97026400D02*
X160711271Y-96883542D01*
X160711271Y-96526400D01*
X160639842Y-96383542D01*
X160496985Y-96312114D01*
X160354128Y-96312114D01*
X160211271Y-96383542D01*
X160139842Y-96526400D01*
X160139842Y-96883542D01*
X160068414Y-97026400D01*
X160639842Y-97669257D02*
X160711271Y-97812114D01*
X160711271Y-98097828D01*
X160639842Y-98240685D01*
X160496985Y-98312114D01*
X160425557Y-98312114D01*
X160282700Y-98240685D01*
X160211271Y-98097828D01*
X160211271Y-97883542D01*
X160139842Y-97740685D01*
X159996985Y-97669257D01*
X159925557Y-97669257D01*
X159782700Y-97740685D01*
X159711271Y-97883542D01*
X159711271Y-98097828D01*
X159782700Y-98240685D01*
X160711271Y-98954971D02*
X159711271Y-98954971D01*
X159854128Y-98954971D02*
X159782700Y-99026400D01*
X159711271Y-99169257D01*
X159711271Y-99383542D01*
X159782700Y-99526400D01*
X159925557Y-99597828D01*
X160711271Y-99597828D01*
X159925557Y-99597828D02*
X159782700Y-99669257D01*
X159711271Y-99812114D01*
X159711271Y-100026400D01*
X159782700Y-100169257D01*
X159925557Y-100240685D01*
X160711271Y-100240685D01*
X160711271Y-100954971D02*
X159711271Y-100954971D01*
X159211271Y-100954971D02*
X159282700Y-100883542D01*
X159354128Y-100954971D01*
X159282700Y-101026400D01*
X159211271Y-100954971D01*
X159354128Y-100954971D01*
X159711271Y-101669257D02*
X160711271Y-101669257D01*
X159854128Y-101669257D02*
X159782700Y-101740685D01*
X159711271Y-101883542D01*
X159711271Y-102097828D01*
X159782700Y-102240685D01*
X159925557Y-102312114D01*
X160711271Y-102312114D01*
X160639842Y-103597828D02*
X160711271Y-103454971D01*
X160711271Y-103169257D01*
X160639842Y-103026400D01*
X160496985Y-102954971D01*
X159925557Y-102954971D01*
X159782700Y-103026400D01*
X159711271Y-103169257D01*
X159711271Y-103454971D01*
X159782700Y-103597828D01*
X159925557Y-103669257D01*
X160068414Y-103669257D01*
X160211271Y-102954971D01*
X159211271Y-104597828D02*
X159211271Y-104883542D01*
X159282700Y-105026400D01*
X159425557Y-105169257D01*
X159711271Y-105240685D01*
X160211271Y-105240685D01*
X160496985Y-105169257D01*
X160639842Y-105026400D01*
X160711271Y-104883542D01*
X160711271Y-104597828D01*
X160639842Y-104454971D01*
X160496985Y-104312114D01*
X160211271Y-104240685D01*
X159711271Y-104240685D01*
X159425557Y-104312114D01*
X159282700Y-104454971D01*
X159211271Y-104597828D01*
X160711271Y-106097828D02*
X160639842Y-105954971D01*
X160496985Y-105883542D01*
X159211271Y-105883542D01*
X160711271Y-106669257D02*
X159711271Y-106669257D01*
X159211271Y-106669257D02*
X159282700Y-106597828D01*
X159354128Y-106669257D01*
X159282700Y-106740685D01*
X159211271Y-106669257D01*
X159354128Y-106669257D01*
X159711271Y-107240685D02*
X160711271Y-107597828D01*
X159711271Y-107954971D01*
X160711271Y-108526400D02*
X159711271Y-108526400D01*
X159211271Y-108526400D02*
X159282700Y-108454971D01*
X159354128Y-108526400D01*
X159282700Y-108597828D01*
X159211271Y-108526400D01*
X159354128Y-108526400D01*
X160711271Y-109883542D02*
X159925557Y-109883542D01*
X159782700Y-109812114D01*
X159711271Y-109669257D01*
X159711271Y-109383542D01*
X159782700Y-109240685D01*
X160639842Y-109883542D02*
X160711271Y-109740685D01*
X160711271Y-109383542D01*
X160639842Y-109240685D01*
X160496985Y-109169257D01*
X160354128Y-109169257D01*
X160211271Y-109240685D01*
X160139842Y-109383542D01*
X160139842Y-109740685D01*
X160068414Y-109883542D01*
X159211271Y-111312114D02*
X159211271Y-110597828D01*
X159925557Y-110526400D01*
X159854128Y-110597828D01*
X159782700Y-110740685D01*
X159782700Y-111097828D01*
X159854128Y-111240685D01*
X159925557Y-111312114D01*
X160068414Y-111383542D01*
X160425557Y-111383542D01*
X160568414Y-111312114D01*
X160639842Y-111240685D01*
X160711271Y-111097828D01*
X160711271Y-110740685D01*
X160639842Y-110597828D01*
X160568414Y-110526400D01*
X129864657Y-86520771D02*
X129864657Y-86020771D01*
X130650371Y-86020771D02*
X129150371Y-86020771D01*
X129150371Y-86735057D01*
X130650371Y-87949342D02*
X129864657Y-87949342D01*
X129721800Y-87877914D01*
X129650371Y-87735057D01*
X129650371Y-87449342D01*
X129721800Y-87306485D01*
X130578942Y-87949342D02*
X130650371Y-87806485D01*
X130650371Y-87449342D01*
X130578942Y-87306485D01*
X130436085Y-87235057D01*
X130293228Y-87235057D01*
X130150371Y-87306485D01*
X130078942Y-87449342D01*
X130078942Y-87806485D01*
X130007514Y-87949342D01*
X130578942Y-89306485D02*
X130650371Y-89163628D01*
X130650371Y-88877914D01*
X130578942Y-88735057D01*
X130507514Y-88663628D01*
X130364657Y-88592200D01*
X129936085Y-88592200D01*
X129793228Y-88663628D01*
X129721800Y-88735057D01*
X129650371Y-88877914D01*
X129650371Y-89163628D01*
X129721800Y-89306485D01*
X130578942Y-90520771D02*
X130650371Y-90377914D01*
X130650371Y-90092200D01*
X130578942Y-89949342D01*
X130436085Y-89877914D01*
X129864657Y-89877914D01*
X129721800Y-89949342D01*
X129650371Y-90092200D01*
X129650371Y-90377914D01*
X129721800Y-90520771D01*
X129864657Y-90592200D01*
X130007514Y-90592200D01*
X130150371Y-89877914D01*
X130650371Y-91449342D02*
X130578942Y-91306485D01*
X130436085Y-91235057D01*
X129150371Y-91235057D01*
X130578942Y-92592200D02*
X130650371Y-92449342D01*
X130650371Y-92163628D01*
X130578942Y-92020771D01*
X130436085Y-91949342D01*
X129864657Y-91949342D01*
X129721800Y-92020771D01*
X129650371Y-92163628D01*
X129650371Y-92449342D01*
X129721800Y-92592200D01*
X129864657Y-92663628D01*
X130007514Y-92663628D01*
X130150371Y-91949342D01*
X130578942Y-93235057D02*
X130650371Y-93377914D01*
X130650371Y-93663628D01*
X130578942Y-93806485D01*
X130436085Y-93877914D01*
X130364657Y-93877914D01*
X130221800Y-93806485D01*
X130150371Y-93663628D01*
X130150371Y-93449342D01*
X130078942Y-93306485D01*
X129936085Y-93235057D01*
X129864657Y-93235057D01*
X129721800Y-93306485D01*
X129650371Y-93449342D01*
X129650371Y-93663628D01*
X129721800Y-93806485D01*
X130578942Y-94449342D02*
X130650371Y-94592200D01*
X130650371Y-94877914D01*
X130578942Y-95020771D01*
X130436085Y-95092200D01*
X130364657Y-95092200D01*
X130221800Y-95020771D01*
X130150371Y-94877914D01*
X130150371Y-94663628D01*
X130078942Y-94520771D01*
X129936085Y-94449342D01*
X129864657Y-94449342D01*
X129721800Y-94520771D01*
X129650371Y-94663628D01*
X129650371Y-94877914D01*
X129721800Y-95020771D01*
X129650371Y-95520771D02*
X129650371Y-96092200D01*
X129150371Y-95735057D02*
X130436085Y-95735057D01*
X130578942Y-95806485D01*
X130650371Y-95949342D01*
X130650371Y-96092200D01*
X130578942Y-97163628D02*
X130650371Y-97020771D01*
X130650371Y-96735057D01*
X130578942Y-96592200D01*
X130436085Y-96520771D01*
X129864657Y-96520771D01*
X129721800Y-96592200D01*
X129650371Y-96735057D01*
X129650371Y-97020771D01*
X129721800Y-97163628D01*
X129864657Y-97235057D01*
X130007514Y-97235057D01*
X130150371Y-96520771D01*
X130578942Y-98520771D02*
X130650371Y-98377914D01*
X130650371Y-98092200D01*
X130578942Y-97949342D01*
X130507514Y-97877914D01*
X130364657Y-97806485D01*
X129936085Y-97806485D01*
X129793228Y-97877914D01*
X129721800Y-97949342D01*
X129650371Y-98092200D01*
X129650371Y-98377914D01*
X129721800Y-98520771D01*
X130650371Y-99163628D02*
X129150371Y-99163628D01*
X130650371Y-99806485D02*
X129864657Y-99806485D01*
X129721800Y-99735057D01*
X129650371Y-99592200D01*
X129650371Y-99377914D01*
X129721800Y-99235057D01*
X129793228Y-99163628D01*
X129293228Y-101592200D02*
X129221800Y-101663628D01*
X129150371Y-101806485D01*
X129150371Y-102163628D01*
X129221800Y-102306485D01*
X129293228Y-102377914D01*
X129436085Y-102449342D01*
X129578942Y-102449342D01*
X129793228Y-102377914D01*
X130650371Y-101520771D01*
X130650371Y-102449342D01*
X129150371Y-103377914D02*
X129150371Y-103520771D01*
X129221800Y-103663628D01*
X129293228Y-103735057D01*
X129436085Y-103806485D01*
X129721800Y-103877914D01*
X130078942Y-103877914D01*
X130364657Y-103806485D01*
X130507514Y-103735057D01*
X130578942Y-103663628D01*
X130650371Y-103520771D01*
X130650371Y-103377914D01*
X130578942Y-103235057D01*
X130507514Y-103163628D01*
X130364657Y-103092200D01*
X130078942Y-103020771D01*
X129721800Y-103020771D01*
X129436085Y-103092200D01*
X129293228Y-103163628D01*
X129221800Y-103235057D01*
X129150371Y-103377914D01*
X129293228Y-104449342D02*
X129221800Y-104520771D01*
X129150371Y-104663628D01*
X129150371Y-105020771D01*
X129221800Y-105163628D01*
X129293228Y-105235057D01*
X129436085Y-105306485D01*
X129578942Y-105306485D01*
X129793228Y-105235057D01*
X130650371Y-104377914D01*
X130650371Y-105306485D01*
X130650371Y-106735057D02*
X130650371Y-105877914D01*
X130650371Y-106306485D02*
X129150371Y-106306485D01*
X129364657Y-106163628D01*
X129507514Y-106020771D01*
X129578942Y-105877914D01*
D11*
X166734809Y-83920080D02*
X166544333Y-83920080D01*
X166449095Y-83967700D01*
X166353857Y-84062938D01*
X166306238Y-84253414D01*
X166306238Y-84586747D01*
X166353857Y-84777223D01*
X166449095Y-84872461D01*
X166544333Y-84920080D01*
X166734809Y-84920080D01*
X166830047Y-84872461D01*
X166925285Y-84777223D01*
X166972904Y-84586747D01*
X166972904Y-84253414D01*
X166925285Y-84062938D01*
X166830047Y-83967700D01*
X166734809Y-83920080D01*
X165877666Y-84920080D02*
X165877666Y-83920080D01*
X165306238Y-84920080D01*
X165306238Y-83920080D01*
X164115761Y-83872461D02*
X164972904Y-85158176D01*
X163591952Y-83920080D02*
X163401476Y-83920080D01*
X163306238Y-83967700D01*
X163211000Y-84062938D01*
X163163380Y-84253414D01*
X163163380Y-84586747D01*
X163211000Y-84777223D01*
X163306238Y-84872461D01*
X163401476Y-84920080D01*
X163591952Y-84920080D01*
X163687190Y-84872461D01*
X163782428Y-84777223D01*
X163830047Y-84586747D01*
X163830047Y-84253414D01*
X163782428Y-84062938D01*
X163687190Y-83967700D01*
X163591952Y-83920080D01*
X162401476Y-84396271D02*
X162734809Y-84396271D01*
X162734809Y-84920080D02*
X162734809Y-83920080D01*
X162258619Y-83920080D01*
X161544333Y-84396271D02*
X161877666Y-84396271D01*
X161877666Y-84920080D02*
X161877666Y-83920080D01*
X161401476Y-83920080D01*
D12*
%TO.C,BT1*%
X134914400Y-104955600D02*
X134914400Y-105585600D01*
X134914400Y-96495600D02*
X134914400Y-98955600D01*
X156474400Y-104955600D02*
X156474400Y-105585600D01*
X156474400Y-96495600D02*
X156474400Y-98955600D01*
X134914400Y-105585600D02*
X136354400Y-109535600D01*
X136994400Y-94415600D02*
X134914400Y-96495600D01*
X136994400Y-94415600D02*
X154394400Y-94415600D01*
X154394400Y-94415600D02*
X156474400Y-96495600D01*
X156474400Y-105585600D02*
X155034400Y-109535600D01*
X151699001Y-110509136D02*
G75*
G03*
X139694400Y-110505600I-6004601J-7806464D01*
G01*
X151697754Y-110522130D02*
G75*
G03*
X155034400Y-109535600I1306646J1716530D01*
G01*
X136369156Y-109543769D02*
G75*
G03*
X139694400Y-110505600I2015244J738169D01*
G01*
D13*
%TO.C,U1*%
X148636500Y-91157100D02*
X146986500Y-91157100D01*
X148636500Y-80877100D02*
X148636500Y-91157100D01*
X143336500Y-80877100D02*
X148636500Y-80877100D01*
X143336500Y-91157100D02*
X143336500Y-80877100D01*
X144986500Y-91157100D02*
X143336500Y-91157100D01*
X146986500Y-91157100D02*
G75*
G03*
X144986500Y-91157100I-1000000J0D01*
G01*
%TO.C,R1*%
X168905100Y-91833700D02*
G75*
G03*
X168905100Y-91833700I-2370000J0D01*
G01*
X166535100Y-94203700D02*
X166535100Y-97953700D01*
%TO.C,R2*%
X124498100Y-95877200D02*
X124498100Y-92127200D01*
X126868100Y-98247200D02*
G75*
G03*
X126868100Y-98247200I-2370000J0D01*
G01*
D11*
%TO.C,SW2*%
X133286500Y-78701900D02*
X133286500Y-79717900D01*
X135318500Y-78701900D02*
X133286500Y-78701900D01*
X135318500Y-79717900D02*
X135318500Y-78701900D01*
X133286500Y-79717900D02*
X135318500Y-79717900D01*
X131254500Y-77685900D02*
X131254500Y-80733900D01*
X137350500Y-77685900D02*
X131254500Y-77685900D01*
X137350500Y-80733900D02*
X137350500Y-77685900D01*
X131254500Y-80733900D02*
X137350500Y-80733900D01*
%TO.C,SW1*%
X161891980Y-79034640D02*
X161891980Y-82646520D01*
X161891980Y-82646520D02*
X161891980Y-82636360D01*
X152890220Y-79024480D02*
X152890220Y-82636360D01*
X152890220Y-82636360D02*
X161897060Y-82636360D01*
X152890220Y-79024480D02*
X161897060Y-79024480D01*
X159387540Y-79034640D02*
X159392620Y-76032360D01*
X155394660Y-79014320D02*
X155399740Y-76012040D01*
X155399740Y-76017120D02*
X159387540Y-76017120D01*
X157386020Y-79019400D02*
X157391100Y-76017120D01*
%TO.C,BT1*%
X146480114Y-90384171D02*
X146337257Y-90431790D01*
X146289638Y-90479409D01*
X146242019Y-90574647D01*
X146242019Y-90717504D01*
X146289638Y-90812742D01*
X146337257Y-90860361D01*
X146432495Y-90907980D01*
X146813447Y-90907980D01*
X146813447Y-89907980D01*
X146480114Y-89907980D01*
X146384876Y-89955600D01*
X146337257Y-90003219D01*
X146289638Y-90098457D01*
X146289638Y-90193695D01*
X146337257Y-90288933D01*
X146384876Y-90336552D01*
X146480114Y-90384171D01*
X146813447Y-90384171D01*
X145956304Y-89907980D02*
X145384876Y-89907980D01*
X145670590Y-90907980D02*
X145670590Y-89907980D01*
X144527733Y-90907980D02*
X145099161Y-90907980D01*
X144813447Y-90907980D02*
X144813447Y-89907980D01*
X144908685Y-90050838D01*
X145003923Y-90146076D01*
X145099161Y-90193695D01*
%TO.C,U1*%
X146748404Y-91609480D02*
X146748404Y-92419004D01*
X146700785Y-92514242D01*
X146653166Y-92561861D01*
X146557928Y-92609480D01*
X146367452Y-92609480D01*
X146272214Y-92561861D01*
X146224595Y-92514242D01*
X146176976Y-92419004D01*
X146176976Y-91609480D01*
X145176976Y-92609480D02*
X145748404Y-92609480D01*
X145462690Y-92609480D02*
X145462690Y-91609480D01*
X145557928Y-91752338D01*
X145653166Y-91847576D01*
X145748404Y-91895195D01*
%TO.C,R1*%
X163617480Y-95477033D02*
X163141290Y-95143700D01*
X163617480Y-94905604D02*
X162617480Y-94905604D01*
X162617480Y-95286557D01*
X162665100Y-95381795D01*
X162712719Y-95429414D01*
X162807957Y-95477033D01*
X162950814Y-95477033D01*
X163046052Y-95429414D01*
X163093671Y-95381795D01*
X163141290Y-95286557D01*
X163141290Y-94905604D01*
X163617480Y-96429414D02*
X163617480Y-95857985D01*
X163617480Y-96143700D02*
X162617480Y-96143700D01*
X162760338Y-96048461D01*
X162855576Y-95953223D01*
X162903195Y-95857985D01*
%TO.C,R2*%
X128320480Y-94270533D02*
X127844290Y-93937200D01*
X128320480Y-93699104D02*
X127320480Y-93699104D01*
X127320480Y-94080057D01*
X127368100Y-94175295D01*
X127415719Y-94222914D01*
X127510957Y-94270533D01*
X127653814Y-94270533D01*
X127749052Y-94222914D01*
X127796671Y-94175295D01*
X127844290Y-94080057D01*
X127844290Y-93699104D01*
X127415719Y-94651485D02*
X127368100Y-94699104D01*
X127320480Y-94794342D01*
X127320480Y-95032438D01*
X127368100Y-95127676D01*
X127415719Y-95175295D01*
X127510957Y-95222914D01*
X127606195Y-95222914D01*
X127749052Y-95175295D01*
X128320480Y-94603866D01*
X128320480Y-95222914D01*
%TO.C,SW2*%
X135635833Y-76820661D02*
X135492976Y-76868280D01*
X135254880Y-76868280D01*
X135159642Y-76820661D01*
X135112023Y-76773042D01*
X135064404Y-76677804D01*
X135064404Y-76582566D01*
X135112023Y-76487328D01*
X135159642Y-76439709D01*
X135254880Y-76392090D01*
X135445357Y-76344471D01*
X135540595Y-76296852D01*
X135588214Y-76249233D01*
X135635833Y-76153995D01*
X135635833Y-76058757D01*
X135588214Y-75963519D01*
X135540595Y-75915900D01*
X135445357Y-75868280D01*
X135207261Y-75868280D01*
X135064404Y-75915900D01*
X134731071Y-75868280D02*
X134492976Y-76868280D01*
X134302500Y-76153995D01*
X134112023Y-76868280D01*
X133873928Y-75868280D01*
X133540595Y-75963519D02*
X133492976Y-75915900D01*
X133397738Y-75868280D01*
X133159642Y-75868280D01*
X133064404Y-75915900D01*
X133016785Y-75963519D01*
X132969166Y-76058757D01*
X132969166Y-76153995D01*
X133016785Y-76296852D01*
X133588214Y-76868280D01*
X132969166Y-76868280D01*
%TO.C,SW1*%
X157784633Y-101354521D02*
X157641776Y-101402140D01*
X157403680Y-101402140D01*
X157308442Y-101354521D01*
X157260823Y-101306902D01*
X157213204Y-101211664D01*
X157213204Y-101116426D01*
X157260823Y-101021188D01*
X157308442Y-100973569D01*
X157403680Y-100925950D01*
X157594157Y-100878331D01*
X157689395Y-100830712D01*
X157737014Y-100783093D01*
X157784633Y-100687855D01*
X157784633Y-100592617D01*
X157737014Y-100497379D01*
X157689395Y-100449760D01*
X157594157Y-100402140D01*
X157356061Y-100402140D01*
X157213204Y-100449760D01*
X156879871Y-100402140D02*
X156641776Y-101402140D01*
X156451300Y-100687855D01*
X156260823Y-101402140D01*
X156022728Y-100402140D01*
X155117966Y-101402140D02*
X155689395Y-101402140D01*
X155403680Y-101402140D02*
X155403680Y-100402140D01*
X155498919Y-100544998D01*
X155594157Y-100640236D01*
X155689395Y-100687855D01*
%TD*%
M02*
