%TF.GenerationSoftware,KiCad,Pcbnew,5.1.9+dfsg1-1*%
%TF.CreationDate,2021-10-11T10:55:51+01:00*%
%TF.ProjectId,pumpkin_jasmine,70756d70-6b69-46e5-9f6a-61736d696e65,rev?*%
%TF.SameCoordinates,Original*%
%TF.FileFunction,Legend,Top*%
%TF.FilePolarity,Positive*%
%FSLAX46Y46*%
G04 Gerber Fmt 4.6, Leading zero omitted, Abs format (unit mm)*
G04 Created by KiCad (PCBNEW 5.1.9+dfsg1-1) date 2021-10-11 10:55:51*
%MOMM*%
%LPD*%
G01*
G04 APERTURE LIST*
%ADD10C,0.010000*%
%ADD11C,0.120000*%
G04 APERTURE END LIST*
D10*
%TO.C,Ref\u002A\u002A*%
G36*
X143032739Y-67661385D02*
G01*
X143157912Y-67681101D01*
X143348831Y-67716411D01*
X143446500Y-67734879D01*
X143533644Y-67744314D01*
X143696931Y-67754961D01*
X143927850Y-67766556D01*
X144217888Y-67778835D01*
X144558535Y-67791534D01*
X144941279Y-67804389D01*
X145357609Y-67817136D01*
X145799014Y-67829511D01*
X146256983Y-67841250D01*
X146723003Y-67852089D01*
X147188565Y-67861764D01*
X147645156Y-67870011D01*
X147959264Y-67874856D01*
X148270329Y-67881240D01*
X148505992Y-67891696D01*
X148675493Y-67908175D01*
X148788071Y-67932629D01*
X148852964Y-67967009D01*
X148879411Y-68013267D01*
X148877565Y-68068851D01*
X148838559Y-68123119D01*
X148747440Y-68206226D01*
X148623189Y-68301028D01*
X148611166Y-68309453D01*
X148348415Y-68536606D01*
X148113657Y-68825760D01*
X147922519Y-69155156D01*
X147817558Y-69414412D01*
X147713601Y-69799274D01*
X147629962Y-70262678D01*
X147566577Y-70805357D01*
X147523379Y-71428046D01*
X147500302Y-72131478D01*
X147497282Y-72916389D01*
X147497943Y-72986336D01*
X147501937Y-73338409D01*
X147506178Y-73614995D01*
X147511322Y-73825270D01*
X147518030Y-73978415D01*
X147526958Y-74083605D01*
X147538766Y-74150019D01*
X147554111Y-74186836D01*
X147573653Y-74203233D01*
X147585476Y-74206696D01*
X147653254Y-74195563D01*
X147777598Y-74154158D01*
X147939075Y-74089521D01*
X148072310Y-74030290D01*
X148578155Y-73820768D01*
X149144196Y-73633921D01*
X149777856Y-73467583D01*
X150486562Y-73319593D01*
X150554728Y-73307018D01*
X150903505Y-73246253D01*
X151218631Y-73198824D01*
X151517615Y-73163555D01*
X151817967Y-73139274D01*
X152137195Y-73124806D01*
X152492808Y-73118978D01*
X152902316Y-73120614D01*
X153254174Y-73126012D01*
X153668762Y-73135131D01*
X154016661Y-73146775D01*
X154315846Y-73162820D01*
X154584293Y-73185141D01*
X154839976Y-73215613D01*
X155100872Y-73256111D01*
X155384954Y-73308511D01*
X155710199Y-73374688D01*
X155781366Y-73389656D01*
X156836904Y-73655520D01*
X157875662Y-74002938D01*
X158894729Y-74429941D01*
X159891195Y-74934561D01*
X160862150Y-75514829D01*
X161804682Y-76168777D01*
X162715883Y-76894435D01*
X163592840Y-77689835D01*
X164432644Y-78553009D01*
X165232385Y-79481987D01*
X165727278Y-80117404D01*
X166516895Y-81242532D01*
X167236484Y-82414854D01*
X167885719Y-83633502D01*
X168464273Y-84897608D01*
X168971823Y-86206304D01*
X169408041Y-87558723D01*
X169772603Y-88953997D01*
X170065183Y-90391259D01*
X170285456Y-91869640D01*
X170349863Y-92439415D01*
X170374962Y-92698091D01*
X170394987Y-92945679D01*
X170410456Y-93196432D01*
X170421888Y-93464604D01*
X170429803Y-93764450D01*
X170434719Y-94110224D01*
X170437154Y-94516181D01*
X170437662Y-94852067D01*
X170434911Y-95466531D01*
X170425511Y-96013480D01*
X170408110Y-96509899D01*
X170381359Y-96972771D01*
X170343907Y-97419082D01*
X170294404Y-97865817D01*
X170231500Y-98329960D01*
X170153844Y-98828497D01*
X170092714Y-99191233D01*
X169827750Y-100507526D01*
X169494189Y-101787288D01*
X169093588Y-103027368D01*
X168627507Y-104224614D01*
X168097507Y-105375875D01*
X167505146Y-106477999D01*
X166851984Y-107527834D01*
X166139581Y-108522230D01*
X165369496Y-109458035D01*
X164614540Y-110261400D01*
X164201006Y-110667359D01*
X163834133Y-111011689D01*
X163507421Y-111298653D01*
X163214367Y-111532516D01*
X162948470Y-111717542D01*
X162703228Y-111857995D01*
X162472138Y-111958140D01*
X162248700Y-112022242D01*
X162026411Y-112054564D01*
X161871388Y-112060567D01*
X161615028Y-112060567D01*
X160976264Y-112687175D01*
X160535318Y-113107277D01*
X160124994Y-113470117D01*
X159728565Y-113788626D01*
X159329307Y-114075733D01*
X158910493Y-114344367D01*
X158588569Y-114532970D01*
X158198756Y-114738580D01*
X157841469Y-114891308D01*
X157490828Y-114999567D01*
X157120951Y-115071769D01*
X156823833Y-115106549D01*
X156442833Y-115141298D01*
X155903387Y-115672212D01*
X155515053Y-116040150D01*
X155158682Y-116346190D01*
X154821306Y-116600197D01*
X154489959Y-116812036D01*
X154200576Y-116967696D01*
X153552469Y-117244111D01*
X152884621Y-117441123D01*
X152195691Y-117558725D01*
X151484335Y-117596907D01*
X150749209Y-117555664D01*
X149988971Y-117434985D01*
X149202278Y-117234864D01*
X148387788Y-116955292D01*
X148329689Y-116932743D01*
X147852074Y-116728430D01*
X147321425Y-116468044D01*
X146735459Y-116150396D01*
X146091890Y-115774302D01*
X146050000Y-115749008D01*
X145791492Y-115593320D01*
X145595512Y-115477628D01*
X145452570Y-115397410D01*
X145353173Y-115348146D01*
X145287829Y-115325317D01*
X145247049Y-115324401D01*
X145221339Y-115340878D01*
X145213606Y-115350675D01*
X145013081Y-115626367D01*
X144839573Y-115844694D01*
X144678819Y-116022216D01*
X144516557Y-116175490D01*
X144465652Y-116219052D01*
X144199688Y-116411856D01*
X143863502Y-116607517D01*
X143471140Y-116800656D01*
X143036646Y-116985897D01*
X142574064Y-117157861D01*
X142097439Y-117311170D01*
X141620815Y-117440446D01*
X141158237Y-117540310D01*
X140906486Y-117581975D01*
X140630958Y-117614278D01*
X140308750Y-117639835D01*
X139963033Y-117657892D01*
X139616979Y-117667690D01*
X139293760Y-117668474D01*
X139016549Y-117659487D01*
X138874500Y-117648314D01*
X138184393Y-117535860D01*
X137488454Y-117347109D01*
X136802046Y-117087735D01*
X136140534Y-116763412D01*
X135614833Y-116444598D01*
X135274908Y-116206057D01*
X134950265Y-115951264D01*
X134625398Y-115666634D01*
X134284799Y-115338579D01*
X133913081Y-114953643D01*
X133396663Y-114403731D01*
X133043609Y-114316573D01*
X132647000Y-114199178D01*
X132207662Y-114034838D01*
X131746416Y-113832553D01*
X131284086Y-113601323D01*
X130929882Y-113402991D01*
X130397887Y-113057260D01*
X129852994Y-112642892D01*
X129307846Y-112171972D01*
X128775090Y-111656585D01*
X128267369Y-111108815D01*
X127797329Y-110540747D01*
X127465501Y-110092067D01*
X127318086Y-109883728D01*
X127202979Y-109730226D01*
X127104986Y-109616313D01*
X127008910Y-109526741D01*
X126899553Y-109446264D01*
X126761720Y-109359635D01*
X126696787Y-109320783D01*
X126329866Y-109070497D01*
X125942666Y-108746765D01*
X125540614Y-108356811D01*
X125129137Y-107907861D01*
X124713661Y-107407138D01*
X124299615Y-106861866D01*
X123892423Y-106279270D01*
X123497513Y-105666574D01*
X123120313Y-105031002D01*
X122766248Y-104379780D01*
X122440745Y-103720130D01*
X122363023Y-103551567D01*
X121850783Y-102322450D01*
X121416111Y-101062916D01*
X121059185Y-99776892D01*
X120780185Y-98468304D01*
X120579290Y-97141081D01*
X120456679Y-95799148D01*
X120412532Y-94446434D01*
X120414764Y-94358452D01*
X120585159Y-94358452D01*
X120585729Y-94811326D01*
X120590377Y-95246354D01*
X120599174Y-95649024D01*
X120612190Y-96004822D01*
X120629498Y-96299234D01*
X120641887Y-96439567D01*
X120822224Y-97820117D01*
X121069122Y-99149128D01*
X121383177Y-100428130D01*
X121764983Y-101658656D01*
X122215133Y-102842237D01*
X122734223Y-103980405D01*
X123322845Y-105074692D01*
X123981593Y-106126630D01*
X124711063Y-107137750D01*
X124869610Y-107340400D01*
X125056920Y-107566978D01*
X125272594Y-107811923D01*
X125505977Y-108064569D01*
X125746416Y-108314250D01*
X125983257Y-108550298D01*
X126205843Y-108762047D01*
X126403522Y-108938831D01*
X126565639Y-109069983D01*
X126661333Y-109134185D01*
X126783693Y-109202382D01*
X126872506Y-109250083D01*
X126906489Y-109266169D01*
X126892483Y-109231942D01*
X126845002Y-109139022D01*
X126771973Y-109002571D01*
X126701991Y-108874983D01*
X126160679Y-107815805D01*
X125682322Y-106706694D01*
X125266395Y-105545912D01*
X124912371Y-104331721D01*
X124619724Y-103062382D01*
X124387928Y-101736156D01*
X124269578Y-100842233D01*
X124230361Y-100440770D01*
X124197382Y-99971656D01*
X124171082Y-99451707D01*
X124151898Y-98897739D01*
X124141872Y-98405258D01*
X124260850Y-98405258D01*
X124265577Y-98670668D01*
X124276558Y-99139051D01*
X124289002Y-99539687D01*
X124304167Y-99889495D01*
X124323316Y-100205395D01*
X124347706Y-100504306D01*
X124378598Y-100803147D01*
X124417253Y-101118838D01*
X124464930Y-101468297D01*
X124483713Y-101599854D01*
X124692102Y-102832645D01*
X124954952Y-104019570D01*
X125270898Y-105157955D01*
X125638574Y-106245129D01*
X126056614Y-107278418D01*
X126523654Y-108255152D01*
X127038326Y-109172657D01*
X127599265Y-110028261D01*
X128205107Y-110819293D01*
X128854484Y-111543080D01*
X129546032Y-112196949D01*
X130147222Y-112681777D01*
X130533011Y-112952463D01*
X130953950Y-113216511D01*
X131394583Y-113466177D01*
X131839456Y-113693716D01*
X132273112Y-113891381D01*
X132680096Y-114051430D01*
X133044953Y-114166115D01*
X133169341Y-114196192D01*
X133306182Y-114225968D01*
X132901093Y-113577184D01*
X132633521Y-113128933D01*
X132365502Y-112643560D01*
X132109780Y-112145999D01*
X131879099Y-111661184D01*
X131686203Y-111214049D01*
X131660774Y-111150400D01*
X131283889Y-110096083D01*
X130960137Y-108978482D01*
X130690205Y-107800783D01*
X130474782Y-106566169D01*
X130314559Y-105277826D01*
X130260010Y-104673400D01*
X130247295Y-104460077D01*
X130236829Y-104175170D01*
X130228612Y-103831731D01*
X130222642Y-103442812D01*
X130218920Y-103021465D01*
X130217445Y-102580744D01*
X130218217Y-102133699D01*
X130221234Y-101693384D01*
X130226496Y-101272850D01*
X130234002Y-100885151D01*
X130243752Y-100543338D01*
X130255745Y-100260464D01*
X130260223Y-100181808D01*
X130318377Y-99427246D01*
X130401725Y-98618292D01*
X130506793Y-97780220D01*
X130630105Y-96938300D01*
X130768185Y-96117807D01*
X130917557Y-95344013D01*
X130940821Y-95233067D01*
X130990681Y-94997891D01*
X131038521Y-94772132D01*
X131079498Y-94578657D01*
X131108767Y-94440330D01*
X131112979Y-94420399D01*
X131141523Y-94250797D01*
X131133025Y-94145823D01*
X131077537Y-94089895D01*
X130965109Y-94067426D01*
X130885411Y-94063891D01*
X130764776Y-94059501D01*
X130721492Y-94051694D01*
X130748244Y-94037643D01*
X130788833Y-94026567D01*
X130849351Y-94021541D01*
X130985533Y-94016845D01*
X131190488Y-94012489D01*
X131457321Y-94008479D01*
X131779139Y-94004826D01*
X132149050Y-94001538D01*
X132560159Y-93998623D01*
X133005574Y-93996091D01*
X133478401Y-93993950D01*
X133971747Y-93992208D01*
X134478719Y-93990875D01*
X134992424Y-93989958D01*
X135505968Y-93989468D01*
X136012459Y-93989412D01*
X136505002Y-93989799D01*
X136976705Y-93990638D01*
X137420674Y-93991938D01*
X137830017Y-93993707D01*
X138197840Y-93995954D01*
X138517249Y-93998687D01*
X138781352Y-94001916D01*
X138983256Y-94005649D01*
X139116066Y-94009895D01*
X139172890Y-94014662D01*
X139174373Y-94015983D01*
X139128344Y-94020812D01*
X139003602Y-94025867D01*
X138806102Y-94031067D01*
X138541794Y-94036334D01*
X138216635Y-94041587D01*
X137836575Y-94046747D01*
X137407570Y-94051734D01*
X136935571Y-94056468D01*
X136426533Y-94060870D01*
X135886409Y-94064859D01*
X135321152Y-94068357D01*
X135222445Y-94068900D01*
X131302256Y-94090067D01*
X131226770Y-94428733D01*
X130990877Y-95549642D01*
X130792096Y-96635291D01*
X130625802Y-97715558D01*
X130487371Y-98820320D01*
X130378245Y-99910900D01*
X130359711Y-100179299D01*
X130344865Y-100517917D01*
X130333650Y-100913435D01*
X130326009Y-101352534D01*
X130321883Y-101821897D01*
X130321217Y-102308204D01*
X130323953Y-102798137D01*
X130330034Y-103278377D01*
X130339402Y-103735607D01*
X130352002Y-104156508D01*
X130367774Y-104527761D01*
X130386664Y-104836048D01*
X130400033Y-104990900D01*
X130557329Y-106290588D01*
X130760915Y-107520006D01*
X131011107Y-108679985D01*
X131308226Y-109771354D01*
X131652589Y-110794943D01*
X132044514Y-111751582D01*
X132484320Y-112642101D01*
X132972325Y-113467329D01*
X133508847Y-114228097D01*
X134094205Y-114925235D01*
X134290392Y-115133473D01*
X134874576Y-115691898D01*
X135470137Y-116169880D01*
X136085424Y-116571592D01*
X136728785Y-116901205D01*
X137408568Y-117162890D01*
X138133121Y-117360817D01*
X138910792Y-117499157D01*
X139065000Y-117519020D01*
X139371128Y-117539721D01*
X139743487Y-117537076D01*
X140167091Y-117511669D01*
X140626956Y-117464083D01*
X140694833Y-117455497D01*
X141191534Y-117374338D01*
X141699636Y-117260021D01*
X142206972Y-117117305D01*
X142701375Y-116950951D01*
X143170677Y-116765719D01*
X143602714Y-116566368D01*
X143985316Y-116357659D01*
X144306319Y-116144352D01*
X144529595Y-115955233D01*
X144689607Y-115783471D01*
X144835653Y-115599949D01*
X144956281Y-115421762D01*
X145040040Y-115266008D01*
X145075476Y-115149781D01*
X145075936Y-115139639D01*
X145060592Y-115075256D01*
X145018138Y-114948926D01*
X144954386Y-114776708D01*
X144875148Y-114574658D01*
X144840724Y-114489826D01*
X144672272Y-114057483D01*
X144491777Y-113555408D01*
X144303442Y-112996958D01*
X144111471Y-112395494D01*
X143920067Y-111764375D01*
X143733435Y-111116961D01*
X143555777Y-110466612D01*
X143463600Y-110113233D01*
X143402699Y-109880631D01*
X143346763Y-109676365D01*
X143299906Y-109514739D01*
X143266242Y-109410061D01*
X143251984Y-109377361D01*
X143202253Y-109356457D01*
X143083292Y-109320567D01*
X142908471Y-109273299D01*
X142691160Y-109218261D01*
X142444728Y-109159061D01*
X142431696Y-109156013D01*
X141994097Y-109049930D01*
X141617320Y-108949000D01*
X141278443Y-108845902D01*
X140954547Y-108733317D01*
X140622710Y-108603925D01*
X140366570Y-108496490D01*
X140108390Y-108379448D01*
X139931665Y-108284887D01*
X139836246Y-108212722D01*
X139821232Y-108191063D01*
X139810855Y-108161846D01*
X139805331Y-108123423D01*
X139806005Y-108068061D01*
X139814224Y-107988027D01*
X139831335Y-107875586D01*
X139858683Y-107723005D01*
X139897615Y-107522552D01*
X139949477Y-107266493D01*
X140015616Y-106947094D01*
X140097378Y-106556622D01*
X140146204Y-106324400D01*
X140249350Y-105825898D01*
X140332187Y-105406881D01*
X140395135Y-105064743D01*
X140438617Y-104796881D01*
X140463055Y-104600688D01*
X140468869Y-104473561D01*
X140456483Y-104412895D01*
X140455842Y-104412083D01*
X140390955Y-104367495D01*
X140255802Y-104299943D01*
X140060469Y-104213147D01*
X139815041Y-104110826D01*
X139529603Y-103996702D01*
X139214241Y-103874492D01*
X138879042Y-103747919D01*
X138534090Y-103620700D01*
X138189471Y-103496557D01*
X137855270Y-103379209D01*
X137541574Y-103272377D01*
X137258468Y-103179779D01*
X137016038Y-103105137D01*
X136824368Y-103052169D01*
X136694333Y-103024708D01*
X136503833Y-102997637D01*
X136239943Y-103391018D01*
X136006351Y-103767181D01*
X135794140Y-104170246D01*
X135599651Y-104609992D01*
X135419227Y-105096199D01*
X135249209Y-105638646D01*
X135085939Y-106247112D01*
X134940651Y-106864150D01*
X134913582Y-106939686D01*
X134859245Y-106972955D01*
X134749649Y-106980561D01*
X134744408Y-106980567D01*
X134420755Y-106952262D01*
X134072160Y-106873049D01*
X133718607Y-106751484D01*
X133380081Y-106596120D01*
X133076568Y-106415512D01*
X132828053Y-106218213D01*
X132734211Y-106120142D01*
X132539137Y-105836334D01*
X132385884Y-105488462D01*
X132273994Y-105074332D01*
X132203008Y-104591750D01*
X132172468Y-104038523D01*
X132173446Y-103960477D01*
X132268080Y-103960477D01*
X132300400Y-104535648D01*
X132380201Y-105059191D01*
X132417668Y-105220085D01*
X132506039Y-105506643D01*
X132616965Y-105738246D01*
X132767867Y-105944452D01*
X132959541Y-106139516D01*
X133224828Y-106348194D01*
X133535964Y-106532938D01*
X133870526Y-106684205D01*
X134206092Y-106792454D01*
X134520240Y-106848142D01*
X134637493Y-106853567D01*
X134810777Y-106853567D01*
X134968805Y-106229150D01*
X135117486Y-105671987D01*
X135264392Y-105184948D01*
X135414077Y-104753726D01*
X135538363Y-104440567D01*
X135637486Y-104223546D01*
X135760753Y-103981224D01*
X135897588Y-103731856D01*
X136037415Y-103493701D01*
X136169659Y-103285015D01*
X136283743Y-103124056D01*
X136339498Y-103057536D01*
X136429575Y-102978621D01*
X136530757Y-102932403D01*
X136657230Y-102918720D01*
X136823180Y-102937409D01*
X137042792Y-102988306D01*
X137249744Y-103047070D01*
X137470038Y-103116287D01*
X137737326Y-103206379D01*
X138040198Y-103312955D01*
X138367243Y-103431626D01*
X138707050Y-103558000D01*
X139048206Y-103687688D01*
X139379302Y-103816299D01*
X139688925Y-103939443D01*
X139965664Y-104052729D01*
X140198109Y-104151768D01*
X140374847Y-104232168D01*
X140484468Y-104289540D01*
X140492684Y-104294744D01*
X140562468Y-104367648D01*
X140587980Y-104480980D01*
X140589000Y-104522037D01*
X140581031Y-104599376D01*
X140558312Y-104749696D01*
X140522623Y-104962940D01*
X140475741Y-105229050D01*
X140419448Y-105537971D01*
X140355523Y-105879645D01*
X140285745Y-106244015D01*
X140269438Y-106328006D01*
X140199181Y-106693163D01*
X140134905Y-107035383D01*
X140078298Y-107345055D01*
X140031047Y-107612572D01*
X139994842Y-107828325D01*
X139971370Y-107982704D01*
X139962320Y-108066100D01*
X139962522Y-108074836D01*
X139978567Y-108124997D01*
X140022273Y-108173438D01*
X140106434Y-108228583D01*
X140243841Y-108298857D01*
X140440833Y-108389773D01*
X141006412Y-108621718D01*
X141604642Y-108821001D01*
X142245071Y-108989792D01*
X142937246Y-109130262D01*
X143690712Y-109244579D01*
X144515016Y-109334915D01*
X144653000Y-109347192D01*
X144890954Y-109362433D01*
X145197674Y-109373895D01*
X145557339Y-109381564D01*
X145954132Y-109385424D01*
X146372235Y-109385460D01*
X146795827Y-109381657D01*
X147209092Y-109373999D01*
X147596211Y-109362472D01*
X147879932Y-109350280D01*
X148192141Y-109332034D01*
X148477155Y-109308998D01*
X148750020Y-109278672D01*
X149025785Y-109238555D01*
X149319497Y-109186148D01*
X149646201Y-109118949D01*
X150020947Y-109034460D01*
X150458780Y-108930180D01*
X150567633Y-108903707D01*
X150971841Y-108802874D01*
X151337799Y-108706068D01*
X151684702Y-108607382D01*
X152031740Y-108500913D01*
X152398108Y-108380754D01*
X152802998Y-108241000D01*
X153265603Y-108075746D01*
X153305519Y-108061305D01*
X153805986Y-107877826D01*
X154238162Y-107713508D01*
X154614584Y-107562317D01*
X154947792Y-107418217D01*
X155250323Y-107275170D01*
X155534716Y-107127142D01*
X155813509Y-106968096D01*
X156099241Y-106791997D01*
X156404450Y-106592807D01*
X156527500Y-106510241D01*
X156946509Y-106219753D01*
X157293997Y-105962345D01*
X157568808Y-105738959D01*
X157769789Y-105550536D01*
X157895786Y-105398016D01*
X157900637Y-105390499D01*
X158000395Y-105197909D01*
X158097761Y-104947309D01*
X158184334Y-104665144D01*
X158251714Y-104377857D01*
X158283128Y-104186567D01*
X158304759Y-103948566D01*
X158318361Y-103648032D01*
X158324135Y-103306695D01*
X158322282Y-102946289D01*
X158313004Y-102588543D01*
X158296502Y-102255190D01*
X158272979Y-101967962D01*
X158261665Y-101870985D01*
X158144073Y-101134053D01*
X157988832Y-100431920D01*
X157798768Y-99771992D01*
X157576708Y-99161676D01*
X157325479Y-98608379D01*
X157047906Y-98119508D01*
X156746817Y-97702471D01*
X156612173Y-97548523D01*
X156357930Y-97305781D01*
X156118374Y-97141586D01*
X155887391Y-97052413D01*
X155717205Y-97032647D01*
X155654157Y-97033896D01*
X155596629Y-97042064D01*
X155534554Y-97063293D01*
X155457862Y-97103724D01*
X155356487Y-97169498D01*
X155220359Y-97266756D01*
X155039411Y-97401640D01*
X154803575Y-97580292D01*
X154739224Y-97629195D01*
X154276733Y-97955254D01*
X153802658Y-98241625D01*
X153329238Y-98482692D01*
X152868714Y-98672838D01*
X152433324Y-98806446D01*
X152035308Y-98877897D01*
X152013896Y-98879991D01*
X151716001Y-98907677D01*
X151745895Y-99408534D01*
X151749003Y-99529330D01*
X151748417Y-99713078D01*
X151744584Y-99948422D01*
X151737953Y-100224008D01*
X151728971Y-100528479D01*
X151718086Y-100850479D01*
X151705745Y-101178654D01*
X151692398Y-101501648D01*
X151678491Y-101808105D01*
X151664474Y-102086670D01*
X151650792Y-102325986D01*
X151637895Y-102514698D01*
X151626231Y-102641451D01*
X151616271Y-102694854D01*
X151575850Y-102711809D01*
X151468871Y-102751610D01*
X151308780Y-102809386D01*
X151109023Y-102880271D01*
X150954269Y-102934567D01*
X150541008Y-103070694D01*
X150160383Y-103176315D01*
X149791698Y-103254669D01*
X149414259Y-103308998D01*
X149007369Y-103342541D01*
X148550332Y-103358538D01*
X148230166Y-103361067D01*
X147832874Y-103357665D01*
X147507463Y-103346242D01*
X147241377Y-103324967D01*
X147022057Y-103292010D01*
X146836945Y-103245541D01*
X146673483Y-103183731D01*
X146535710Y-103114150D01*
X146367500Y-103019884D01*
X146336758Y-101814642D01*
X146327800Y-101490794D01*
X146317991Y-101183463D01*
X146307860Y-100906087D01*
X146297939Y-100672104D01*
X146288756Y-100494953D01*
X146280841Y-100388071D01*
X146280349Y-100383577D01*
X146254681Y-100157754D01*
X145273924Y-100187213D01*
X144724518Y-100194293D01*
X144178652Y-100181284D01*
X143626354Y-100146776D01*
X143057654Y-100089361D01*
X142462582Y-100007630D01*
X141831168Y-99900173D01*
X141153441Y-99765581D01*
X140419433Y-99602446D01*
X139619171Y-99409358D01*
X139424833Y-99360598D01*
X138813010Y-99203254D01*
X138268435Y-99056392D01*
X137775165Y-98914773D01*
X137317254Y-98773160D01*
X136878757Y-98626312D01*
X136443729Y-98468991D01*
X135996224Y-98295958D01*
X135520298Y-98101973D01*
X135255000Y-97990535D01*
X135015809Y-97898201D01*
X134828573Y-97850786D01*
X134673964Y-97847527D01*
X134532654Y-97887658D01*
X134406038Y-97956920D01*
X134130698Y-98175992D01*
X133858865Y-98478340D01*
X133591547Y-98862614D01*
X133329752Y-99327459D01*
X133221351Y-99547102D01*
X132971288Y-100130868D01*
X132756211Y-100751206D01*
X132577904Y-101395516D01*
X132438153Y-102051198D01*
X132338741Y-102705652D01*
X132281456Y-103346278D01*
X132268080Y-103960477D01*
X132173446Y-103960477D01*
X132179633Y-103466900D01*
X132228229Y-102743682D01*
X132317805Y-102066405D01*
X132453937Y-101404098D01*
X132642203Y-100725792D01*
X132713293Y-100503567D01*
X132921703Y-99928084D01*
X133148948Y-99407535D01*
X133391947Y-98946369D01*
X133647623Y-98549034D01*
X133912897Y-98219976D01*
X134184689Y-97963646D01*
X134459922Y-97784490D01*
X134647551Y-97708994D01*
X134735180Y-97686503D01*
X134811674Y-97682413D01*
X134899638Y-97701253D01*
X135021680Y-97747555D01*
X135175746Y-97814849D01*
X135686367Y-98036703D01*
X136170110Y-98234022D01*
X136646337Y-98413584D01*
X137134411Y-98582167D01*
X137653694Y-98746549D01*
X138223548Y-98913506D01*
X138662833Y-99035520D01*
X139057074Y-99141113D01*
X139457750Y-99244881D01*
X139856193Y-99344869D01*
X140243737Y-99439122D01*
X140611717Y-99525687D01*
X140951465Y-99602608D01*
X141254316Y-99667932D01*
X141511603Y-99719704D01*
X141714661Y-99755970D01*
X141854822Y-99774775D01*
X141923421Y-99774165D01*
X141927573Y-99771771D01*
X141930812Y-99726412D01*
X141931776Y-99604678D01*
X141930591Y-99414824D01*
X141927383Y-99165108D01*
X141922278Y-98863787D01*
X141915401Y-98519116D01*
X141906878Y-98139354D01*
X141896835Y-97732756D01*
X141896020Y-97701248D01*
X141872373Y-96123143D01*
X141875315Y-95736392D01*
X141995288Y-95736392D01*
X141996010Y-96162002D01*
X141998657Y-96600196D01*
X142003058Y-97042229D01*
X142009040Y-97479356D01*
X142016432Y-97902831D01*
X142025061Y-98303912D01*
X142034755Y-98673851D01*
X142045343Y-99003906D01*
X142056652Y-99285330D01*
X142068510Y-99509380D01*
X142080745Y-99667310D01*
X142093185Y-99750376D01*
X142094695Y-99754928D01*
X142158987Y-99811556D01*
X142304597Y-99863672D01*
X142528279Y-99910921D01*
X142826786Y-99952946D01*
X143196872Y-99989391D01*
X143635290Y-100019901D01*
X144138795Y-100044120D01*
X144704139Y-100061692D01*
X144938750Y-100066631D01*
X146388666Y-100093380D01*
X146391277Y-100478390D01*
X146393502Y-100636453D01*
X146398244Y-100860336D01*
X146405024Y-101131246D01*
X146413360Y-101430388D01*
X146422773Y-101738969D01*
X146426167Y-101843720D01*
X146437886Y-102185795D01*
X146450255Y-102453621D01*
X146466893Y-102657561D01*
X146491419Y-102807982D01*
X146527451Y-102915248D01*
X146578608Y-102989724D01*
X146648508Y-103041776D01*
X146740770Y-103081767D01*
X146859013Y-103120064D01*
X146873298Y-103124475D01*
X147290720Y-103220650D01*
X147774664Y-103273005D01*
X148319119Y-103281390D01*
X148918072Y-103245656D01*
X149415500Y-103187580D01*
X149805996Y-103125462D01*
X150160472Y-103050737D01*
X150512826Y-102954957D01*
X150896961Y-102829674D01*
X151006778Y-102791028D01*
X151497390Y-102616253D01*
X151550695Y-101930326D01*
X151566080Y-101697049D01*
X151581498Y-101399325D01*
X151596145Y-101057370D01*
X151609217Y-100691399D01*
X151619909Y-100321628D01*
X151626364Y-100028228D01*
X151648729Y-98812057D01*
X151780948Y-98791840D01*
X151904653Y-98774193D01*
X152061445Y-98753413D01*
X152124833Y-98745415D01*
X152469673Y-98675137D01*
X152857228Y-98547708D01*
X153274454Y-98369691D01*
X153708303Y-98147647D01*
X154145732Y-97888136D01*
X154573694Y-97597722D01*
X154894589Y-97352313D01*
X155107852Y-97182913D01*
X155271157Y-97061735D01*
X155398122Y-96981089D01*
X155502368Y-96933285D01*
X155597514Y-96910631D01*
X155686094Y-96905391D01*
X155964804Y-96946812D01*
X156242625Y-97068975D01*
X156516937Y-97267972D01*
X156785120Y-97539897D01*
X157044553Y-97880841D01*
X157292615Y-98286898D01*
X157526688Y-98754160D01*
X157744150Y-99278721D01*
X157942382Y-99856672D01*
X158118763Y-100484107D01*
X158138192Y-100561955D01*
X158230260Y-100953488D01*
X158301489Y-101303595D01*
X158354246Y-101633410D01*
X158390896Y-101964067D01*
X158413806Y-102316699D01*
X158425343Y-102712440D01*
X158427921Y-103149400D01*
X158420843Y-103661061D01*
X158398962Y-104099048D01*
X158358380Y-104473650D01*
X158295200Y-104795152D01*
X158205524Y-105073843D01*
X158085455Y-105320011D01*
X157931095Y-105543943D01*
X157738547Y-105755926D01*
X157503914Y-105966248D01*
X157299517Y-106127917D01*
X156937308Y-106388832D01*
X156521546Y-106663994D01*
X156077811Y-106937542D01*
X155631684Y-107193615D01*
X155276879Y-107382045D01*
X154802317Y-107607069D01*
X154257312Y-107837205D01*
X153655576Y-108068282D01*
X153010823Y-108296128D01*
X152336765Y-108516573D01*
X151647115Y-108725445D01*
X150955586Y-108918572D01*
X150275891Y-109091782D01*
X149621742Y-109240905D01*
X149006853Y-109361768D01*
X148505333Y-109441967D01*
X148345522Y-109457367D01*
X148113577Y-109470265D01*
X147821991Y-109480650D01*
X147483261Y-109488510D01*
X147109881Y-109493832D01*
X146714347Y-109496604D01*
X146309153Y-109496815D01*
X145906795Y-109494451D01*
X145519767Y-109489502D01*
X145160566Y-109481954D01*
X144841685Y-109471795D01*
X144575620Y-109459015D01*
X144399000Y-109445956D01*
X144172909Y-109425639D01*
X143955999Y-109407611D01*
X143773888Y-109393916D01*
X143658166Y-109386857D01*
X143446500Y-109377258D01*
X143458003Y-109522995D01*
X143477864Y-109656780D01*
X143520282Y-109859790D01*
X143582095Y-110120586D01*
X143660141Y-110427729D01*
X143751257Y-110769779D01*
X143852281Y-111135297D01*
X143960050Y-111512842D01*
X144071401Y-111890976D01*
X144183171Y-112258259D01*
X144292199Y-112603251D01*
X144395322Y-112914512D01*
X144396876Y-112919064D01*
X144519512Y-113269975D01*
X144646956Y-113619833D01*
X144773292Y-113953397D01*
X144892603Y-114255432D01*
X144998974Y-114510699D01*
X145086488Y-114703960D01*
X145102442Y-114736285D01*
X145158740Y-114841061D01*
X145218233Y-114929723D01*
X145293015Y-115013288D01*
X145395182Y-115102778D01*
X145536827Y-115209211D01*
X145730045Y-115343608D01*
X145881503Y-115446120D01*
X146750842Y-115990331D01*
X147621497Y-116453333D01*
X148491659Y-116834347D01*
X149359518Y-117132592D01*
X150223264Y-117347289D01*
X150346833Y-117371209D01*
X150541038Y-117396092D01*
X150798955Y-117412744D01*
X151101241Y-117421456D01*
X151428551Y-117422523D01*
X151761542Y-117416239D01*
X152080872Y-117402895D01*
X152367197Y-117382786D01*
X152601173Y-117356205D01*
X152717500Y-117335264D01*
X153354564Y-117158353D01*
X153942854Y-116922892D01*
X154494239Y-116622391D01*
X155020584Y-116250361D01*
X155533757Y-115800314D01*
X155545840Y-115788664D01*
X155988136Y-115336219D01*
X156370318Y-114887155D01*
X156708394Y-114419366D01*
X157018367Y-113910745D01*
X157310125Y-113351733D01*
X157685038Y-112507764D01*
X158011171Y-111610814D01*
X158289442Y-110657209D01*
X158520769Y-109643276D01*
X158706074Y-108565340D01*
X158846273Y-107419727D01*
X158877566Y-107086400D01*
X158898063Y-106796879D01*
X158915527Y-106437514D01*
X158929799Y-106023077D01*
X158940723Y-105568341D01*
X158948141Y-105088081D01*
X158951894Y-104597068D01*
X158951824Y-104110076D01*
X158947775Y-103641877D01*
X158939587Y-103207246D01*
X158927104Y-102820956D01*
X158923917Y-102747233D01*
X158872760Y-101805687D01*
X158805570Y-100898713D01*
X158720264Y-100010927D01*
X158614761Y-99126944D01*
X158486981Y-98231380D01*
X158334843Y-97308850D01*
X158156264Y-96343970D01*
X157949165Y-95321355D01*
X157867359Y-94936733D01*
X157666992Y-94005400D01*
X155036990Y-93984233D01*
X154572889Y-93980110D01*
X154134120Y-93975461D01*
X153727965Y-93970412D01*
X153361705Y-93965090D01*
X153042621Y-93959621D01*
X152777996Y-93954131D01*
X152575110Y-93948747D01*
X152441245Y-93943596D01*
X152383682Y-93938803D01*
X152382085Y-93938130D01*
X152414276Y-93929170D01*
X152523212Y-93920066D01*
X152700970Y-93910984D01*
X152939630Y-93902090D01*
X153231270Y-93893548D01*
X153567967Y-93885523D01*
X153941801Y-93878182D01*
X154344850Y-93871688D01*
X154769192Y-93866209D01*
X155206905Y-93861908D01*
X155650068Y-93858951D01*
X156090760Y-93857503D01*
X156252333Y-93857383D01*
X156680238Y-93858126D01*
X157121741Y-93860266D01*
X157568970Y-93863658D01*
X158014055Y-93868156D01*
X158449123Y-93873615D01*
X158866302Y-93879890D01*
X159257722Y-93886835D01*
X159615511Y-93894306D01*
X159931797Y-93902157D01*
X160198709Y-93910243D01*
X160408374Y-93918419D01*
X160552923Y-93926539D01*
X160624482Y-93934458D01*
X160630568Y-93938171D01*
X160583759Y-93944776D01*
X160462416Y-93952007D01*
X160276664Y-93959535D01*
X160036630Y-93967029D01*
X159752442Y-93974161D01*
X159434225Y-93980601D01*
X159215653Y-93984233D01*
X158881057Y-93989945D01*
X158574131Y-93996371D01*
X158304967Y-94003206D01*
X158083658Y-94010146D01*
X157920296Y-94016887D01*
X157824973Y-94023125D01*
X157804296Y-94026750D01*
X157803709Y-94074910D01*
X157820814Y-94184314D01*
X157852147Y-94334226D01*
X157864424Y-94386584D01*
X157895466Y-94523252D01*
X157939349Y-94727052D01*
X157992752Y-94982004D01*
X158052351Y-95272130D01*
X158114825Y-95581451D01*
X158159225Y-95804567D01*
X158365316Y-96891144D01*
X158541395Y-97918336D01*
X158689892Y-98904962D01*
X158813238Y-99869840D01*
X158913865Y-100831790D01*
X158994203Y-101809629D01*
X159050284Y-102702535D01*
X159063619Y-103018934D01*
X159072983Y-103394591D01*
X159078525Y-103814906D01*
X159080395Y-104265279D01*
X159078743Y-104731111D01*
X159073718Y-105197801D01*
X159065470Y-105650750D01*
X159054148Y-106075358D01*
X159039902Y-106457026D01*
X159022882Y-106781152D01*
X159006233Y-107001733D01*
X158874560Y-108171220D01*
X158700575Y-109279113D01*
X158484863Y-110323438D01*
X158228008Y-111302223D01*
X157930593Y-112213493D01*
X157593204Y-113055278D01*
X157216423Y-113825602D01*
X156800835Y-114522492D01*
X156764170Y-114577636D01*
X156662390Y-114733013D01*
X156583223Y-114860817D01*
X156535677Y-114946038D01*
X156526545Y-114973556D01*
X156580853Y-114980498D01*
X156699071Y-114971053D01*
X156862736Y-114948418D01*
X157053387Y-114915790D01*
X157252560Y-114876366D01*
X157441796Y-114833342D01*
X157602632Y-114789916D01*
X157622430Y-114783798D01*
X158048190Y-114621301D01*
X158509526Y-114392996D01*
X158996692Y-114104586D01*
X159499941Y-113761775D01*
X159935333Y-113430066D01*
X160133573Y-113262530D01*
X160369867Y-113048436D01*
X160628965Y-112802931D01*
X160895620Y-112541163D01*
X161154583Y-112278277D01*
X161390606Y-112029421D01*
X161588440Y-111809744D01*
X161697537Y-111679567D01*
X162305440Y-110856313D01*
X162867340Y-109964467D01*
X163382069Y-109007259D01*
X163848455Y-107987919D01*
X164265327Y-106909677D01*
X164631516Y-105775765D01*
X164945851Y-104589412D01*
X165207162Y-103353849D01*
X165414277Y-102072307D01*
X165531967Y-101096233D01*
X165548259Y-100884958D01*
X165561728Y-100600639D01*
X165572418Y-100254847D01*
X165580374Y-99859158D01*
X165585641Y-99425142D01*
X165588263Y-98964375D01*
X165588287Y-98488429D01*
X165585755Y-98008877D01*
X165580714Y-97537293D01*
X165573208Y-97085249D01*
X165563281Y-96664320D01*
X165550979Y-96286077D01*
X165536347Y-95962094D01*
X165519429Y-95703946D01*
X165510715Y-95608785D01*
X165309783Y-94022066D01*
X165041032Y-92473067D01*
X164705356Y-90964094D01*
X164303648Y-89497452D01*
X163836802Y-88075447D01*
X163305710Y-86700384D01*
X162711266Y-85374568D01*
X162054363Y-84100306D01*
X161335895Y-82879902D01*
X160556755Y-81715662D01*
X159717836Y-80609891D01*
X159681148Y-80564567D01*
X159456422Y-80300324D01*
X159182337Y-79998315D01*
X158873060Y-79672606D01*
X158542759Y-79337266D01*
X158205598Y-79006361D01*
X157875747Y-78693958D01*
X157567372Y-78414126D01*
X157294640Y-78180932D01*
X157219751Y-78120474D01*
X156452132Y-77547428D01*
X155690568Y-77052586D01*
X154925957Y-76630856D01*
X154149197Y-76277142D01*
X153485936Y-76030625D01*
X153092886Y-75907105D01*
X152710271Y-75805739D01*
X152320197Y-75723354D01*
X151904771Y-75656779D01*
X151446101Y-75602844D01*
X150926292Y-75558377D01*
X150752517Y-75546192D01*
X150353868Y-75519438D01*
X150530679Y-75730619D01*
X150735821Y-76019691D01*
X150868160Y-76318633D01*
X150937472Y-76652205D01*
X150949157Y-76790316D01*
X150960985Y-76963874D01*
X150979343Y-77089526D01*
X151014035Y-77195429D01*
X151074865Y-77309742D01*
X151171638Y-77460621D01*
X151194668Y-77495400D01*
X151372583Y-77776522D01*
X151577074Y-78123579D01*
X151809308Y-78538729D01*
X152070455Y-79024125D01*
X152361684Y-79581924D01*
X152684162Y-80214282D01*
X152881398Y-80606900D01*
X153289664Y-81433497D01*
X153660315Y-82205920D01*
X154001156Y-82941447D01*
X154319993Y-83657356D01*
X154624631Y-84370925D01*
X154922875Y-85099432D01*
X155013692Y-85327067D01*
X155097970Y-85536727D01*
X155173218Y-85718710D01*
X155233178Y-85858275D01*
X155271595Y-85940683D01*
X155280472Y-85955528D01*
X155300788Y-85953235D01*
X155336578Y-85913132D01*
X155390224Y-85830703D01*
X155464105Y-85701431D01*
X155560599Y-85520800D01*
X155682087Y-85284293D01*
X155830948Y-84987392D01*
X156009562Y-84625582D01*
X156220307Y-84194345D01*
X156363484Y-83899747D01*
X156517953Y-83583093D01*
X156661631Y-83291817D01*
X156790205Y-83034410D01*
X156899366Y-82819366D01*
X156984802Y-82655177D01*
X157042203Y-82550334D01*
X157067250Y-82513331D01*
X157087340Y-82521034D01*
X157091888Y-82551357D01*
X157077946Y-82611489D01*
X157042566Y-82708616D01*
X156982801Y-82849926D01*
X156895704Y-83042606D01*
X156778326Y-83293845D01*
X156627722Y-83610830D01*
X156553846Y-83765306D01*
X156449901Y-83982433D01*
X156313402Y-84267659D01*
X156148314Y-84612696D01*
X155958600Y-85009255D01*
X155748224Y-85449050D01*
X155521152Y-85923791D01*
X155281347Y-86425192D01*
X155032774Y-86944965D01*
X154779396Y-87474821D01*
X154525178Y-88006473D01*
X154419783Y-88226900D01*
X154069940Y-88958488D01*
X153754744Y-89617364D01*
X153472391Y-90207236D01*
X153221076Y-90731809D01*
X152998993Y-91194790D01*
X152804338Y-91599886D01*
X152635307Y-91950802D01*
X152490094Y-92251247D01*
X152366894Y-92504925D01*
X152263903Y-92715543D01*
X152179316Y-92886808D01*
X152111327Y-93022427D01*
X152058133Y-93126105D01*
X152017928Y-93201550D01*
X151988906Y-93252467D01*
X151969265Y-93282563D01*
X151957198Y-93295545D01*
X151951475Y-93295820D01*
X151947472Y-93283434D01*
X151951169Y-93257318D01*
X151964749Y-93212659D01*
X151990392Y-93144645D01*
X152030281Y-93048463D01*
X152086600Y-92919299D01*
X152161529Y-92752343D01*
X152257251Y-92542780D01*
X152375948Y-92285799D01*
X152519803Y-91976586D01*
X152690998Y-91610329D01*
X152891715Y-91182215D01*
X153124136Y-90687432D01*
X153390444Y-90121167D01*
X153405311Y-90089567D01*
X153701238Y-89460644D01*
X153963207Y-88903741D01*
X154193195Y-88414217D01*
X154393182Y-87987429D01*
X154565145Y-87618737D01*
X154711064Y-87303498D01*
X154832916Y-87037072D01*
X154932681Y-86814816D01*
X155012337Y-86632090D01*
X155073862Y-86484251D01*
X155119236Y-86366659D01*
X155150435Y-86274671D01*
X155169440Y-86203646D01*
X155178229Y-86148944D01*
X155178779Y-86105921D01*
X155173070Y-86069937D01*
X155163081Y-86036350D01*
X155150789Y-86000518D01*
X155149722Y-85997284D01*
X155110873Y-85890133D01*
X155043823Y-85717602D01*
X154953724Y-85492130D01*
X154845728Y-85226154D01*
X154724988Y-84932114D01*
X154596657Y-84622450D01*
X154465886Y-84309600D01*
X154337829Y-84006003D01*
X154217638Y-83724099D01*
X154110465Y-83476327D01*
X154030416Y-83295067D01*
X153825149Y-82843128D01*
X153606829Y-82373850D01*
X153378608Y-81893261D01*
X153143641Y-81407391D01*
X152905079Y-80922270D01*
X152666075Y-80443928D01*
X152429784Y-79978394D01*
X152199357Y-79531699D01*
X151977947Y-79109872D01*
X151768708Y-78718943D01*
X151574792Y-78364942D01*
X151399352Y-78053898D01*
X151245542Y-77791841D01*
X151116514Y-77584802D01*
X151015421Y-77438809D01*
X150945416Y-77359894D01*
X150920322Y-77347233D01*
X150879825Y-77380702D01*
X150816666Y-77466098D01*
X150777179Y-77529585D01*
X150588786Y-77777305D01*
X150335855Y-77998594D01*
X150037992Y-78176404D01*
X150027508Y-78181388D01*
X149628841Y-78346175D01*
X149157735Y-78500609D01*
X148626080Y-78641923D01*
X148045763Y-78767347D01*
X147428673Y-78874114D01*
X146786699Y-78959454D01*
X146600333Y-78979517D01*
X146416225Y-79003993D01*
X146265743Y-79042044D01*
X146129883Y-79104026D01*
X145989645Y-79200295D01*
X145826026Y-79341208D01*
X145675179Y-79483728D01*
X145264497Y-79930940D01*
X144876019Y-80458861D01*
X144510073Y-81066409D01*
X144166983Y-81752502D01*
X143847077Y-82516058D01*
X143550680Y-83355995D01*
X143278119Y-84271231D01*
X143029720Y-85260683D01*
X142805810Y-86323270D01*
X142606714Y-87457911D01*
X142432758Y-88663521D01*
X142284269Y-89939021D01*
X142177735Y-91084400D01*
X142139646Y-91554241D01*
X142107968Y-91972638D01*
X142081939Y-92356247D01*
X142060795Y-92721725D01*
X142043774Y-93085730D01*
X142030113Y-93464916D01*
X142019048Y-93875942D01*
X142009818Y-94335464D01*
X142001658Y-94860138D01*
X142000310Y-94957900D01*
X141996664Y-95332109D01*
X141995288Y-95736392D01*
X141875315Y-95736392D01*
X141884067Y-94586156D01*
X141930667Y-93093724D01*
X142011739Y-91649288D01*
X142126848Y-90256287D01*
X142275560Y-88918160D01*
X142457440Y-87638345D01*
X142672054Y-86420283D01*
X142918968Y-85267413D01*
X143197746Y-84183173D01*
X143507955Y-83171004D01*
X143849160Y-82234344D01*
X143850244Y-82231615D01*
X144136750Y-81559258D01*
X144434066Y-80960740D01*
X144748697Y-80425341D01*
X145087145Y-79942344D01*
X145455913Y-79501028D01*
X145600063Y-79347483D01*
X145938018Y-78998233D01*
X145052092Y-78998061D01*
X144299785Y-78987712D01*
X143623860Y-78956169D01*
X143018424Y-78902226D01*
X142477587Y-78824674D01*
X141995455Y-78722309D01*
X141566138Y-78593922D01*
X141183743Y-78438308D01*
X140842379Y-78254260D01*
X140593860Y-78084979D01*
X140460994Y-77987055D01*
X140375407Y-77933873D01*
X140317310Y-77918498D01*
X140266913Y-77933996D01*
X140229148Y-77957186D01*
X140152190Y-78019051D01*
X140026616Y-78133453D01*
X139861621Y-78291072D01*
X139666399Y-78482588D01*
X139450147Y-78698682D01*
X139222057Y-78930032D01*
X138991326Y-79167319D01*
X138767148Y-79401222D01*
X138558718Y-79622422D01*
X138375230Y-79821598D01*
X138238151Y-79975315D01*
X138007772Y-80245381D01*
X137762133Y-80543686D01*
X137508039Y-80861092D01*
X137252291Y-81188457D01*
X137001693Y-81516641D01*
X136763047Y-81836502D01*
X136543156Y-82138901D01*
X136348823Y-82414696D01*
X136186850Y-82654747D01*
X136064040Y-82849913D01*
X135987196Y-82991054D01*
X135977640Y-83012719D01*
X135965111Y-83041027D01*
X135954766Y-83066797D01*
X135948296Y-83095886D01*
X135947387Y-83134150D01*
X135953728Y-83187446D01*
X135969007Y-83261630D01*
X135994912Y-83362560D01*
X136033131Y-83496092D01*
X136085352Y-83668083D01*
X136153263Y-83884389D01*
X136238552Y-84150868D01*
X136342907Y-84473375D01*
X136468017Y-84857768D01*
X136615569Y-85309904D01*
X136787251Y-85835639D01*
X136821617Y-85940900D01*
X137142779Y-86925550D01*
X137442481Y-87846220D01*
X137720302Y-88701601D01*
X137975827Y-89490384D01*
X138208634Y-90211262D01*
X138418308Y-90862926D01*
X138604428Y-91444069D01*
X138766577Y-91953381D01*
X138904336Y-92389556D01*
X139017287Y-92751283D01*
X139105011Y-93037256D01*
X139167091Y-93246166D01*
X139203106Y-93376705D01*
X139211314Y-93412733D01*
X139234813Y-93539733D01*
X139172699Y-93412733D01*
X139143321Y-93339273D01*
X139089474Y-93190019D01*
X139012741Y-92969736D01*
X138914702Y-92683191D01*
X138796940Y-92335147D01*
X138661035Y-91930371D01*
X138508571Y-91473628D01*
X138341128Y-90969684D01*
X138160287Y-90423304D01*
X137967631Y-89839253D01*
X137764742Y-89222298D01*
X137553201Y-88577202D01*
X137334589Y-87908732D01*
X137110488Y-87221654D01*
X136882480Y-86520732D01*
X136759265Y-86141165D01*
X135759981Y-83060598D01*
X136192613Y-82436999D01*
X136768052Y-81629420D01*
X137328643Y-80888840D01*
X137885713Y-80201737D01*
X138450590Y-79554591D01*
X139034603Y-78933881D01*
X139586224Y-78386393D01*
X140255615Y-77742025D01*
X140169856Y-77596675D01*
X140028085Y-77275290D01*
X139955950Y-76917029D01*
X139955846Y-76887642D01*
X140082508Y-76887642D01*
X140084352Y-77033568D01*
X140097811Y-77142650D01*
X140126327Y-77238733D01*
X140173343Y-77345661D01*
X140189676Y-77379527D01*
X140384289Y-77683666D01*
X140655704Y-77955278D01*
X141002280Y-78193702D01*
X141422377Y-78398279D01*
X141914355Y-78568347D01*
X142476575Y-78703246D01*
X143107397Y-78802315D01*
X143805180Y-78864893D01*
X143888612Y-78869664D01*
X144205052Y-78885926D01*
X144472985Y-78897154D01*
X144713201Y-78903368D01*
X144946490Y-78904588D01*
X145193643Y-78900835D01*
X145475450Y-78892128D01*
X145812703Y-78878489D01*
X145967258Y-78871680D01*
X146501197Y-78842538D01*
X146974629Y-78804384D01*
X147411489Y-78754394D01*
X147835712Y-78689745D01*
X148271231Y-78607616D01*
X148357166Y-78589816D01*
X148927655Y-78454095D01*
X149417097Y-78302484D01*
X149827919Y-78133257D01*
X150162547Y-77944690D01*
X150423407Y-77735059D01*
X150612926Y-77502638D01*
X150733531Y-77245703D01*
X150787648Y-76962531D01*
X150791333Y-76859771D01*
X150781774Y-76668686D01*
X150756925Y-76475769D01*
X150728096Y-76345327D01*
X150638900Y-76153899D01*
X150484090Y-75939612D01*
X150275704Y-75713349D01*
X150025779Y-75485993D01*
X149746353Y-75268428D01*
X149449465Y-75071536D01*
X149147153Y-74906202D01*
X149124018Y-74895103D01*
X148858757Y-74777584D01*
X148576297Y-74666782D01*
X148298036Y-74569980D01*
X148045369Y-74494461D01*
X147839695Y-74447507D01*
X147785284Y-74439463D01*
X147660377Y-74427534D01*
X147597824Y-74435276D01*
X147576221Y-74469994D01*
X147574000Y-74511562D01*
X147586680Y-74589991D01*
X147621046Y-74727917D01*
X147671578Y-74904661D01*
X147722166Y-75067009D01*
X147795802Y-75300495D01*
X147842484Y-75465111D01*
X147864175Y-75571562D01*
X147862836Y-75630555D01*
X147840430Y-75652794D01*
X147829728Y-75653900D01*
X147803476Y-75615807D01*
X147756572Y-75510374D01*
X147694267Y-75350866D01*
X147621812Y-75150549D01*
X147565854Y-74987150D01*
X147342584Y-74320400D01*
X147342605Y-74300850D01*
X147944552Y-74300850D01*
X147975328Y-74327335D01*
X148059392Y-74361811D01*
X148207575Y-74411161D01*
X148317032Y-74446089D01*
X148936962Y-74679515D01*
X149522048Y-74971877D01*
X149854183Y-75176065D01*
X150217602Y-75417875D01*
X150832551Y-75425010D01*
X151623013Y-75475322D01*
X152425843Y-75606947D01*
X153236860Y-75818163D01*
X154051882Y-76107250D01*
X154866728Y-76472486D01*
X155677217Y-76912150D01*
X156479168Y-77424521D01*
X157268398Y-78007879D01*
X157437666Y-78143748D01*
X157656457Y-78330664D01*
X157917139Y-78567534D01*
X158205871Y-78840576D01*
X158508810Y-79136007D01*
X158812116Y-79440047D01*
X159101947Y-79738912D01*
X159364460Y-80018821D01*
X159585815Y-80265991D01*
X159677623Y-80374067D01*
X160512034Y-81445679D01*
X161289767Y-82578440D01*
X162009740Y-83769642D01*
X162670873Y-85016580D01*
X163272084Y-86316548D01*
X163812291Y-87666837D01*
X164290413Y-89064743D01*
X164705369Y-90507558D01*
X165056078Y-91992575D01*
X165341458Y-93517089D01*
X165560427Y-95078393D01*
X165563666Y-95106067D01*
X165626306Y-95737815D01*
X165675443Y-96432122D01*
X165710557Y-97167878D01*
X165731127Y-97923978D01*
X165736632Y-98679312D01*
X165726553Y-99412774D01*
X165700369Y-100103256D01*
X165691003Y-100270733D01*
X165584234Y-101535991D01*
X165417803Y-102784503D01*
X165193776Y-104007988D01*
X164914223Y-105198167D01*
X164581210Y-106346759D01*
X164196805Y-107445485D01*
X163763076Y-108486064D01*
X163502688Y-109033733D01*
X163221499Y-109581050D01*
X162950507Y-110070004D01*
X162675749Y-110523381D01*
X162383262Y-110963963D01*
X162059084Y-111414536D01*
X161974569Y-111527280D01*
X161658116Y-111946494D01*
X161907974Y-111923420D01*
X162099686Y-111893854D01*
X162305110Y-111844734D01*
X162396284Y-111816072D01*
X162635252Y-111706122D01*
X162919774Y-111530146D01*
X163246208Y-111291021D01*
X163610910Y-110991625D01*
X164010237Y-110634837D01*
X164440544Y-110223536D01*
X164551350Y-110113711D01*
X165333972Y-109274884D01*
X166069782Y-108368258D01*
X166756123Y-107398278D01*
X167390338Y-106369386D01*
X167969769Y-105286027D01*
X168491759Y-104152643D01*
X168953650Y-102973678D01*
X169134091Y-102450900D01*
X169412462Y-101536870D01*
X169660360Y-100572864D01*
X169873370Y-99581746D01*
X170047078Y-98586380D01*
X170177067Y-97609631D01*
X170258922Y-96674362D01*
X170263122Y-96604376D01*
X170279778Y-96249894D01*
X170292211Y-95845843D01*
X170300419Y-95409270D01*
X170304401Y-94957225D01*
X170304155Y-94506753D01*
X170299681Y-94074904D01*
X170290977Y-93678725D01*
X170278042Y-93335262D01*
X170263385Y-93093112D01*
X170114944Y-91652896D01*
X169892921Y-90237861D01*
X169598678Y-88851444D01*
X169233577Y-87497086D01*
X168798979Y-86178223D01*
X168296246Y-84898296D01*
X167726739Y-83660743D01*
X167091822Y-82469002D01*
X166392854Y-81326511D01*
X165631199Y-80236711D01*
X164808218Y-79203039D01*
X164723610Y-79104067D01*
X163897745Y-78202109D01*
X163032861Y-77369744D01*
X162131520Y-76608486D01*
X161196281Y-75919849D01*
X160229706Y-75305347D01*
X159234355Y-74766496D01*
X158212790Y-74304808D01*
X157167572Y-73921799D01*
X156101261Y-73618983D01*
X155096624Y-73411293D01*
X154571600Y-73338847D01*
X153988549Y-73287980D01*
X153371457Y-73259239D01*
X152744309Y-73253173D01*
X152131091Y-73270328D01*
X151555789Y-73311253D01*
X151405166Y-73327001D01*
X151156067Y-73361240D01*
X150846924Y-73413200D01*
X150499413Y-73478442D01*
X150135204Y-73552530D01*
X149775972Y-73631027D01*
X149443390Y-73709494D01*
X149159131Y-73783496D01*
X149115539Y-73795779D01*
X148798670Y-73894798D01*
X148500074Y-74003942D01*
X148239751Y-74115172D01*
X148037700Y-74220450D01*
X147999532Y-74244311D01*
X147956231Y-74275470D01*
X147944552Y-74300850D01*
X147342605Y-74300850D01*
X147344087Y-72944567D01*
X147352237Y-72184162D01*
X147375063Y-71504451D01*
X147412759Y-70902707D01*
X147465519Y-70376203D01*
X147533538Y-69922214D01*
X147573372Y-69721364D01*
X147681014Y-69351614D01*
X147835034Y-69000073D01*
X148025641Y-68682653D01*
X148243041Y-68415266D01*
X148477441Y-68213822D01*
X148517098Y-68188009D01*
X148731224Y-68055067D01*
X148544195Y-68026454D01*
X148452945Y-68018797D01*
X148290112Y-68011661D01*
X148068777Y-68005353D01*
X147802025Y-68000177D01*
X147502937Y-67996440D01*
X147184597Y-67994447D01*
X147171833Y-67994409D01*
X146796339Y-67991944D01*
X146396353Y-67986855D01*
X145982121Y-67979476D01*
X145563893Y-67970139D01*
X145151915Y-67959178D01*
X144756434Y-67946924D01*
X144387700Y-67933712D01*
X144055959Y-67919874D01*
X143771459Y-67905742D01*
X143544447Y-67891651D01*
X143385171Y-67877933D01*
X143322706Y-67869352D01*
X143134325Y-67834159D01*
X143380574Y-68325613D01*
X143489730Y-68553457D01*
X143597495Y-68795631D01*
X143690413Y-69020957D01*
X143747988Y-69176900D01*
X143869154Y-69536733D01*
X143866270Y-71166567D01*
X143863209Y-71743227D01*
X143855873Y-72243419D01*
X143843754Y-72675257D01*
X143826341Y-73046855D01*
X143803127Y-73366328D01*
X143773602Y-73641790D01*
X143737256Y-73881355D01*
X143693582Y-74093138D01*
X143678953Y-74152552D01*
X143559906Y-74539562D01*
X143411758Y-74893878D01*
X143243800Y-75194810D01*
X143154900Y-75319296D01*
X143043246Y-75450163D01*
X142916591Y-75581512D01*
X142789522Y-75700363D01*
X142676628Y-75793732D01*
X142592497Y-75848639D01*
X142553471Y-75854483D01*
X142569757Y-75815338D01*
X142632587Y-75729523D01*
X142730494Y-75612033D01*
X142791130Y-75543762D01*
X142926633Y-75389160D01*
X143056349Y-75232523D01*
X143157442Y-75101659D01*
X143178088Y-75072581D01*
X143255169Y-74949903D01*
X143332199Y-74810156D01*
X143399118Y-74674177D01*
X143445867Y-74562804D01*
X143462388Y-74496874D01*
X143459825Y-74488948D01*
X143413741Y-74490702D01*
X143300803Y-74508736D01*
X143136531Y-74539749D01*
X142936442Y-74580444D01*
X142716055Y-74627522D01*
X142490889Y-74677682D01*
X142276462Y-74727627D01*
X142088293Y-74774058D01*
X141969760Y-74805704D01*
X141570482Y-74933775D01*
X141208483Y-75081247D01*
X140894548Y-75242333D01*
X140639462Y-75411246D01*
X140454009Y-75582198D01*
X140404657Y-75645593D01*
X140270577Y-75861333D01*
X140179809Y-76067655D01*
X140123975Y-76292022D01*
X140094700Y-76561900D01*
X140088837Y-76681027D01*
X140082508Y-76887642D01*
X139955846Y-76887642D01*
X139954597Y-76534796D01*
X140025173Y-76141493D01*
X140036804Y-76100076D01*
X140083098Y-75915726D01*
X140093546Y-75802552D01*
X140078983Y-75761950D01*
X140022611Y-75745138D01*
X139897741Y-75729151D01*
X139720541Y-75715456D01*
X139507178Y-75705521D01*
X139433840Y-75703374D01*
X138680147Y-75722202D01*
X137900482Y-75813535D01*
X137106738Y-75974150D01*
X136310808Y-76200824D01*
X135524584Y-76490335D01*
X134759959Y-76839458D01*
X134269386Y-77102988D01*
X133478986Y-77596167D01*
X132693290Y-78167215D01*
X131919703Y-78809374D01*
X131165629Y-79515891D01*
X130438473Y-80280008D01*
X129745639Y-81094969D01*
X129382185Y-81562036D01*
X128693027Y-82536703D01*
X128040531Y-83580869D01*
X127428465Y-84686021D01*
X126860593Y-85843645D01*
X126340682Y-87045226D01*
X125872497Y-88282251D01*
X125459805Y-89546206D01*
X125106370Y-90828576D01*
X124908224Y-91677067D01*
X124688577Y-92785708D01*
X124515855Y-93875236D01*
X124388389Y-94963804D01*
X124304512Y-96069562D01*
X124262555Y-97210663D01*
X124260850Y-98405258D01*
X124141872Y-98405258D01*
X124140269Y-98326571D01*
X124136634Y-97755016D01*
X124141431Y-97199894D01*
X124155100Y-96678019D01*
X124158584Y-96587733D01*
X124263002Y-95057351D01*
X124451092Y-93528539D01*
X124721913Y-92005869D01*
X125074525Y-90493912D01*
X125507985Y-88997239D01*
X126021354Y-87520421D01*
X126029974Y-87497610D01*
X126510077Y-86316864D01*
X127041078Y-85175347D01*
X127619719Y-84077473D01*
X128242740Y-83027652D01*
X128906885Y-82030298D01*
X129608894Y-81089822D01*
X130345509Y-80210637D01*
X131113472Y-79397154D01*
X131909525Y-78653785D01*
X132730409Y-77984944D01*
X133413500Y-77499374D01*
X134245245Y-76987955D01*
X135087399Y-76552492D01*
X135934340Y-76195554D01*
X136780451Y-75919710D01*
X136989840Y-75864064D01*
X137330815Y-75781636D01*
X137635132Y-75718615D01*
X137923240Y-75672804D01*
X138215590Y-75642005D01*
X138532631Y-75624022D01*
X138894814Y-75616656D01*
X139285902Y-75617373D01*
X140247638Y-75625797D01*
X140464372Y-75405617D01*
X140665625Y-75233351D01*
X140909356Y-75073963D01*
X141005470Y-75022353D01*
X141257264Y-74909404D01*
X141565488Y-74792198D01*
X141902932Y-74679646D01*
X142242387Y-74580653D01*
X142556646Y-74504129D01*
X142639697Y-74487314D01*
X142868158Y-74444191D01*
X143023303Y-74413338D01*
X143114478Y-74388707D01*
X143151029Y-74364251D01*
X143142303Y-74333924D01*
X143097644Y-74291677D01*
X143030111Y-74234701D01*
X142891224Y-74127157D01*
X142735091Y-74036004D01*
X142544752Y-73953835D01*
X142303244Y-73873240D01*
X142021610Y-73794201D01*
X141290518Y-73616663D01*
X140599921Y-73484780D01*
X139921525Y-73394841D01*
X139227039Y-73343134D01*
X138488170Y-73325949D01*
X138451426Y-73325929D01*
X137823490Y-73333619D01*
X137256783Y-73357932D01*
X136729026Y-73401503D01*
X136217943Y-73466971D01*
X135701258Y-73556972D01*
X135156695Y-73674145D01*
X134816689Y-73756245D01*
X133730260Y-74070768D01*
X132663783Y-74466258D01*
X131620822Y-74940619D01*
X130604939Y-75491750D01*
X129619698Y-76117556D01*
X128668663Y-76815937D01*
X127755396Y-77584797D01*
X126883462Y-78422036D01*
X126872272Y-78433507D01*
X125953558Y-79435665D01*
X125105694Y-80484129D01*
X124328750Y-81578745D01*
X123622798Y-82719358D01*
X122987907Y-83905811D01*
X122424150Y-85137949D01*
X121931596Y-86415617D01*
X121510316Y-87738660D01*
X121160381Y-89106921D01*
X120881862Y-90520245D01*
X120674829Y-91978478D01*
X120663352Y-92079233D01*
X120640960Y-92334389D01*
X120622217Y-92658782D01*
X120607194Y-93037899D01*
X120595962Y-93457225D01*
X120588593Y-93902248D01*
X120585159Y-94358452D01*
X120414764Y-94358452D01*
X120447027Y-93086864D01*
X120560344Y-91724367D01*
X120752662Y-90362869D01*
X121024161Y-89006297D01*
X121375019Y-87658578D01*
X121603828Y-86916554D01*
X122069628Y-85617063D01*
X122605332Y-84362190D01*
X123209735Y-83153889D01*
X123881630Y-81994115D01*
X124619812Y-80884822D01*
X125423075Y-79827967D01*
X126290211Y-78825503D01*
X127121369Y-77974192D01*
X128025040Y-77152726D01*
X128959623Y-76405709D01*
X129922541Y-75733914D01*
X130911218Y-75138117D01*
X131923078Y-74619091D01*
X132955545Y-74177610D01*
X134006043Y-73814449D01*
X135071996Y-73530381D01*
X136150827Y-73326181D01*
X137239962Y-73202623D01*
X138336823Y-73160482D01*
X139438835Y-73200530D01*
X140543422Y-73323544D01*
X141648007Y-73530295D01*
X141795500Y-73564314D01*
X142238671Y-73682503D01*
X142607556Y-73811669D01*
X142912255Y-73955876D01*
X143150166Y-74109527D01*
X143281131Y-74200735D01*
X143392434Y-74264787D01*
X143462480Y-74289466D01*
X143467666Y-74289103D01*
X143506870Y-74240404D01*
X143545387Y-74113121D01*
X143582630Y-73913336D01*
X143618011Y-73647132D01*
X143650943Y-73320591D01*
X143680838Y-72939796D01*
X143707109Y-72510830D01*
X143729168Y-72039775D01*
X143746429Y-71532713D01*
X143751059Y-71354901D01*
X143759319Y-70872201D01*
X143757357Y-70460210D01*
X143742775Y-70105333D01*
X143713176Y-69793975D01*
X143666163Y-69512539D01*
X143599338Y-69247431D01*
X143510303Y-68985055D01*
X143396663Y-68711816D01*
X143256018Y-68414118D01*
X143219545Y-68340653D01*
X143123292Y-68145288D01*
X143039200Y-67969319D01*
X142975675Y-67830706D01*
X142941124Y-67747410D01*
X142939307Y-67741928D01*
X142926596Y-67697533D01*
X142929591Y-67669427D01*
X142960802Y-67657436D01*
X143032739Y-67661385D01*
G37*
X143032739Y-67661385D02*
X143157912Y-67681101D01*
X143348831Y-67716411D01*
X143446500Y-67734879D01*
X143533644Y-67744314D01*
X143696931Y-67754961D01*
X143927850Y-67766556D01*
X144217888Y-67778835D01*
X144558535Y-67791534D01*
X144941279Y-67804389D01*
X145357609Y-67817136D01*
X145799014Y-67829511D01*
X146256983Y-67841250D01*
X146723003Y-67852089D01*
X147188565Y-67861764D01*
X147645156Y-67870011D01*
X147959264Y-67874856D01*
X148270329Y-67881240D01*
X148505992Y-67891696D01*
X148675493Y-67908175D01*
X148788071Y-67932629D01*
X148852964Y-67967009D01*
X148879411Y-68013267D01*
X148877565Y-68068851D01*
X148838559Y-68123119D01*
X148747440Y-68206226D01*
X148623189Y-68301028D01*
X148611166Y-68309453D01*
X148348415Y-68536606D01*
X148113657Y-68825760D01*
X147922519Y-69155156D01*
X147817558Y-69414412D01*
X147713601Y-69799274D01*
X147629962Y-70262678D01*
X147566577Y-70805357D01*
X147523379Y-71428046D01*
X147500302Y-72131478D01*
X147497282Y-72916389D01*
X147497943Y-72986336D01*
X147501937Y-73338409D01*
X147506178Y-73614995D01*
X147511322Y-73825270D01*
X147518030Y-73978415D01*
X147526958Y-74083605D01*
X147538766Y-74150019D01*
X147554111Y-74186836D01*
X147573653Y-74203233D01*
X147585476Y-74206696D01*
X147653254Y-74195563D01*
X147777598Y-74154158D01*
X147939075Y-74089521D01*
X148072310Y-74030290D01*
X148578155Y-73820768D01*
X149144196Y-73633921D01*
X149777856Y-73467583D01*
X150486562Y-73319593D01*
X150554728Y-73307018D01*
X150903505Y-73246253D01*
X151218631Y-73198824D01*
X151517615Y-73163555D01*
X151817967Y-73139274D01*
X152137195Y-73124806D01*
X152492808Y-73118978D01*
X152902316Y-73120614D01*
X153254174Y-73126012D01*
X153668762Y-73135131D01*
X154016661Y-73146775D01*
X154315846Y-73162820D01*
X154584293Y-73185141D01*
X154839976Y-73215613D01*
X155100872Y-73256111D01*
X155384954Y-73308511D01*
X155710199Y-73374688D01*
X155781366Y-73389656D01*
X156836904Y-73655520D01*
X157875662Y-74002938D01*
X158894729Y-74429941D01*
X159891195Y-74934561D01*
X160862150Y-75514829D01*
X161804682Y-76168777D01*
X162715883Y-76894435D01*
X163592840Y-77689835D01*
X164432644Y-78553009D01*
X165232385Y-79481987D01*
X165727278Y-80117404D01*
X166516895Y-81242532D01*
X167236484Y-82414854D01*
X167885719Y-83633502D01*
X168464273Y-84897608D01*
X168971823Y-86206304D01*
X169408041Y-87558723D01*
X169772603Y-88953997D01*
X170065183Y-90391259D01*
X170285456Y-91869640D01*
X170349863Y-92439415D01*
X170374962Y-92698091D01*
X170394987Y-92945679D01*
X170410456Y-93196432D01*
X170421888Y-93464604D01*
X170429803Y-93764450D01*
X170434719Y-94110224D01*
X170437154Y-94516181D01*
X170437662Y-94852067D01*
X170434911Y-95466531D01*
X170425511Y-96013480D01*
X170408110Y-96509899D01*
X170381359Y-96972771D01*
X170343907Y-97419082D01*
X170294404Y-97865817D01*
X170231500Y-98329960D01*
X170153844Y-98828497D01*
X170092714Y-99191233D01*
X169827750Y-100507526D01*
X169494189Y-101787288D01*
X169093588Y-103027368D01*
X168627507Y-104224614D01*
X168097507Y-105375875D01*
X167505146Y-106477999D01*
X166851984Y-107527834D01*
X166139581Y-108522230D01*
X165369496Y-109458035D01*
X164614540Y-110261400D01*
X164201006Y-110667359D01*
X163834133Y-111011689D01*
X163507421Y-111298653D01*
X163214367Y-111532516D01*
X162948470Y-111717542D01*
X162703228Y-111857995D01*
X162472138Y-111958140D01*
X162248700Y-112022242D01*
X162026411Y-112054564D01*
X161871388Y-112060567D01*
X161615028Y-112060567D01*
X160976264Y-112687175D01*
X160535318Y-113107277D01*
X160124994Y-113470117D01*
X159728565Y-113788626D01*
X159329307Y-114075733D01*
X158910493Y-114344367D01*
X158588569Y-114532970D01*
X158198756Y-114738580D01*
X157841469Y-114891308D01*
X157490828Y-114999567D01*
X157120951Y-115071769D01*
X156823833Y-115106549D01*
X156442833Y-115141298D01*
X155903387Y-115672212D01*
X155515053Y-116040150D01*
X155158682Y-116346190D01*
X154821306Y-116600197D01*
X154489959Y-116812036D01*
X154200576Y-116967696D01*
X153552469Y-117244111D01*
X152884621Y-117441123D01*
X152195691Y-117558725D01*
X151484335Y-117596907D01*
X150749209Y-117555664D01*
X149988971Y-117434985D01*
X149202278Y-117234864D01*
X148387788Y-116955292D01*
X148329689Y-116932743D01*
X147852074Y-116728430D01*
X147321425Y-116468044D01*
X146735459Y-116150396D01*
X146091890Y-115774302D01*
X146050000Y-115749008D01*
X145791492Y-115593320D01*
X145595512Y-115477628D01*
X145452570Y-115397410D01*
X145353173Y-115348146D01*
X145287829Y-115325317D01*
X145247049Y-115324401D01*
X145221339Y-115340878D01*
X145213606Y-115350675D01*
X145013081Y-115626367D01*
X144839573Y-115844694D01*
X144678819Y-116022216D01*
X144516557Y-116175490D01*
X144465652Y-116219052D01*
X144199688Y-116411856D01*
X143863502Y-116607517D01*
X143471140Y-116800656D01*
X143036646Y-116985897D01*
X142574064Y-117157861D01*
X142097439Y-117311170D01*
X141620815Y-117440446D01*
X141158237Y-117540310D01*
X140906486Y-117581975D01*
X140630958Y-117614278D01*
X140308750Y-117639835D01*
X139963033Y-117657892D01*
X139616979Y-117667690D01*
X139293760Y-117668474D01*
X139016549Y-117659487D01*
X138874500Y-117648314D01*
X138184393Y-117535860D01*
X137488454Y-117347109D01*
X136802046Y-117087735D01*
X136140534Y-116763412D01*
X135614833Y-116444598D01*
X135274908Y-116206057D01*
X134950265Y-115951264D01*
X134625398Y-115666634D01*
X134284799Y-115338579D01*
X133913081Y-114953643D01*
X133396663Y-114403731D01*
X133043609Y-114316573D01*
X132647000Y-114199178D01*
X132207662Y-114034838D01*
X131746416Y-113832553D01*
X131284086Y-113601323D01*
X130929882Y-113402991D01*
X130397887Y-113057260D01*
X129852994Y-112642892D01*
X129307846Y-112171972D01*
X128775090Y-111656585D01*
X128267369Y-111108815D01*
X127797329Y-110540747D01*
X127465501Y-110092067D01*
X127318086Y-109883728D01*
X127202979Y-109730226D01*
X127104986Y-109616313D01*
X127008910Y-109526741D01*
X126899553Y-109446264D01*
X126761720Y-109359635D01*
X126696787Y-109320783D01*
X126329866Y-109070497D01*
X125942666Y-108746765D01*
X125540614Y-108356811D01*
X125129137Y-107907861D01*
X124713661Y-107407138D01*
X124299615Y-106861866D01*
X123892423Y-106279270D01*
X123497513Y-105666574D01*
X123120313Y-105031002D01*
X122766248Y-104379780D01*
X122440745Y-103720130D01*
X122363023Y-103551567D01*
X121850783Y-102322450D01*
X121416111Y-101062916D01*
X121059185Y-99776892D01*
X120780185Y-98468304D01*
X120579290Y-97141081D01*
X120456679Y-95799148D01*
X120412532Y-94446434D01*
X120414764Y-94358452D01*
X120585159Y-94358452D01*
X120585729Y-94811326D01*
X120590377Y-95246354D01*
X120599174Y-95649024D01*
X120612190Y-96004822D01*
X120629498Y-96299234D01*
X120641887Y-96439567D01*
X120822224Y-97820117D01*
X121069122Y-99149128D01*
X121383177Y-100428130D01*
X121764983Y-101658656D01*
X122215133Y-102842237D01*
X122734223Y-103980405D01*
X123322845Y-105074692D01*
X123981593Y-106126630D01*
X124711063Y-107137750D01*
X124869610Y-107340400D01*
X125056920Y-107566978D01*
X125272594Y-107811923D01*
X125505977Y-108064569D01*
X125746416Y-108314250D01*
X125983257Y-108550298D01*
X126205843Y-108762047D01*
X126403522Y-108938831D01*
X126565639Y-109069983D01*
X126661333Y-109134185D01*
X126783693Y-109202382D01*
X126872506Y-109250083D01*
X126906489Y-109266169D01*
X126892483Y-109231942D01*
X126845002Y-109139022D01*
X126771973Y-109002571D01*
X126701991Y-108874983D01*
X126160679Y-107815805D01*
X125682322Y-106706694D01*
X125266395Y-105545912D01*
X124912371Y-104331721D01*
X124619724Y-103062382D01*
X124387928Y-101736156D01*
X124269578Y-100842233D01*
X124230361Y-100440770D01*
X124197382Y-99971656D01*
X124171082Y-99451707D01*
X124151898Y-98897739D01*
X124141872Y-98405258D01*
X124260850Y-98405258D01*
X124265577Y-98670668D01*
X124276558Y-99139051D01*
X124289002Y-99539687D01*
X124304167Y-99889495D01*
X124323316Y-100205395D01*
X124347706Y-100504306D01*
X124378598Y-100803147D01*
X124417253Y-101118838D01*
X124464930Y-101468297D01*
X124483713Y-101599854D01*
X124692102Y-102832645D01*
X124954952Y-104019570D01*
X125270898Y-105157955D01*
X125638574Y-106245129D01*
X126056614Y-107278418D01*
X126523654Y-108255152D01*
X127038326Y-109172657D01*
X127599265Y-110028261D01*
X128205107Y-110819293D01*
X128854484Y-111543080D01*
X129546032Y-112196949D01*
X130147222Y-112681777D01*
X130533011Y-112952463D01*
X130953950Y-113216511D01*
X131394583Y-113466177D01*
X131839456Y-113693716D01*
X132273112Y-113891381D01*
X132680096Y-114051430D01*
X133044953Y-114166115D01*
X133169341Y-114196192D01*
X133306182Y-114225968D01*
X132901093Y-113577184D01*
X132633521Y-113128933D01*
X132365502Y-112643560D01*
X132109780Y-112145999D01*
X131879099Y-111661184D01*
X131686203Y-111214049D01*
X131660774Y-111150400D01*
X131283889Y-110096083D01*
X130960137Y-108978482D01*
X130690205Y-107800783D01*
X130474782Y-106566169D01*
X130314559Y-105277826D01*
X130260010Y-104673400D01*
X130247295Y-104460077D01*
X130236829Y-104175170D01*
X130228612Y-103831731D01*
X130222642Y-103442812D01*
X130218920Y-103021465D01*
X130217445Y-102580744D01*
X130218217Y-102133699D01*
X130221234Y-101693384D01*
X130226496Y-101272850D01*
X130234002Y-100885151D01*
X130243752Y-100543338D01*
X130255745Y-100260464D01*
X130260223Y-100181808D01*
X130318377Y-99427246D01*
X130401725Y-98618292D01*
X130506793Y-97780220D01*
X130630105Y-96938300D01*
X130768185Y-96117807D01*
X130917557Y-95344013D01*
X130940821Y-95233067D01*
X130990681Y-94997891D01*
X131038521Y-94772132D01*
X131079498Y-94578657D01*
X131108767Y-94440330D01*
X131112979Y-94420399D01*
X131141523Y-94250797D01*
X131133025Y-94145823D01*
X131077537Y-94089895D01*
X130965109Y-94067426D01*
X130885411Y-94063891D01*
X130764776Y-94059501D01*
X130721492Y-94051694D01*
X130748244Y-94037643D01*
X130788833Y-94026567D01*
X130849351Y-94021541D01*
X130985533Y-94016845D01*
X131190488Y-94012489D01*
X131457321Y-94008479D01*
X131779139Y-94004826D01*
X132149050Y-94001538D01*
X132560159Y-93998623D01*
X133005574Y-93996091D01*
X133478401Y-93993950D01*
X133971747Y-93992208D01*
X134478719Y-93990875D01*
X134992424Y-93989958D01*
X135505968Y-93989468D01*
X136012459Y-93989412D01*
X136505002Y-93989799D01*
X136976705Y-93990638D01*
X137420674Y-93991938D01*
X137830017Y-93993707D01*
X138197840Y-93995954D01*
X138517249Y-93998687D01*
X138781352Y-94001916D01*
X138983256Y-94005649D01*
X139116066Y-94009895D01*
X139172890Y-94014662D01*
X139174373Y-94015983D01*
X139128344Y-94020812D01*
X139003602Y-94025867D01*
X138806102Y-94031067D01*
X138541794Y-94036334D01*
X138216635Y-94041587D01*
X137836575Y-94046747D01*
X137407570Y-94051734D01*
X136935571Y-94056468D01*
X136426533Y-94060870D01*
X135886409Y-94064859D01*
X135321152Y-94068357D01*
X135222445Y-94068900D01*
X131302256Y-94090067D01*
X131226770Y-94428733D01*
X130990877Y-95549642D01*
X130792096Y-96635291D01*
X130625802Y-97715558D01*
X130487371Y-98820320D01*
X130378245Y-99910900D01*
X130359711Y-100179299D01*
X130344865Y-100517917D01*
X130333650Y-100913435D01*
X130326009Y-101352534D01*
X130321883Y-101821897D01*
X130321217Y-102308204D01*
X130323953Y-102798137D01*
X130330034Y-103278377D01*
X130339402Y-103735607D01*
X130352002Y-104156508D01*
X130367774Y-104527761D01*
X130386664Y-104836048D01*
X130400033Y-104990900D01*
X130557329Y-106290588D01*
X130760915Y-107520006D01*
X131011107Y-108679985D01*
X131308226Y-109771354D01*
X131652589Y-110794943D01*
X132044514Y-111751582D01*
X132484320Y-112642101D01*
X132972325Y-113467329D01*
X133508847Y-114228097D01*
X134094205Y-114925235D01*
X134290392Y-115133473D01*
X134874576Y-115691898D01*
X135470137Y-116169880D01*
X136085424Y-116571592D01*
X136728785Y-116901205D01*
X137408568Y-117162890D01*
X138133121Y-117360817D01*
X138910792Y-117499157D01*
X139065000Y-117519020D01*
X139371128Y-117539721D01*
X139743487Y-117537076D01*
X140167091Y-117511669D01*
X140626956Y-117464083D01*
X140694833Y-117455497D01*
X141191534Y-117374338D01*
X141699636Y-117260021D01*
X142206972Y-117117305D01*
X142701375Y-116950951D01*
X143170677Y-116765719D01*
X143602714Y-116566368D01*
X143985316Y-116357659D01*
X144306319Y-116144352D01*
X144529595Y-115955233D01*
X144689607Y-115783471D01*
X144835653Y-115599949D01*
X144956281Y-115421762D01*
X145040040Y-115266008D01*
X145075476Y-115149781D01*
X145075936Y-115139639D01*
X145060592Y-115075256D01*
X145018138Y-114948926D01*
X144954386Y-114776708D01*
X144875148Y-114574658D01*
X144840724Y-114489826D01*
X144672272Y-114057483D01*
X144491777Y-113555408D01*
X144303442Y-112996958D01*
X144111471Y-112395494D01*
X143920067Y-111764375D01*
X143733435Y-111116961D01*
X143555777Y-110466612D01*
X143463600Y-110113233D01*
X143402699Y-109880631D01*
X143346763Y-109676365D01*
X143299906Y-109514739D01*
X143266242Y-109410061D01*
X143251984Y-109377361D01*
X143202253Y-109356457D01*
X143083292Y-109320567D01*
X142908471Y-109273299D01*
X142691160Y-109218261D01*
X142444728Y-109159061D01*
X142431696Y-109156013D01*
X141994097Y-109049930D01*
X141617320Y-108949000D01*
X141278443Y-108845902D01*
X140954547Y-108733317D01*
X140622710Y-108603925D01*
X140366570Y-108496490D01*
X140108390Y-108379448D01*
X139931665Y-108284887D01*
X139836246Y-108212722D01*
X139821232Y-108191063D01*
X139810855Y-108161846D01*
X139805331Y-108123423D01*
X139806005Y-108068061D01*
X139814224Y-107988027D01*
X139831335Y-107875586D01*
X139858683Y-107723005D01*
X139897615Y-107522552D01*
X139949477Y-107266493D01*
X140015616Y-106947094D01*
X140097378Y-106556622D01*
X140146204Y-106324400D01*
X140249350Y-105825898D01*
X140332187Y-105406881D01*
X140395135Y-105064743D01*
X140438617Y-104796881D01*
X140463055Y-104600688D01*
X140468869Y-104473561D01*
X140456483Y-104412895D01*
X140455842Y-104412083D01*
X140390955Y-104367495D01*
X140255802Y-104299943D01*
X140060469Y-104213147D01*
X139815041Y-104110826D01*
X139529603Y-103996702D01*
X139214241Y-103874492D01*
X138879042Y-103747919D01*
X138534090Y-103620700D01*
X138189471Y-103496557D01*
X137855270Y-103379209D01*
X137541574Y-103272377D01*
X137258468Y-103179779D01*
X137016038Y-103105137D01*
X136824368Y-103052169D01*
X136694333Y-103024708D01*
X136503833Y-102997637D01*
X136239943Y-103391018D01*
X136006351Y-103767181D01*
X135794140Y-104170246D01*
X135599651Y-104609992D01*
X135419227Y-105096199D01*
X135249209Y-105638646D01*
X135085939Y-106247112D01*
X134940651Y-106864150D01*
X134913582Y-106939686D01*
X134859245Y-106972955D01*
X134749649Y-106980561D01*
X134744408Y-106980567D01*
X134420755Y-106952262D01*
X134072160Y-106873049D01*
X133718607Y-106751484D01*
X133380081Y-106596120D01*
X133076568Y-106415512D01*
X132828053Y-106218213D01*
X132734211Y-106120142D01*
X132539137Y-105836334D01*
X132385884Y-105488462D01*
X132273994Y-105074332D01*
X132203008Y-104591750D01*
X132172468Y-104038523D01*
X132173446Y-103960477D01*
X132268080Y-103960477D01*
X132300400Y-104535648D01*
X132380201Y-105059191D01*
X132417668Y-105220085D01*
X132506039Y-105506643D01*
X132616965Y-105738246D01*
X132767867Y-105944452D01*
X132959541Y-106139516D01*
X133224828Y-106348194D01*
X133535964Y-106532938D01*
X133870526Y-106684205D01*
X134206092Y-106792454D01*
X134520240Y-106848142D01*
X134637493Y-106853567D01*
X134810777Y-106853567D01*
X134968805Y-106229150D01*
X135117486Y-105671987D01*
X135264392Y-105184948D01*
X135414077Y-104753726D01*
X135538363Y-104440567D01*
X135637486Y-104223546D01*
X135760753Y-103981224D01*
X135897588Y-103731856D01*
X136037415Y-103493701D01*
X136169659Y-103285015D01*
X136283743Y-103124056D01*
X136339498Y-103057536D01*
X136429575Y-102978621D01*
X136530757Y-102932403D01*
X136657230Y-102918720D01*
X136823180Y-102937409D01*
X137042792Y-102988306D01*
X137249744Y-103047070D01*
X137470038Y-103116287D01*
X137737326Y-103206379D01*
X138040198Y-103312955D01*
X138367243Y-103431626D01*
X138707050Y-103558000D01*
X139048206Y-103687688D01*
X139379302Y-103816299D01*
X139688925Y-103939443D01*
X139965664Y-104052729D01*
X140198109Y-104151768D01*
X140374847Y-104232168D01*
X140484468Y-104289540D01*
X140492684Y-104294744D01*
X140562468Y-104367648D01*
X140587980Y-104480980D01*
X140589000Y-104522037D01*
X140581031Y-104599376D01*
X140558312Y-104749696D01*
X140522623Y-104962940D01*
X140475741Y-105229050D01*
X140419448Y-105537971D01*
X140355523Y-105879645D01*
X140285745Y-106244015D01*
X140269438Y-106328006D01*
X140199181Y-106693163D01*
X140134905Y-107035383D01*
X140078298Y-107345055D01*
X140031047Y-107612572D01*
X139994842Y-107828325D01*
X139971370Y-107982704D01*
X139962320Y-108066100D01*
X139962522Y-108074836D01*
X139978567Y-108124997D01*
X140022273Y-108173438D01*
X140106434Y-108228583D01*
X140243841Y-108298857D01*
X140440833Y-108389773D01*
X141006412Y-108621718D01*
X141604642Y-108821001D01*
X142245071Y-108989792D01*
X142937246Y-109130262D01*
X143690712Y-109244579D01*
X144515016Y-109334915D01*
X144653000Y-109347192D01*
X144890954Y-109362433D01*
X145197674Y-109373895D01*
X145557339Y-109381564D01*
X145954132Y-109385424D01*
X146372235Y-109385460D01*
X146795827Y-109381657D01*
X147209092Y-109373999D01*
X147596211Y-109362472D01*
X147879932Y-109350280D01*
X148192141Y-109332034D01*
X148477155Y-109308998D01*
X148750020Y-109278672D01*
X149025785Y-109238555D01*
X149319497Y-109186148D01*
X149646201Y-109118949D01*
X150020947Y-109034460D01*
X150458780Y-108930180D01*
X150567633Y-108903707D01*
X150971841Y-108802874D01*
X151337799Y-108706068D01*
X151684702Y-108607382D01*
X152031740Y-108500913D01*
X152398108Y-108380754D01*
X152802998Y-108241000D01*
X153265603Y-108075746D01*
X153305519Y-108061305D01*
X153805986Y-107877826D01*
X154238162Y-107713508D01*
X154614584Y-107562317D01*
X154947792Y-107418217D01*
X155250323Y-107275170D01*
X155534716Y-107127142D01*
X155813509Y-106968096D01*
X156099241Y-106791997D01*
X156404450Y-106592807D01*
X156527500Y-106510241D01*
X156946509Y-106219753D01*
X157293997Y-105962345D01*
X157568808Y-105738959D01*
X157769789Y-105550536D01*
X157895786Y-105398016D01*
X157900637Y-105390499D01*
X158000395Y-105197909D01*
X158097761Y-104947309D01*
X158184334Y-104665144D01*
X158251714Y-104377857D01*
X158283128Y-104186567D01*
X158304759Y-103948566D01*
X158318361Y-103648032D01*
X158324135Y-103306695D01*
X158322282Y-102946289D01*
X158313004Y-102588543D01*
X158296502Y-102255190D01*
X158272979Y-101967962D01*
X158261665Y-101870985D01*
X158144073Y-101134053D01*
X157988832Y-100431920D01*
X157798768Y-99771992D01*
X157576708Y-99161676D01*
X157325479Y-98608379D01*
X157047906Y-98119508D01*
X156746817Y-97702471D01*
X156612173Y-97548523D01*
X156357930Y-97305781D01*
X156118374Y-97141586D01*
X155887391Y-97052413D01*
X155717205Y-97032647D01*
X155654157Y-97033896D01*
X155596629Y-97042064D01*
X155534554Y-97063293D01*
X155457862Y-97103724D01*
X155356487Y-97169498D01*
X155220359Y-97266756D01*
X155039411Y-97401640D01*
X154803575Y-97580292D01*
X154739224Y-97629195D01*
X154276733Y-97955254D01*
X153802658Y-98241625D01*
X153329238Y-98482692D01*
X152868714Y-98672838D01*
X152433324Y-98806446D01*
X152035308Y-98877897D01*
X152013896Y-98879991D01*
X151716001Y-98907677D01*
X151745895Y-99408534D01*
X151749003Y-99529330D01*
X151748417Y-99713078D01*
X151744584Y-99948422D01*
X151737953Y-100224008D01*
X151728971Y-100528479D01*
X151718086Y-100850479D01*
X151705745Y-101178654D01*
X151692398Y-101501648D01*
X151678491Y-101808105D01*
X151664474Y-102086670D01*
X151650792Y-102325986D01*
X151637895Y-102514698D01*
X151626231Y-102641451D01*
X151616271Y-102694854D01*
X151575850Y-102711809D01*
X151468871Y-102751610D01*
X151308780Y-102809386D01*
X151109023Y-102880271D01*
X150954269Y-102934567D01*
X150541008Y-103070694D01*
X150160383Y-103176315D01*
X149791698Y-103254669D01*
X149414259Y-103308998D01*
X149007369Y-103342541D01*
X148550332Y-103358538D01*
X148230166Y-103361067D01*
X147832874Y-103357665D01*
X147507463Y-103346242D01*
X147241377Y-103324967D01*
X147022057Y-103292010D01*
X146836945Y-103245541D01*
X146673483Y-103183731D01*
X146535710Y-103114150D01*
X146367500Y-103019884D01*
X146336758Y-101814642D01*
X146327800Y-101490794D01*
X146317991Y-101183463D01*
X146307860Y-100906087D01*
X146297939Y-100672104D01*
X146288756Y-100494953D01*
X146280841Y-100388071D01*
X146280349Y-100383577D01*
X146254681Y-100157754D01*
X145273924Y-100187213D01*
X144724518Y-100194293D01*
X144178652Y-100181284D01*
X143626354Y-100146776D01*
X143057654Y-100089361D01*
X142462582Y-100007630D01*
X141831168Y-99900173D01*
X141153441Y-99765581D01*
X140419433Y-99602446D01*
X139619171Y-99409358D01*
X139424833Y-99360598D01*
X138813010Y-99203254D01*
X138268435Y-99056392D01*
X137775165Y-98914773D01*
X137317254Y-98773160D01*
X136878757Y-98626312D01*
X136443729Y-98468991D01*
X135996224Y-98295958D01*
X135520298Y-98101973D01*
X135255000Y-97990535D01*
X135015809Y-97898201D01*
X134828573Y-97850786D01*
X134673964Y-97847527D01*
X134532654Y-97887658D01*
X134406038Y-97956920D01*
X134130698Y-98175992D01*
X133858865Y-98478340D01*
X133591547Y-98862614D01*
X133329752Y-99327459D01*
X133221351Y-99547102D01*
X132971288Y-100130868D01*
X132756211Y-100751206D01*
X132577904Y-101395516D01*
X132438153Y-102051198D01*
X132338741Y-102705652D01*
X132281456Y-103346278D01*
X132268080Y-103960477D01*
X132173446Y-103960477D01*
X132179633Y-103466900D01*
X132228229Y-102743682D01*
X132317805Y-102066405D01*
X132453937Y-101404098D01*
X132642203Y-100725792D01*
X132713293Y-100503567D01*
X132921703Y-99928084D01*
X133148948Y-99407535D01*
X133391947Y-98946369D01*
X133647623Y-98549034D01*
X133912897Y-98219976D01*
X134184689Y-97963646D01*
X134459922Y-97784490D01*
X134647551Y-97708994D01*
X134735180Y-97686503D01*
X134811674Y-97682413D01*
X134899638Y-97701253D01*
X135021680Y-97747555D01*
X135175746Y-97814849D01*
X135686367Y-98036703D01*
X136170110Y-98234022D01*
X136646337Y-98413584D01*
X137134411Y-98582167D01*
X137653694Y-98746549D01*
X138223548Y-98913506D01*
X138662833Y-99035520D01*
X139057074Y-99141113D01*
X139457750Y-99244881D01*
X139856193Y-99344869D01*
X140243737Y-99439122D01*
X140611717Y-99525687D01*
X140951465Y-99602608D01*
X141254316Y-99667932D01*
X141511603Y-99719704D01*
X141714661Y-99755970D01*
X141854822Y-99774775D01*
X141923421Y-99774165D01*
X141927573Y-99771771D01*
X141930812Y-99726412D01*
X141931776Y-99604678D01*
X141930591Y-99414824D01*
X141927383Y-99165108D01*
X141922278Y-98863787D01*
X141915401Y-98519116D01*
X141906878Y-98139354D01*
X141896835Y-97732756D01*
X141896020Y-97701248D01*
X141872373Y-96123143D01*
X141875315Y-95736392D01*
X141995288Y-95736392D01*
X141996010Y-96162002D01*
X141998657Y-96600196D01*
X142003058Y-97042229D01*
X142009040Y-97479356D01*
X142016432Y-97902831D01*
X142025061Y-98303912D01*
X142034755Y-98673851D01*
X142045343Y-99003906D01*
X142056652Y-99285330D01*
X142068510Y-99509380D01*
X142080745Y-99667310D01*
X142093185Y-99750376D01*
X142094695Y-99754928D01*
X142158987Y-99811556D01*
X142304597Y-99863672D01*
X142528279Y-99910921D01*
X142826786Y-99952946D01*
X143196872Y-99989391D01*
X143635290Y-100019901D01*
X144138795Y-100044120D01*
X144704139Y-100061692D01*
X144938750Y-100066631D01*
X146388666Y-100093380D01*
X146391277Y-100478390D01*
X146393502Y-100636453D01*
X146398244Y-100860336D01*
X146405024Y-101131246D01*
X146413360Y-101430388D01*
X146422773Y-101738969D01*
X146426167Y-101843720D01*
X146437886Y-102185795D01*
X146450255Y-102453621D01*
X146466893Y-102657561D01*
X146491419Y-102807982D01*
X146527451Y-102915248D01*
X146578608Y-102989724D01*
X146648508Y-103041776D01*
X146740770Y-103081767D01*
X146859013Y-103120064D01*
X146873298Y-103124475D01*
X147290720Y-103220650D01*
X147774664Y-103273005D01*
X148319119Y-103281390D01*
X148918072Y-103245656D01*
X149415500Y-103187580D01*
X149805996Y-103125462D01*
X150160472Y-103050737D01*
X150512826Y-102954957D01*
X150896961Y-102829674D01*
X151006778Y-102791028D01*
X151497390Y-102616253D01*
X151550695Y-101930326D01*
X151566080Y-101697049D01*
X151581498Y-101399325D01*
X151596145Y-101057370D01*
X151609217Y-100691399D01*
X151619909Y-100321628D01*
X151626364Y-100028228D01*
X151648729Y-98812057D01*
X151780948Y-98791840D01*
X151904653Y-98774193D01*
X152061445Y-98753413D01*
X152124833Y-98745415D01*
X152469673Y-98675137D01*
X152857228Y-98547708D01*
X153274454Y-98369691D01*
X153708303Y-98147647D01*
X154145732Y-97888136D01*
X154573694Y-97597722D01*
X154894589Y-97352313D01*
X155107852Y-97182913D01*
X155271157Y-97061735D01*
X155398122Y-96981089D01*
X155502368Y-96933285D01*
X155597514Y-96910631D01*
X155686094Y-96905391D01*
X155964804Y-96946812D01*
X156242625Y-97068975D01*
X156516937Y-97267972D01*
X156785120Y-97539897D01*
X157044553Y-97880841D01*
X157292615Y-98286898D01*
X157526688Y-98754160D01*
X157744150Y-99278721D01*
X157942382Y-99856672D01*
X158118763Y-100484107D01*
X158138192Y-100561955D01*
X158230260Y-100953488D01*
X158301489Y-101303595D01*
X158354246Y-101633410D01*
X158390896Y-101964067D01*
X158413806Y-102316699D01*
X158425343Y-102712440D01*
X158427921Y-103149400D01*
X158420843Y-103661061D01*
X158398962Y-104099048D01*
X158358380Y-104473650D01*
X158295200Y-104795152D01*
X158205524Y-105073843D01*
X158085455Y-105320011D01*
X157931095Y-105543943D01*
X157738547Y-105755926D01*
X157503914Y-105966248D01*
X157299517Y-106127917D01*
X156937308Y-106388832D01*
X156521546Y-106663994D01*
X156077811Y-106937542D01*
X155631684Y-107193615D01*
X155276879Y-107382045D01*
X154802317Y-107607069D01*
X154257312Y-107837205D01*
X153655576Y-108068282D01*
X153010823Y-108296128D01*
X152336765Y-108516573D01*
X151647115Y-108725445D01*
X150955586Y-108918572D01*
X150275891Y-109091782D01*
X149621742Y-109240905D01*
X149006853Y-109361768D01*
X148505333Y-109441967D01*
X148345522Y-109457367D01*
X148113577Y-109470265D01*
X147821991Y-109480650D01*
X147483261Y-109488510D01*
X147109881Y-109493832D01*
X146714347Y-109496604D01*
X146309153Y-109496815D01*
X145906795Y-109494451D01*
X145519767Y-109489502D01*
X145160566Y-109481954D01*
X144841685Y-109471795D01*
X144575620Y-109459015D01*
X144399000Y-109445956D01*
X144172909Y-109425639D01*
X143955999Y-109407611D01*
X143773888Y-109393916D01*
X143658166Y-109386857D01*
X143446500Y-109377258D01*
X143458003Y-109522995D01*
X143477864Y-109656780D01*
X143520282Y-109859790D01*
X143582095Y-110120586D01*
X143660141Y-110427729D01*
X143751257Y-110769779D01*
X143852281Y-111135297D01*
X143960050Y-111512842D01*
X144071401Y-111890976D01*
X144183171Y-112258259D01*
X144292199Y-112603251D01*
X144395322Y-112914512D01*
X144396876Y-112919064D01*
X144519512Y-113269975D01*
X144646956Y-113619833D01*
X144773292Y-113953397D01*
X144892603Y-114255432D01*
X144998974Y-114510699D01*
X145086488Y-114703960D01*
X145102442Y-114736285D01*
X145158740Y-114841061D01*
X145218233Y-114929723D01*
X145293015Y-115013288D01*
X145395182Y-115102778D01*
X145536827Y-115209211D01*
X145730045Y-115343608D01*
X145881503Y-115446120D01*
X146750842Y-115990331D01*
X147621497Y-116453333D01*
X148491659Y-116834347D01*
X149359518Y-117132592D01*
X150223264Y-117347289D01*
X150346833Y-117371209D01*
X150541038Y-117396092D01*
X150798955Y-117412744D01*
X151101241Y-117421456D01*
X151428551Y-117422523D01*
X151761542Y-117416239D01*
X152080872Y-117402895D01*
X152367197Y-117382786D01*
X152601173Y-117356205D01*
X152717500Y-117335264D01*
X153354564Y-117158353D01*
X153942854Y-116922892D01*
X154494239Y-116622391D01*
X155020584Y-116250361D01*
X155533757Y-115800314D01*
X155545840Y-115788664D01*
X155988136Y-115336219D01*
X156370318Y-114887155D01*
X156708394Y-114419366D01*
X157018367Y-113910745D01*
X157310125Y-113351733D01*
X157685038Y-112507764D01*
X158011171Y-111610814D01*
X158289442Y-110657209D01*
X158520769Y-109643276D01*
X158706074Y-108565340D01*
X158846273Y-107419727D01*
X158877566Y-107086400D01*
X158898063Y-106796879D01*
X158915527Y-106437514D01*
X158929799Y-106023077D01*
X158940723Y-105568341D01*
X158948141Y-105088081D01*
X158951894Y-104597068D01*
X158951824Y-104110076D01*
X158947775Y-103641877D01*
X158939587Y-103207246D01*
X158927104Y-102820956D01*
X158923917Y-102747233D01*
X158872760Y-101805687D01*
X158805570Y-100898713D01*
X158720264Y-100010927D01*
X158614761Y-99126944D01*
X158486981Y-98231380D01*
X158334843Y-97308850D01*
X158156264Y-96343970D01*
X157949165Y-95321355D01*
X157867359Y-94936733D01*
X157666992Y-94005400D01*
X155036990Y-93984233D01*
X154572889Y-93980110D01*
X154134120Y-93975461D01*
X153727965Y-93970412D01*
X153361705Y-93965090D01*
X153042621Y-93959621D01*
X152777996Y-93954131D01*
X152575110Y-93948747D01*
X152441245Y-93943596D01*
X152383682Y-93938803D01*
X152382085Y-93938130D01*
X152414276Y-93929170D01*
X152523212Y-93920066D01*
X152700970Y-93910984D01*
X152939630Y-93902090D01*
X153231270Y-93893548D01*
X153567967Y-93885523D01*
X153941801Y-93878182D01*
X154344850Y-93871688D01*
X154769192Y-93866209D01*
X155206905Y-93861908D01*
X155650068Y-93858951D01*
X156090760Y-93857503D01*
X156252333Y-93857383D01*
X156680238Y-93858126D01*
X157121741Y-93860266D01*
X157568970Y-93863658D01*
X158014055Y-93868156D01*
X158449123Y-93873615D01*
X158866302Y-93879890D01*
X159257722Y-93886835D01*
X159615511Y-93894306D01*
X159931797Y-93902157D01*
X160198709Y-93910243D01*
X160408374Y-93918419D01*
X160552923Y-93926539D01*
X160624482Y-93934458D01*
X160630568Y-93938171D01*
X160583759Y-93944776D01*
X160462416Y-93952007D01*
X160276664Y-93959535D01*
X160036630Y-93967029D01*
X159752442Y-93974161D01*
X159434225Y-93980601D01*
X159215653Y-93984233D01*
X158881057Y-93989945D01*
X158574131Y-93996371D01*
X158304967Y-94003206D01*
X158083658Y-94010146D01*
X157920296Y-94016887D01*
X157824973Y-94023125D01*
X157804296Y-94026750D01*
X157803709Y-94074910D01*
X157820814Y-94184314D01*
X157852147Y-94334226D01*
X157864424Y-94386584D01*
X157895466Y-94523252D01*
X157939349Y-94727052D01*
X157992752Y-94982004D01*
X158052351Y-95272130D01*
X158114825Y-95581451D01*
X158159225Y-95804567D01*
X158365316Y-96891144D01*
X158541395Y-97918336D01*
X158689892Y-98904962D01*
X158813238Y-99869840D01*
X158913865Y-100831790D01*
X158994203Y-101809629D01*
X159050284Y-102702535D01*
X159063619Y-103018934D01*
X159072983Y-103394591D01*
X159078525Y-103814906D01*
X159080395Y-104265279D01*
X159078743Y-104731111D01*
X159073718Y-105197801D01*
X159065470Y-105650750D01*
X159054148Y-106075358D01*
X159039902Y-106457026D01*
X159022882Y-106781152D01*
X159006233Y-107001733D01*
X158874560Y-108171220D01*
X158700575Y-109279113D01*
X158484863Y-110323438D01*
X158228008Y-111302223D01*
X157930593Y-112213493D01*
X157593204Y-113055278D01*
X157216423Y-113825602D01*
X156800835Y-114522492D01*
X156764170Y-114577636D01*
X156662390Y-114733013D01*
X156583223Y-114860817D01*
X156535677Y-114946038D01*
X156526545Y-114973556D01*
X156580853Y-114980498D01*
X156699071Y-114971053D01*
X156862736Y-114948418D01*
X157053387Y-114915790D01*
X157252560Y-114876366D01*
X157441796Y-114833342D01*
X157602632Y-114789916D01*
X157622430Y-114783798D01*
X158048190Y-114621301D01*
X158509526Y-114392996D01*
X158996692Y-114104586D01*
X159499941Y-113761775D01*
X159935333Y-113430066D01*
X160133573Y-113262530D01*
X160369867Y-113048436D01*
X160628965Y-112802931D01*
X160895620Y-112541163D01*
X161154583Y-112278277D01*
X161390606Y-112029421D01*
X161588440Y-111809744D01*
X161697537Y-111679567D01*
X162305440Y-110856313D01*
X162867340Y-109964467D01*
X163382069Y-109007259D01*
X163848455Y-107987919D01*
X164265327Y-106909677D01*
X164631516Y-105775765D01*
X164945851Y-104589412D01*
X165207162Y-103353849D01*
X165414277Y-102072307D01*
X165531967Y-101096233D01*
X165548259Y-100884958D01*
X165561728Y-100600639D01*
X165572418Y-100254847D01*
X165580374Y-99859158D01*
X165585641Y-99425142D01*
X165588263Y-98964375D01*
X165588287Y-98488429D01*
X165585755Y-98008877D01*
X165580714Y-97537293D01*
X165573208Y-97085249D01*
X165563281Y-96664320D01*
X165550979Y-96286077D01*
X165536347Y-95962094D01*
X165519429Y-95703946D01*
X165510715Y-95608785D01*
X165309783Y-94022066D01*
X165041032Y-92473067D01*
X164705356Y-90964094D01*
X164303648Y-89497452D01*
X163836802Y-88075447D01*
X163305710Y-86700384D01*
X162711266Y-85374568D01*
X162054363Y-84100306D01*
X161335895Y-82879902D01*
X160556755Y-81715662D01*
X159717836Y-80609891D01*
X159681148Y-80564567D01*
X159456422Y-80300324D01*
X159182337Y-79998315D01*
X158873060Y-79672606D01*
X158542759Y-79337266D01*
X158205598Y-79006361D01*
X157875747Y-78693958D01*
X157567372Y-78414126D01*
X157294640Y-78180932D01*
X157219751Y-78120474D01*
X156452132Y-77547428D01*
X155690568Y-77052586D01*
X154925957Y-76630856D01*
X154149197Y-76277142D01*
X153485936Y-76030625D01*
X153092886Y-75907105D01*
X152710271Y-75805739D01*
X152320197Y-75723354D01*
X151904771Y-75656779D01*
X151446101Y-75602844D01*
X150926292Y-75558377D01*
X150752517Y-75546192D01*
X150353868Y-75519438D01*
X150530679Y-75730619D01*
X150735821Y-76019691D01*
X150868160Y-76318633D01*
X150937472Y-76652205D01*
X150949157Y-76790316D01*
X150960985Y-76963874D01*
X150979343Y-77089526D01*
X151014035Y-77195429D01*
X151074865Y-77309742D01*
X151171638Y-77460621D01*
X151194668Y-77495400D01*
X151372583Y-77776522D01*
X151577074Y-78123579D01*
X151809308Y-78538729D01*
X152070455Y-79024125D01*
X152361684Y-79581924D01*
X152684162Y-80214282D01*
X152881398Y-80606900D01*
X153289664Y-81433497D01*
X153660315Y-82205920D01*
X154001156Y-82941447D01*
X154319993Y-83657356D01*
X154624631Y-84370925D01*
X154922875Y-85099432D01*
X155013692Y-85327067D01*
X155097970Y-85536727D01*
X155173218Y-85718710D01*
X155233178Y-85858275D01*
X155271595Y-85940683D01*
X155280472Y-85955528D01*
X155300788Y-85953235D01*
X155336578Y-85913132D01*
X155390224Y-85830703D01*
X155464105Y-85701431D01*
X155560599Y-85520800D01*
X155682087Y-85284293D01*
X155830948Y-84987392D01*
X156009562Y-84625582D01*
X156220307Y-84194345D01*
X156363484Y-83899747D01*
X156517953Y-83583093D01*
X156661631Y-83291817D01*
X156790205Y-83034410D01*
X156899366Y-82819366D01*
X156984802Y-82655177D01*
X157042203Y-82550334D01*
X157067250Y-82513331D01*
X157087340Y-82521034D01*
X157091888Y-82551357D01*
X157077946Y-82611489D01*
X157042566Y-82708616D01*
X156982801Y-82849926D01*
X156895704Y-83042606D01*
X156778326Y-83293845D01*
X156627722Y-83610830D01*
X156553846Y-83765306D01*
X156449901Y-83982433D01*
X156313402Y-84267659D01*
X156148314Y-84612696D01*
X155958600Y-85009255D01*
X155748224Y-85449050D01*
X155521152Y-85923791D01*
X155281347Y-86425192D01*
X155032774Y-86944965D01*
X154779396Y-87474821D01*
X154525178Y-88006473D01*
X154419783Y-88226900D01*
X154069940Y-88958488D01*
X153754744Y-89617364D01*
X153472391Y-90207236D01*
X153221076Y-90731809D01*
X152998993Y-91194790D01*
X152804338Y-91599886D01*
X152635307Y-91950802D01*
X152490094Y-92251247D01*
X152366894Y-92504925D01*
X152263903Y-92715543D01*
X152179316Y-92886808D01*
X152111327Y-93022427D01*
X152058133Y-93126105D01*
X152017928Y-93201550D01*
X151988906Y-93252467D01*
X151969265Y-93282563D01*
X151957198Y-93295545D01*
X151951475Y-93295820D01*
X151947472Y-93283434D01*
X151951169Y-93257318D01*
X151964749Y-93212659D01*
X151990392Y-93144645D01*
X152030281Y-93048463D01*
X152086600Y-92919299D01*
X152161529Y-92752343D01*
X152257251Y-92542780D01*
X152375948Y-92285799D01*
X152519803Y-91976586D01*
X152690998Y-91610329D01*
X152891715Y-91182215D01*
X153124136Y-90687432D01*
X153390444Y-90121167D01*
X153405311Y-90089567D01*
X153701238Y-89460644D01*
X153963207Y-88903741D01*
X154193195Y-88414217D01*
X154393182Y-87987429D01*
X154565145Y-87618737D01*
X154711064Y-87303498D01*
X154832916Y-87037072D01*
X154932681Y-86814816D01*
X155012337Y-86632090D01*
X155073862Y-86484251D01*
X155119236Y-86366659D01*
X155150435Y-86274671D01*
X155169440Y-86203646D01*
X155178229Y-86148944D01*
X155178779Y-86105921D01*
X155173070Y-86069937D01*
X155163081Y-86036350D01*
X155150789Y-86000518D01*
X155149722Y-85997284D01*
X155110873Y-85890133D01*
X155043823Y-85717602D01*
X154953724Y-85492130D01*
X154845728Y-85226154D01*
X154724988Y-84932114D01*
X154596657Y-84622450D01*
X154465886Y-84309600D01*
X154337829Y-84006003D01*
X154217638Y-83724099D01*
X154110465Y-83476327D01*
X154030416Y-83295067D01*
X153825149Y-82843128D01*
X153606829Y-82373850D01*
X153378608Y-81893261D01*
X153143641Y-81407391D01*
X152905079Y-80922270D01*
X152666075Y-80443928D01*
X152429784Y-79978394D01*
X152199357Y-79531699D01*
X151977947Y-79109872D01*
X151768708Y-78718943D01*
X151574792Y-78364942D01*
X151399352Y-78053898D01*
X151245542Y-77791841D01*
X151116514Y-77584802D01*
X151015421Y-77438809D01*
X150945416Y-77359894D01*
X150920322Y-77347233D01*
X150879825Y-77380702D01*
X150816666Y-77466098D01*
X150777179Y-77529585D01*
X150588786Y-77777305D01*
X150335855Y-77998594D01*
X150037992Y-78176404D01*
X150027508Y-78181388D01*
X149628841Y-78346175D01*
X149157735Y-78500609D01*
X148626080Y-78641923D01*
X148045763Y-78767347D01*
X147428673Y-78874114D01*
X146786699Y-78959454D01*
X146600333Y-78979517D01*
X146416225Y-79003993D01*
X146265743Y-79042044D01*
X146129883Y-79104026D01*
X145989645Y-79200295D01*
X145826026Y-79341208D01*
X145675179Y-79483728D01*
X145264497Y-79930940D01*
X144876019Y-80458861D01*
X144510073Y-81066409D01*
X144166983Y-81752502D01*
X143847077Y-82516058D01*
X143550680Y-83355995D01*
X143278119Y-84271231D01*
X143029720Y-85260683D01*
X142805810Y-86323270D01*
X142606714Y-87457911D01*
X142432758Y-88663521D01*
X142284269Y-89939021D01*
X142177735Y-91084400D01*
X142139646Y-91554241D01*
X142107968Y-91972638D01*
X142081939Y-92356247D01*
X142060795Y-92721725D01*
X142043774Y-93085730D01*
X142030113Y-93464916D01*
X142019048Y-93875942D01*
X142009818Y-94335464D01*
X142001658Y-94860138D01*
X142000310Y-94957900D01*
X141996664Y-95332109D01*
X141995288Y-95736392D01*
X141875315Y-95736392D01*
X141884067Y-94586156D01*
X141930667Y-93093724D01*
X142011739Y-91649288D01*
X142126848Y-90256287D01*
X142275560Y-88918160D01*
X142457440Y-87638345D01*
X142672054Y-86420283D01*
X142918968Y-85267413D01*
X143197746Y-84183173D01*
X143507955Y-83171004D01*
X143849160Y-82234344D01*
X143850244Y-82231615D01*
X144136750Y-81559258D01*
X144434066Y-80960740D01*
X144748697Y-80425341D01*
X145087145Y-79942344D01*
X145455913Y-79501028D01*
X145600063Y-79347483D01*
X145938018Y-78998233D01*
X145052092Y-78998061D01*
X144299785Y-78987712D01*
X143623860Y-78956169D01*
X143018424Y-78902226D01*
X142477587Y-78824674D01*
X141995455Y-78722309D01*
X141566138Y-78593922D01*
X141183743Y-78438308D01*
X140842379Y-78254260D01*
X140593860Y-78084979D01*
X140460994Y-77987055D01*
X140375407Y-77933873D01*
X140317310Y-77918498D01*
X140266913Y-77933996D01*
X140229148Y-77957186D01*
X140152190Y-78019051D01*
X140026616Y-78133453D01*
X139861621Y-78291072D01*
X139666399Y-78482588D01*
X139450147Y-78698682D01*
X139222057Y-78930032D01*
X138991326Y-79167319D01*
X138767148Y-79401222D01*
X138558718Y-79622422D01*
X138375230Y-79821598D01*
X138238151Y-79975315D01*
X138007772Y-80245381D01*
X137762133Y-80543686D01*
X137508039Y-80861092D01*
X137252291Y-81188457D01*
X137001693Y-81516641D01*
X136763047Y-81836502D01*
X136543156Y-82138901D01*
X136348823Y-82414696D01*
X136186850Y-82654747D01*
X136064040Y-82849913D01*
X135987196Y-82991054D01*
X135977640Y-83012719D01*
X135965111Y-83041027D01*
X135954766Y-83066797D01*
X135948296Y-83095886D01*
X135947387Y-83134150D01*
X135953728Y-83187446D01*
X135969007Y-83261630D01*
X135994912Y-83362560D01*
X136033131Y-83496092D01*
X136085352Y-83668083D01*
X136153263Y-83884389D01*
X136238552Y-84150868D01*
X136342907Y-84473375D01*
X136468017Y-84857768D01*
X136615569Y-85309904D01*
X136787251Y-85835639D01*
X136821617Y-85940900D01*
X137142779Y-86925550D01*
X137442481Y-87846220D01*
X137720302Y-88701601D01*
X137975827Y-89490384D01*
X138208634Y-90211262D01*
X138418308Y-90862926D01*
X138604428Y-91444069D01*
X138766577Y-91953381D01*
X138904336Y-92389556D01*
X139017287Y-92751283D01*
X139105011Y-93037256D01*
X139167091Y-93246166D01*
X139203106Y-93376705D01*
X139211314Y-93412733D01*
X139234813Y-93539733D01*
X139172699Y-93412733D01*
X139143321Y-93339273D01*
X139089474Y-93190019D01*
X139012741Y-92969736D01*
X138914702Y-92683191D01*
X138796940Y-92335147D01*
X138661035Y-91930371D01*
X138508571Y-91473628D01*
X138341128Y-90969684D01*
X138160287Y-90423304D01*
X137967631Y-89839253D01*
X137764742Y-89222298D01*
X137553201Y-88577202D01*
X137334589Y-87908732D01*
X137110488Y-87221654D01*
X136882480Y-86520732D01*
X136759265Y-86141165D01*
X135759981Y-83060598D01*
X136192613Y-82436999D01*
X136768052Y-81629420D01*
X137328643Y-80888840D01*
X137885713Y-80201737D01*
X138450590Y-79554591D01*
X139034603Y-78933881D01*
X139586224Y-78386393D01*
X140255615Y-77742025D01*
X140169856Y-77596675D01*
X140028085Y-77275290D01*
X139955950Y-76917029D01*
X139955846Y-76887642D01*
X140082508Y-76887642D01*
X140084352Y-77033568D01*
X140097811Y-77142650D01*
X140126327Y-77238733D01*
X140173343Y-77345661D01*
X140189676Y-77379527D01*
X140384289Y-77683666D01*
X140655704Y-77955278D01*
X141002280Y-78193702D01*
X141422377Y-78398279D01*
X141914355Y-78568347D01*
X142476575Y-78703246D01*
X143107397Y-78802315D01*
X143805180Y-78864893D01*
X143888612Y-78869664D01*
X144205052Y-78885926D01*
X144472985Y-78897154D01*
X144713201Y-78903368D01*
X144946490Y-78904588D01*
X145193643Y-78900835D01*
X145475450Y-78892128D01*
X145812703Y-78878489D01*
X145967258Y-78871680D01*
X146501197Y-78842538D01*
X146974629Y-78804384D01*
X147411489Y-78754394D01*
X147835712Y-78689745D01*
X148271231Y-78607616D01*
X148357166Y-78589816D01*
X148927655Y-78454095D01*
X149417097Y-78302484D01*
X149827919Y-78133257D01*
X150162547Y-77944690D01*
X150423407Y-77735059D01*
X150612926Y-77502638D01*
X150733531Y-77245703D01*
X150787648Y-76962531D01*
X150791333Y-76859771D01*
X150781774Y-76668686D01*
X150756925Y-76475769D01*
X150728096Y-76345327D01*
X150638900Y-76153899D01*
X150484090Y-75939612D01*
X150275704Y-75713349D01*
X150025779Y-75485993D01*
X149746353Y-75268428D01*
X149449465Y-75071536D01*
X149147153Y-74906202D01*
X149124018Y-74895103D01*
X148858757Y-74777584D01*
X148576297Y-74666782D01*
X148298036Y-74569980D01*
X148045369Y-74494461D01*
X147839695Y-74447507D01*
X147785284Y-74439463D01*
X147660377Y-74427534D01*
X147597824Y-74435276D01*
X147576221Y-74469994D01*
X147574000Y-74511562D01*
X147586680Y-74589991D01*
X147621046Y-74727917D01*
X147671578Y-74904661D01*
X147722166Y-75067009D01*
X147795802Y-75300495D01*
X147842484Y-75465111D01*
X147864175Y-75571562D01*
X147862836Y-75630555D01*
X147840430Y-75652794D01*
X147829728Y-75653900D01*
X147803476Y-75615807D01*
X147756572Y-75510374D01*
X147694267Y-75350866D01*
X147621812Y-75150549D01*
X147565854Y-74987150D01*
X147342584Y-74320400D01*
X147342605Y-74300850D01*
X147944552Y-74300850D01*
X147975328Y-74327335D01*
X148059392Y-74361811D01*
X148207575Y-74411161D01*
X148317032Y-74446089D01*
X148936962Y-74679515D01*
X149522048Y-74971877D01*
X149854183Y-75176065D01*
X150217602Y-75417875D01*
X150832551Y-75425010D01*
X151623013Y-75475322D01*
X152425843Y-75606947D01*
X153236860Y-75818163D01*
X154051882Y-76107250D01*
X154866728Y-76472486D01*
X155677217Y-76912150D01*
X156479168Y-77424521D01*
X157268398Y-78007879D01*
X157437666Y-78143748D01*
X157656457Y-78330664D01*
X157917139Y-78567534D01*
X158205871Y-78840576D01*
X158508810Y-79136007D01*
X158812116Y-79440047D01*
X159101947Y-79738912D01*
X159364460Y-80018821D01*
X159585815Y-80265991D01*
X159677623Y-80374067D01*
X160512034Y-81445679D01*
X161289767Y-82578440D01*
X162009740Y-83769642D01*
X162670873Y-85016580D01*
X163272084Y-86316548D01*
X163812291Y-87666837D01*
X164290413Y-89064743D01*
X164705369Y-90507558D01*
X165056078Y-91992575D01*
X165341458Y-93517089D01*
X165560427Y-95078393D01*
X165563666Y-95106067D01*
X165626306Y-95737815D01*
X165675443Y-96432122D01*
X165710557Y-97167878D01*
X165731127Y-97923978D01*
X165736632Y-98679312D01*
X165726553Y-99412774D01*
X165700369Y-100103256D01*
X165691003Y-100270733D01*
X165584234Y-101535991D01*
X165417803Y-102784503D01*
X165193776Y-104007988D01*
X164914223Y-105198167D01*
X164581210Y-106346759D01*
X164196805Y-107445485D01*
X163763076Y-108486064D01*
X163502688Y-109033733D01*
X163221499Y-109581050D01*
X162950507Y-110070004D01*
X162675749Y-110523381D01*
X162383262Y-110963963D01*
X162059084Y-111414536D01*
X161974569Y-111527280D01*
X161658116Y-111946494D01*
X161907974Y-111923420D01*
X162099686Y-111893854D01*
X162305110Y-111844734D01*
X162396284Y-111816072D01*
X162635252Y-111706122D01*
X162919774Y-111530146D01*
X163246208Y-111291021D01*
X163610910Y-110991625D01*
X164010237Y-110634837D01*
X164440544Y-110223536D01*
X164551350Y-110113711D01*
X165333972Y-109274884D01*
X166069782Y-108368258D01*
X166756123Y-107398278D01*
X167390338Y-106369386D01*
X167969769Y-105286027D01*
X168491759Y-104152643D01*
X168953650Y-102973678D01*
X169134091Y-102450900D01*
X169412462Y-101536870D01*
X169660360Y-100572864D01*
X169873370Y-99581746D01*
X170047078Y-98586380D01*
X170177067Y-97609631D01*
X170258922Y-96674362D01*
X170263122Y-96604376D01*
X170279778Y-96249894D01*
X170292211Y-95845843D01*
X170300419Y-95409270D01*
X170304401Y-94957225D01*
X170304155Y-94506753D01*
X170299681Y-94074904D01*
X170290977Y-93678725D01*
X170278042Y-93335262D01*
X170263385Y-93093112D01*
X170114944Y-91652896D01*
X169892921Y-90237861D01*
X169598678Y-88851444D01*
X169233577Y-87497086D01*
X168798979Y-86178223D01*
X168296246Y-84898296D01*
X167726739Y-83660743D01*
X167091822Y-82469002D01*
X166392854Y-81326511D01*
X165631199Y-80236711D01*
X164808218Y-79203039D01*
X164723610Y-79104067D01*
X163897745Y-78202109D01*
X163032861Y-77369744D01*
X162131520Y-76608486D01*
X161196281Y-75919849D01*
X160229706Y-75305347D01*
X159234355Y-74766496D01*
X158212790Y-74304808D01*
X157167572Y-73921799D01*
X156101261Y-73618983D01*
X155096624Y-73411293D01*
X154571600Y-73338847D01*
X153988549Y-73287980D01*
X153371457Y-73259239D01*
X152744309Y-73253173D01*
X152131091Y-73270328D01*
X151555789Y-73311253D01*
X151405166Y-73327001D01*
X151156067Y-73361240D01*
X150846924Y-73413200D01*
X150499413Y-73478442D01*
X150135204Y-73552530D01*
X149775972Y-73631027D01*
X149443390Y-73709494D01*
X149159131Y-73783496D01*
X149115539Y-73795779D01*
X148798670Y-73894798D01*
X148500074Y-74003942D01*
X148239751Y-74115172D01*
X148037700Y-74220450D01*
X147999532Y-74244311D01*
X147956231Y-74275470D01*
X147944552Y-74300850D01*
X147342605Y-74300850D01*
X147344087Y-72944567D01*
X147352237Y-72184162D01*
X147375063Y-71504451D01*
X147412759Y-70902707D01*
X147465519Y-70376203D01*
X147533538Y-69922214D01*
X147573372Y-69721364D01*
X147681014Y-69351614D01*
X147835034Y-69000073D01*
X148025641Y-68682653D01*
X148243041Y-68415266D01*
X148477441Y-68213822D01*
X148517098Y-68188009D01*
X148731224Y-68055067D01*
X148544195Y-68026454D01*
X148452945Y-68018797D01*
X148290112Y-68011661D01*
X148068777Y-68005353D01*
X147802025Y-68000177D01*
X147502937Y-67996440D01*
X147184597Y-67994447D01*
X147171833Y-67994409D01*
X146796339Y-67991944D01*
X146396353Y-67986855D01*
X145982121Y-67979476D01*
X145563893Y-67970139D01*
X145151915Y-67959178D01*
X144756434Y-67946924D01*
X144387700Y-67933712D01*
X144055959Y-67919874D01*
X143771459Y-67905742D01*
X143544447Y-67891651D01*
X143385171Y-67877933D01*
X143322706Y-67869352D01*
X143134325Y-67834159D01*
X143380574Y-68325613D01*
X143489730Y-68553457D01*
X143597495Y-68795631D01*
X143690413Y-69020957D01*
X143747988Y-69176900D01*
X143869154Y-69536733D01*
X143866270Y-71166567D01*
X143863209Y-71743227D01*
X143855873Y-72243419D01*
X143843754Y-72675257D01*
X143826341Y-73046855D01*
X143803127Y-73366328D01*
X143773602Y-73641790D01*
X143737256Y-73881355D01*
X143693582Y-74093138D01*
X143678953Y-74152552D01*
X143559906Y-74539562D01*
X143411758Y-74893878D01*
X143243800Y-75194810D01*
X143154900Y-75319296D01*
X143043246Y-75450163D01*
X142916591Y-75581512D01*
X142789522Y-75700363D01*
X142676628Y-75793732D01*
X142592497Y-75848639D01*
X142553471Y-75854483D01*
X142569757Y-75815338D01*
X142632587Y-75729523D01*
X142730494Y-75612033D01*
X142791130Y-75543762D01*
X142926633Y-75389160D01*
X143056349Y-75232523D01*
X143157442Y-75101659D01*
X143178088Y-75072581D01*
X143255169Y-74949903D01*
X143332199Y-74810156D01*
X143399118Y-74674177D01*
X143445867Y-74562804D01*
X143462388Y-74496874D01*
X143459825Y-74488948D01*
X143413741Y-74490702D01*
X143300803Y-74508736D01*
X143136531Y-74539749D01*
X142936442Y-74580444D01*
X142716055Y-74627522D01*
X142490889Y-74677682D01*
X142276462Y-74727627D01*
X142088293Y-74774058D01*
X141969760Y-74805704D01*
X141570482Y-74933775D01*
X141208483Y-75081247D01*
X140894548Y-75242333D01*
X140639462Y-75411246D01*
X140454009Y-75582198D01*
X140404657Y-75645593D01*
X140270577Y-75861333D01*
X140179809Y-76067655D01*
X140123975Y-76292022D01*
X140094700Y-76561900D01*
X140088837Y-76681027D01*
X140082508Y-76887642D01*
X139955846Y-76887642D01*
X139954597Y-76534796D01*
X140025173Y-76141493D01*
X140036804Y-76100076D01*
X140083098Y-75915726D01*
X140093546Y-75802552D01*
X140078983Y-75761950D01*
X140022611Y-75745138D01*
X139897741Y-75729151D01*
X139720541Y-75715456D01*
X139507178Y-75705521D01*
X139433840Y-75703374D01*
X138680147Y-75722202D01*
X137900482Y-75813535D01*
X137106738Y-75974150D01*
X136310808Y-76200824D01*
X135524584Y-76490335D01*
X134759959Y-76839458D01*
X134269386Y-77102988D01*
X133478986Y-77596167D01*
X132693290Y-78167215D01*
X131919703Y-78809374D01*
X131165629Y-79515891D01*
X130438473Y-80280008D01*
X129745639Y-81094969D01*
X129382185Y-81562036D01*
X128693027Y-82536703D01*
X128040531Y-83580869D01*
X127428465Y-84686021D01*
X126860593Y-85843645D01*
X126340682Y-87045226D01*
X125872497Y-88282251D01*
X125459805Y-89546206D01*
X125106370Y-90828576D01*
X124908224Y-91677067D01*
X124688577Y-92785708D01*
X124515855Y-93875236D01*
X124388389Y-94963804D01*
X124304512Y-96069562D01*
X124262555Y-97210663D01*
X124260850Y-98405258D01*
X124141872Y-98405258D01*
X124140269Y-98326571D01*
X124136634Y-97755016D01*
X124141431Y-97199894D01*
X124155100Y-96678019D01*
X124158584Y-96587733D01*
X124263002Y-95057351D01*
X124451092Y-93528539D01*
X124721913Y-92005869D01*
X125074525Y-90493912D01*
X125507985Y-88997239D01*
X126021354Y-87520421D01*
X126029974Y-87497610D01*
X126510077Y-86316864D01*
X127041078Y-85175347D01*
X127619719Y-84077473D01*
X128242740Y-83027652D01*
X128906885Y-82030298D01*
X129608894Y-81089822D01*
X130345509Y-80210637D01*
X131113472Y-79397154D01*
X131909525Y-78653785D01*
X132730409Y-77984944D01*
X133413500Y-77499374D01*
X134245245Y-76987955D01*
X135087399Y-76552492D01*
X135934340Y-76195554D01*
X136780451Y-75919710D01*
X136989840Y-75864064D01*
X137330815Y-75781636D01*
X137635132Y-75718615D01*
X137923240Y-75672804D01*
X138215590Y-75642005D01*
X138532631Y-75624022D01*
X138894814Y-75616656D01*
X139285902Y-75617373D01*
X140247638Y-75625797D01*
X140464372Y-75405617D01*
X140665625Y-75233351D01*
X140909356Y-75073963D01*
X141005470Y-75022353D01*
X141257264Y-74909404D01*
X141565488Y-74792198D01*
X141902932Y-74679646D01*
X142242387Y-74580653D01*
X142556646Y-74504129D01*
X142639697Y-74487314D01*
X142868158Y-74444191D01*
X143023303Y-74413338D01*
X143114478Y-74388707D01*
X143151029Y-74364251D01*
X143142303Y-74333924D01*
X143097644Y-74291677D01*
X143030111Y-74234701D01*
X142891224Y-74127157D01*
X142735091Y-74036004D01*
X142544752Y-73953835D01*
X142303244Y-73873240D01*
X142021610Y-73794201D01*
X141290518Y-73616663D01*
X140599921Y-73484780D01*
X139921525Y-73394841D01*
X139227039Y-73343134D01*
X138488170Y-73325949D01*
X138451426Y-73325929D01*
X137823490Y-73333619D01*
X137256783Y-73357932D01*
X136729026Y-73401503D01*
X136217943Y-73466971D01*
X135701258Y-73556972D01*
X135156695Y-73674145D01*
X134816689Y-73756245D01*
X133730260Y-74070768D01*
X132663783Y-74466258D01*
X131620822Y-74940619D01*
X130604939Y-75491750D01*
X129619698Y-76117556D01*
X128668663Y-76815937D01*
X127755396Y-77584797D01*
X126883462Y-78422036D01*
X126872272Y-78433507D01*
X125953558Y-79435665D01*
X125105694Y-80484129D01*
X124328750Y-81578745D01*
X123622798Y-82719358D01*
X122987907Y-83905811D01*
X122424150Y-85137949D01*
X121931596Y-86415617D01*
X121510316Y-87738660D01*
X121160381Y-89106921D01*
X120881862Y-90520245D01*
X120674829Y-91978478D01*
X120663352Y-92079233D01*
X120640960Y-92334389D01*
X120622217Y-92658782D01*
X120607194Y-93037899D01*
X120595962Y-93457225D01*
X120588593Y-93902248D01*
X120585159Y-94358452D01*
X120414764Y-94358452D01*
X120447027Y-93086864D01*
X120560344Y-91724367D01*
X120752662Y-90362869D01*
X121024161Y-89006297D01*
X121375019Y-87658578D01*
X121603828Y-86916554D01*
X122069628Y-85617063D01*
X122605332Y-84362190D01*
X123209735Y-83153889D01*
X123881630Y-81994115D01*
X124619812Y-80884822D01*
X125423075Y-79827967D01*
X126290211Y-78825503D01*
X127121369Y-77974192D01*
X128025040Y-77152726D01*
X128959623Y-76405709D01*
X129922541Y-75733914D01*
X130911218Y-75138117D01*
X131923078Y-74619091D01*
X132955545Y-74177610D01*
X134006043Y-73814449D01*
X135071996Y-73530381D01*
X136150827Y-73326181D01*
X137239962Y-73202623D01*
X138336823Y-73160482D01*
X139438835Y-73200530D01*
X140543422Y-73323544D01*
X141648007Y-73530295D01*
X141795500Y-73564314D01*
X142238671Y-73682503D01*
X142607556Y-73811669D01*
X142912255Y-73955876D01*
X143150166Y-74109527D01*
X143281131Y-74200735D01*
X143392434Y-74264787D01*
X143462480Y-74289466D01*
X143467666Y-74289103D01*
X143506870Y-74240404D01*
X143545387Y-74113121D01*
X143582630Y-73913336D01*
X143618011Y-73647132D01*
X143650943Y-73320591D01*
X143680838Y-72939796D01*
X143707109Y-72510830D01*
X143729168Y-72039775D01*
X143746429Y-71532713D01*
X143751059Y-71354901D01*
X143759319Y-70872201D01*
X143757357Y-70460210D01*
X143742775Y-70105333D01*
X143713176Y-69793975D01*
X143666163Y-69512539D01*
X143599338Y-69247431D01*
X143510303Y-68985055D01*
X143396663Y-68711816D01*
X143256018Y-68414118D01*
X143219545Y-68340653D01*
X143123292Y-68145288D01*
X143039200Y-67969319D01*
X142975675Y-67830706D01*
X142941124Y-67747410D01*
X142939307Y-67741928D01*
X142926596Y-67697533D01*
X142929591Y-67669427D01*
X142960802Y-67657436D01*
X143032739Y-67661385D01*
G36*
X135719631Y-82650263D02*
G01*
X135720666Y-82653474D01*
X135703041Y-82694084D01*
X135653637Y-82799908D01*
X135577663Y-82960000D01*
X135480327Y-83163414D01*
X135366837Y-83399203D01*
X135302724Y-83531891D01*
X135222215Y-83698864D01*
X135108688Y-83935175D01*
X134965535Y-84233722D01*
X134796153Y-84587406D01*
X134603935Y-84989128D01*
X134392276Y-85431789D01*
X134164571Y-85908288D01*
X133924214Y-86411526D01*
X133674601Y-86934405D01*
X133419126Y-87469823D01*
X133169106Y-87994067D01*
X132811038Y-88744945D01*
X132487554Y-89423032D01*
X132196874Y-90031996D01*
X131937218Y-90575506D01*
X131706805Y-91057230D01*
X131503856Y-91480837D01*
X131326590Y-91849994D01*
X131173227Y-92168371D01*
X131041987Y-92439636D01*
X130931091Y-92667458D01*
X130838757Y-92855504D01*
X130763205Y-93007444D01*
X130702657Y-93126945D01*
X130655330Y-93217677D01*
X130619447Y-93283308D01*
X130593225Y-93327506D01*
X130574885Y-93353939D01*
X130562648Y-93366277D01*
X130562059Y-93366655D01*
X130518444Y-93376694D01*
X130513666Y-93366782D01*
X130531813Y-93316932D01*
X130585198Y-93194191D01*
X130672235Y-93001908D01*
X130791340Y-92743431D01*
X130940928Y-92422110D01*
X131119413Y-92041293D01*
X131325211Y-91604329D01*
X131556736Y-91114568D01*
X131812403Y-90575357D01*
X132090629Y-89990047D01*
X132389826Y-89361985D01*
X132708412Y-88694522D01*
X133044799Y-87991004D01*
X133397405Y-87254782D01*
X133764642Y-86489205D01*
X134048338Y-85898567D01*
X134330497Y-85311874D01*
X134578481Y-84797254D01*
X134794484Y-84350321D01*
X134980700Y-83966689D01*
X135139321Y-83641972D01*
X135272541Y-83371785D01*
X135382554Y-83151742D01*
X135471553Y-82977458D01*
X135541732Y-82844546D01*
X135595283Y-82748622D01*
X135634401Y-82685300D01*
X135661279Y-82650193D01*
X135678110Y-82638917D01*
X135678636Y-82638900D01*
X135719631Y-82650263D01*
G37*
X135719631Y-82650263D02*
X135720666Y-82653474D01*
X135703041Y-82694084D01*
X135653637Y-82799908D01*
X135577663Y-82960000D01*
X135480327Y-83163414D01*
X135366837Y-83399203D01*
X135302724Y-83531891D01*
X135222215Y-83698864D01*
X135108688Y-83935175D01*
X134965535Y-84233722D01*
X134796153Y-84587406D01*
X134603935Y-84989128D01*
X134392276Y-85431789D01*
X134164571Y-85908288D01*
X133924214Y-86411526D01*
X133674601Y-86934405D01*
X133419126Y-87469823D01*
X133169106Y-87994067D01*
X132811038Y-88744945D01*
X132487554Y-89423032D01*
X132196874Y-90031996D01*
X131937218Y-90575506D01*
X131706805Y-91057230D01*
X131503856Y-91480837D01*
X131326590Y-91849994D01*
X131173227Y-92168371D01*
X131041987Y-92439636D01*
X130931091Y-92667458D01*
X130838757Y-92855504D01*
X130763205Y-93007444D01*
X130702657Y-93126945D01*
X130655330Y-93217677D01*
X130619447Y-93283308D01*
X130593225Y-93327506D01*
X130574885Y-93353939D01*
X130562648Y-93366277D01*
X130562059Y-93366655D01*
X130518444Y-93376694D01*
X130513666Y-93366782D01*
X130531813Y-93316932D01*
X130585198Y-93194191D01*
X130672235Y-93001908D01*
X130791340Y-92743431D01*
X130940928Y-92422110D01*
X131119413Y-92041293D01*
X131325211Y-91604329D01*
X131556736Y-91114568D01*
X131812403Y-90575357D01*
X132090629Y-89990047D01*
X132389826Y-89361985D01*
X132708412Y-88694522D01*
X133044799Y-87991004D01*
X133397405Y-87254782D01*
X133764642Y-86489205D01*
X134048338Y-85898567D01*
X134330497Y-85311874D01*
X134578481Y-84797254D01*
X134794484Y-84350321D01*
X134980700Y-83966689D01*
X135139321Y-83641972D01*
X135272541Y-83371785D01*
X135382554Y-83151742D01*
X135471553Y-82977458D01*
X135541732Y-82844546D01*
X135595283Y-82748622D01*
X135634401Y-82685300D01*
X135661279Y-82650193D01*
X135678110Y-82638917D01*
X135678636Y-82638900D01*
X135719631Y-82650263D01*
G36*
X157307255Y-83043258D02*
G01*
X157356087Y-83133925D01*
X157376849Y-83202742D01*
X157396278Y-83272076D01*
X157439166Y-83412259D01*
X157502462Y-83613728D01*
X157583117Y-83866922D01*
X157678081Y-84162279D01*
X157784305Y-84490237D01*
X157898739Y-84841234D01*
X157926123Y-84924900D01*
X158182186Y-85707393D01*
X158433142Y-86475713D01*
X158677589Y-87225502D01*
X158914123Y-87952405D01*
X159141341Y-88652063D01*
X159357842Y-89320119D01*
X159562221Y-89952216D01*
X159753077Y-90543997D01*
X159929006Y-91091105D01*
X160088605Y-91589183D01*
X160230472Y-92033873D01*
X160353205Y-92420818D01*
X160455399Y-92745662D01*
X160535653Y-93004046D01*
X160592563Y-93191614D01*
X160624726Y-93304009D01*
X160628164Y-93317483D01*
X160637728Y-93400591D01*
X160620969Y-93433900D01*
X160602625Y-93394630D01*
X160560173Y-93280807D01*
X160495634Y-93098415D01*
X160411029Y-92853435D01*
X160308377Y-92551849D01*
X160189699Y-92199639D01*
X160057017Y-91802788D01*
X159912350Y-91367277D01*
X159757718Y-90899089D01*
X159595143Y-90404205D01*
X159516420Y-90163650D01*
X159330916Y-89596118D01*
X159138156Y-89006397D01*
X158941968Y-88406198D01*
X158746181Y-87807234D01*
X158554622Y-87221217D01*
X158371122Y-86659859D01*
X158199508Y-86134872D01*
X158043608Y-85657969D01*
X157907252Y-85240861D01*
X157818432Y-84969177D01*
X157692861Y-84582987D01*
X157576549Y-84221204D01*
X157471965Y-83891799D01*
X157381577Y-83602741D01*
X157307852Y-83362002D01*
X157253260Y-83177551D01*
X157220268Y-83057358D01*
X157211346Y-83009394D01*
X157211443Y-83009204D01*
X157253727Y-82995467D01*
X157307255Y-83043258D01*
G37*
X157307255Y-83043258D02*
X157356087Y-83133925D01*
X157376849Y-83202742D01*
X157396278Y-83272076D01*
X157439166Y-83412259D01*
X157502462Y-83613728D01*
X157583117Y-83866922D01*
X157678081Y-84162279D01*
X157784305Y-84490237D01*
X157898739Y-84841234D01*
X157926123Y-84924900D01*
X158182186Y-85707393D01*
X158433142Y-86475713D01*
X158677589Y-87225502D01*
X158914123Y-87952405D01*
X159141341Y-88652063D01*
X159357842Y-89320119D01*
X159562221Y-89952216D01*
X159753077Y-90543997D01*
X159929006Y-91091105D01*
X160088605Y-91589183D01*
X160230472Y-92033873D01*
X160353205Y-92420818D01*
X160455399Y-92745662D01*
X160535653Y-93004046D01*
X160592563Y-93191614D01*
X160624726Y-93304009D01*
X160628164Y-93317483D01*
X160637728Y-93400591D01*
X160620969Y-93433900D01*
X160602625Y-93394630D01*
X160560173Y-93280807D01*
X160495634Y-93098415D01*
X160411029Y-92853435D01*
X160308377Y-92551849D01*
X160189699Y-92199639D01*
X160057017Y-91802788D01*
X159912350Y-91367277D01*
X159757718Y-90899089D01*
X159595143Y-90404205D01*
X159516420Y-90163650D01*
X159330916Y-89596118D01*
X159138156Y-89006397D01*
X158941968Y-88406198D01*
X158746181Y-87807234D01*
X158554622Y-87221217D01*
X158371122Y-86659859D01*
X158199508Y-86134872D01*
X158043608Y-85657969D01*
X157907252Y-85240861D01*
X157818432Y-84969177D01*
X157692861Y-84582987D01*
X157576549Y-84221204D01*
X157471965Y-83891799D01*
X157381577Y-83602741D01*
X157307852Y-83362002D01*
X157253260Y-83177551D01*
X157220268Y-83057358D01*
X157211346Y-83009394D01*
X157211443Y-83009204D01*
X157253727Y-82995467D01*
X157307255Y-83043258D01*
D11*
%TO.C,D1*%
X133314000Y-92354900D02*
X133314000Y-92510900D01*
X133314000Y-90038900D02*
X133314000Y-90194900D01*
X136546335Y-90196292D02*
G75*
G03*
X133314000Y-90039384I-1672335J-1078608D01*
G01*
X136546335Y-92353508D02*
G75*
G02*
X133314000Y-92510416I-1672335J1078608D01*
G01*
X135915130Y-90195063D02*
G75*
G03*
X133833039Y-90194900I-1041130J-1079837D01*
G01*
X135915130Y-92354737D02*
G75*
G02*
X133833039Y-92354900I-1041130J1079837D01*
G01*
%TO.C,D2*%
X158341500Y-92612500D02*
X158341500Y-92456500D01*
X158341500Y-90296500D02*
X158341500Y-90140500D01*
X155740370Y-90296663D02*
G75*
G02*
X157822461Y-90296500I1041130J-1079837D01*
G01*
X155740370Y-92456337D02*
G75*
G03*
X157822461Y-92456500I1041130J1079837D01*
G01*
X155109165Y-90297892D02*
G75*
G02*
X158341500Y-90140984I1672335J-1078608D01*
G01*
X155109165Y-92455108D02*
G75*
G03*
X158341500Y-92612016I1672335J1078608D01*
G01*
%TD*%
M02*
