<?xml version="1.0" encoding="UTF-8" standalone="no"?>
<svg
   xmlns:dc="http://purl.org/dc/elements/1.1/"
   xmlns:cc="http://creativecommons.org/ns#"
   xmlns:rdf="http://www.w3.org/1999/02/22-rdf-syntax-ns#"
   xmlns:svg="http://www.w3.org/2000/svg"
   xmlns="http://www.w3.org/2000/svg"
   xmlns:sodipodi="http://sodipodi.sourceforge.net/DTD/sodipodi-0.dtd"
   xmlns:inkscape="http://www.inkscape.org/namespaces/inkscape"
   version="1.1"
   id="svg2"
   width="100.0mm"
   height="100.0mm"
   viewBox="0 0 100.0 100.0"
   sodipodi:docname="new_pump.svg"
   inkscape:version="1.0.2 (e86c870879, 2021-01-15)">
  <metadata
     id="metadata8">
    <rdf:RDF>
      <cc:Work
         rdf:about="">
        <dc:format>image/svg+xml</dc:format>
        <dc:type
           rdf:resource="http://purl.org/dc/dcmitype/StillImage" />
        <dc:title />
      </cc:Work>
    </rdf:RDF>
  </metadata>
  <defs
     id="defs6" />
  <sodipodi:namedview
     pagecolor="#ffffff"
     bordercolor="#666666"
     borderopacity="1"
     objecttolerance="10"
     gridtolerance="10"
     guidetolerance="10"
     inkscape:pageopacity="0"
     inkscape:pageshadow="2"
     inkscape:window-width="1366"
     inkscape:window-height="694"
     id="namedview4"
     showgrid="false"
     inkscape:zoom="1.8123958"
     inkscape:cx="188.97638"
     inkscape:cy="252.3535"
     inkscape:window-x="0"
     inkscape:window-y="0"
     inkscape:window-maximized="1"
     inkscape:current-layer="g846"
     inkscape:document-units="mm"
     inkscape:document-rotation="0" />
  <g
     inkscape:groupmode="layer"
     inkscape:label="Image"
     id="g10" />
  <g
     inkscape:label="[fixed] BG"
     inkscape:groupmode="layer"
     sodipodi:insensitive="true"
     id="g844">
    <rect
       x="0"
       y="0"
       width="160.0"
       height="120.0"
       style="fill:#FFFFFF;fill-opacity:1;stroke:none"
       id="rect842" />
  </g>
  <g
     inkscape:label="Edge.Cuts"
     inkscape:groupmode="layer"
     id="g846"
     style="display:inline">
    <path
       style="fill:#000000;stroke-width:0.0457906"
       d="M 46.1213 91.9625 L 45.8213 91.9055 L 45.5283 91.8385 L 45.2413 91.7605 L 44.9603 91.6715 L 44.6813 91.5705 L 44.4063 91.4585 L 44.1333 91.3335 L 43.8613 91.1965 L 43.5363 91.0115 L 43.2013 90.7945 L 42.8653 90.5505 L 42.5303 90.2865 L 42.2063 90.0065 L 41.9013 89.7175 L 41.6183 89.4245 L 41.3683 89.1335 L 41.1953 88.9245 L 41.0763 88.8065 L 41.0253 88.7725 L 40.9753 88.7495 L 40.8533 88.7235 L 40.6903 88.6895 L 40.4833 88.6325 L 39.9923 88.4635 L 39.4723 88.2525 L 39.2293 88.1415 L 39.0153 88.0325 L 38.7203 87.8675 L 38.4313 87.6935 L 38.1473 87.5095 L 37.8693 87.3165 L 37.5963 87.1135 L 37.3283 86.9015 L 37.0653 86.6795 L 36.8083 86.4475 L 36.5553 86.2055 L 36.3083 85.9535 L 36.0663 85.6915 L 35.8293 85.4205 L 35.5963 85.1385 L 35.3693 84.8475 L 35.1463 84.5455 L 34.9283 84.2335 L 34.7403 83.9405 L 34.7213 83.8945 L 34.7473 83.9115 L 34.9173 84.1145 L 35.2173 84.5165 L 35.4483 84.8235 L 35.7203 85.1555 L 36.0183 85.5005 L 36.3323 85.8445 L 36.6493 86.1745 L 36.9563 86.4785 L 37.2423 86.7425 L 37.4953 86.9535 L 37.8953 87.2485 L 38.3173 87.5285 L 38.7533 87.7885 L 39.1943 88.0245 L 39.6333 88.2335 L 40.0603 88.4105 L 40.4703 88.5515 L 40.8513 88.6515 L 40.9983 88.6915 L 41.0583 88.7195 L 41.1163 88.7605 L 41.2563 88.8975 L 41.4663 89.1445 L 41.6833 89.3935 L 41.9083 89.6325 L 42.1453 89.8635 L 42.3883 90.0835 L 42.6403 90.2945 L 42.8983 90.4935 L 43.1633 90.6825 L 43.4333 90.8595 L 43.7103 91.0255 L 43.9903 91.1785 L 44.2753 91.3185 L 44.5613 91.4465 L 44.8513 91.5605 L 45.1443 91.6595 L 45.4383 91.7455 L 45.7313 91.8165 L 46.0543 91.8785 L 46.3833 91.9255 L 46.7133 91.9575 L 47.0463 91.9745 L 47.3813 91.9765 L 47.7193 91.9645 L 48.0593 91.9365 L 48.4013 91.8935 L 48.7443 91.8365 L 49.0893 91.7645 L 49.4343 91.6775 L 49.7833 91.5755 L 50.1293 91.4595 L 50.4773 91.3285 L 50.8263 91.1825 L 51.1743 91.0225 L 51.4493 90.8845 L 51.6863 90.7515 L 51.8913 90.6165 L 52.0713 90.4775 L 52.2293 90.3275 L 52.3743 90.1625 L 52.5093 89.9785 L 52.6413 89.7695 L 52.7713 89.5785 L 52.8263 89.5205 L 52.8643 89.4995 L 52.9093 89.5155 L 52.9893 89.5595 L 53.2043 89.7045 L 53.6343 90.0055 L 54.0973 90.2985 L 54.5863 90.5775 L 55.0893 90.8395 L 55.5993 91.0775 L 56.1023 91.2895 L 56.5923 91.4685 L 57.0603 91.6105 L 57.6503 91.7525 L 57.9243 91.8025 L 58.1903 91.8405 L 58.4553 91.8655 L 58.7273 91.8795 L 59.0123 91.8825 L 59.3153 91.8755 L 59.6793 91.8555 L 60.0123 91.8235 L 60.3243 91.7755 L 60.6193 91.7125 L 60.9053 91.6305 L 61.1883 91.5295 L 61.4753 91.4065 L 61.7733 91.2605 L 62.0403 91.1125 L 62.3103 90.9435 L 62.5773 90.7575 L 62.8353 90.5595 L 63.0803 90.3555 L 63.3023 90.1485 L 63.4983 89.9455 L 63.6603 89.7505 L 63.7373 89.6535 L 63.8073 89.5775 L 63.8823 89.5195 L 63.9673 89.4755 L 64.0773 89.4415 L 64.2183 89.4135 L 64.6373 89.3585 L 64.8473 89.3265 L 65.0653 89.2765 L 65.2903 89.2105 L 65.5223 89.1275 L 65.7573 89.0285 L 65.9983 88.9145 L 66.2423 88.7845 L 66.4903 88.6405 L 66.7403 88.4825 L 66.9933 88.3095 L 67.2453 88.1235 L 67.5003 87.9245 L 67.7533 87.7135 L 68.0053 87.4895 L 68.2563 87.2535 L 68.5053 87.0065 L 69.0863 86.4115 L 69.4203 86.3815 L 69.7203 86.3365 L 70.0053 86.2585 L 70.2653 86.1505 L 70.3833 86.0865 L 70.4903 86.0165 L 70.8963 85.7105 L 71.3103 85.3695 L 71.7253 84.9975 L 72.1383 84.5985 L 72.5483 84.1765 L 72.9463 83.7365 L 73.3313 83.2825 L 73.6993 82.8175 L 74.1383 82.2165 L 74.5543 81.5955 L 74.9493 80.9555 L 75.3193 80.2965 L 75.6683 79.6195 L 75.9933 78.9245 L 76.2943 78.2135 L 76.5713 77.4855 L 76.8243 76.7415 L 77.0543 75.9825 L 77.2613 75.2085 L 77.4413 74.4215 L 77.5983 73.6195 L 77.7283 72.8055 L 77.8343 71.9795 L 77.9143 71.1405 L 77.9343 70.8035 L 77.9493 70.3625 L 77.9593 69.3025 L 77.9493 68.2295 L 77.9343 67.7715 L 77.9143 67.4105 L 77.8323 66.4965 L 77.7193 65.5915 L 77.5763 64.6975 L 77.4033 63.8155 L 77.1993 62.9445 L 76.9663 62.0855 L 76.7043 61.2385 L 76.4133 60.4055 L 76.0933 59.5855 L 75.7433 58.7795 L 75.3643 57.9885 L 74.9583 57.2125 L 74.5233 56.4515 L 74.0583 55.7068 L 73.5663 54.9783 L 73.0483 54.2668 L 72.7813 53.9347 L 72.4513 53.5508 L 72.0763 53.135 L 71.6763 52.7068 L 71.2663 52.2862 L 70.8703 51.8923 L 70.5013 51.5453 L 70.1813 51.2648 L 69.7063 50.8808 L 69.2253 50.5172 L 68.7353 50.1742 L 68.2403 49.8519 L 67.7403 49.5502 L 67.2333 49.2694 L 66.7203 49.0092 L 66.2033 48.7702 L 65.6803 48.5522 L 65.1523 48.3554 L 64.6203 48.1797 L 64.0823 48.0254 L 63.5403 47.8924 L 62.9933 47.7809 L 62.4433 47.691 L 61.8883 47.6229 L 61.6133 47.6015 L 61.2773 47.5862 L 60.5043 47.5742 L 59.7473 47.5865 L 59.4293 47.6019 L 59.1823 47.6232 L 58.6343 47.6975 L 58.1073 47.7855 L 57.6073 47.8863 L 57.1373 47.9988 L 56.7003 48.1218 L 56.3043 48.2543 L 55.9503 48.395 L 55.6443 48.543 L 55.3803 48.6725 L 55.1913 48.7368 L 55.1213 48.745 L 55.0673 48.7373 L 55.0293 48.714 L 55.0063 48.6752 L 54.9923 48.5315 L 54.9843 48.2217 L 54.9813 47.2952 L 54.9953 46.2802 L 55.0233 45.5607 L 55.0963 44.8055 L 55.1363 44.4987 L 55.1833 44.2304 L 55.2363 43.9937 L 55.2983 43.7822 L 55.3663 43.589 L 55.4463 43.4077 L 55.5213 43.2649 L 55.6013 43.1302 L 55.6863 43.0049 L 55.7763 42.8899 L 55.8703 42.7865 L 55.9653 42.6957 L 56.0633 42.6185 L 56.1613 42.5562 L 56.2943 42.4752 L 56.3533 42.4184 L 56.3563 42.397 L 56.3423 42.3795 L 56.2643 42.3522 L 55.5193 42.3287 L 53.8693 42.302 L 52.5363 42.28 L 51.6243 42.2509 L 51.0613 42.2112 L 50.8843 42.186 L 50.7643 42.157 L 50.7263 42.1473 L 50.7043 42.1513 L 50.6973 42.174 L 50.7093 42.2207 L 50.7943 42.4057 L 50.9763 42.747 L 51.1273 43.0487 L 51.2493 43.3372 L 51.3423 43.6285 L 51.4093 43.9392 L 51.4523 44.2853 L 51.4763 44.6835 L 51.4813 45.15 L 51.4733 45.7012 L 51.4443 46.5378 L 51.4063 47.2547 L 51.3563 47.8572 L 51.2983 48.3502 L 51.2653 48.5532 L 51.2313 48.6718 L 51.2133 48.7083 L 51.1903 48.7342 L 51.1253 48.7685 L 51.0513 48.783 L 50.9683 48.7618 L 50.8483 48.6938 L 50.6683 48.5673 L 50.3903 48.3848 L 50.2513 48.312 L 50.1053 48.2475 L 49.9403 48.1887 L 49.7533 48.1325 L 49.2783 48.0171 L 48.7573 47.907 L 48.2733 47.8168 L 47.8183 47.7456 L 47.3783 47.6925 L 46.9473 47.6563 L 46.5123 47.6358 L 46.0623 47.6303 L 45.5903 47.6386 L 44.7973 47.6811 L 44.0253 47.7601 L 43.6453 47.8138 L 43.2703 47.8769 L 42.8973 47.9498 L 42.5293 48.0324 L 42.1603 48.1249 L 41.7953 48.2276 L 41.4303 48.3404 L 41.0653 48.4634 L 40.3373 48.7411 L 39.6053 49.0614 L 39.1193 49.2973 L 38.6403 49.5499 L 38.1673 49.8189 L 37.7033 50.1038 L 37.2463 50.4043 L 36.7963 50.7201 L 36.3553 51.0509 L 35.9233 51.3963 L 35.4993 51.7558 L 35.0843 52.1291 L 34.6783 52.5161 L 34.2833 52.9163 L 33.8963 53.3291 L 33.5203 53.7546 L 33.1543 54.1921 L 32.7993 54.6413 L 32.4553 55.1019 L 32.1213 55.5738 L 31.8003 56.0563 L 31.4903 56.5492 L 31.1923 57.0525 L 30.9063 57.5645 L 30.6323 58.0865 L 30.3723 58.6175 L 30.1243 59.1565 L 29.8903 59.7045 L 29.6693 60.2605 L 29.4623 60.8235 L 29.2703 61.3935 L 29.0913 61.9715 L 28.9283 62.5555 L 28.7793 63.1455 L 28.6103 63.8905 L 28.4703 64.5895 L 28.3583 65.2625 L 28.2713 65.9255 L 28.2073 66.5965 L 28.1643 67.2955 L 28.1403 68.0375 L 28.1333 68.8425 L 28.1383 69.6345 L 28.1533 70.2195 L 28.1843 70.7045 L 28.2333 71.1955 L 28.3423 72.0245 L 28.4763 72.8365 L 28.6353 73.6325 L 28.8203 74.4105 L 29.0313 75.1725 L 29.2663 75.9175 L 29.5273 76.6465 L 29.8143 77.3575 L 30.1263 78.0525 L 30.4633 78.7295 L 30.8263 79.3905 L 31.2143 80.0345 L 31.6273 80.6615 L 32.0653 81.2715 L 32.5293 81.8645 L 33.0193 82.4415 L 33.4173 82.8755 L 33.7443 83.1955 L 33.8933 83.3225 L 34.0373 83.4315 L 34.1813 83.5275 L 34.3303 83.6145 L 34.5523 83.7455 L 34.6463 83.8175 L 34.6483 83.8255 L 34.6423 83.8285 L 34.6033 83.8205 L 34.4183 83.7455 L 34.1943 83.6255 L 33.9523 83.4605 L 33.6973 83.2545 L 33.4293 83.0095 L 33.1513 82.7295 L 32.8653 82.4175 L 32.5743 82.0755 L 32.2813 81.7075 L 31.9873 81.3155 L 31.6943 80.9035 L 31.4063 80.4745 L 31.1243 80.0315 L 30.8513 79.5765 L 30.5893 79.1125 L 30.3403 78.6445 L 30.1073 78.1735 L 29.9053 77.7375 L 29.7133 77.2965 L 29.5323 76.8525 L 29.3623 76.4045 L 29.2023 75.9505 L 29.0533 75.4925 L 28.9133 75.0285 L 28.7843 74.5595 L 28.6643 74.0835 L 28.5553 73.6015 L 28.4553 73.1125 L 28.3653 72.6165 L 28.2853 72.1135 L 28.2143 71.6015 L 28.1533 71.0825 L 28.1013 70.5535 L 28.0753 70.1725 L 28.0593 69.7055 L 28.0493 68.6255 L 28.0703 67.5385 L 28.0923 67.0625 L 28.1223 66.6685 L 28.1833 66.0965 L 28.2573 65.5275 L 28.3433 64.9635 L 28.4413 64.4045 L 28.5513 63.8505 L 28.6733 63.3005 L 28.8073 62.7565 L 28.9533 62.2175 L 29.1103 61.6855 L 29.2783 61.1585 L 29.4583 60.6375 L 29.6503 60.1225 L 29.8523 59.6155 L 30.0663 59.1145 L 30.2903 58.6205 L 30.5253 58.1335 L 30.7713 57.6545 L 31.0283 57.1825 L 31.2953 56.7192 L 31.5723 56.2637 L 31.8593 55.8167 L 32.1573 55.378 L 32.4653 54.9483 L 32.7833 54.5275 L 33.1113 54.116 L 33.4483 53.714 L 33.7953 53.3215 L 34.1523 52.939 L 34.5173 52.5665 L 34.8933 52.2045 L 35.2773 51.8528 L 35.6713 51.5122 L 36.0203 51.2247 L 36.3743 50.9475 L 36.7323 50.6808 L 37.0943 50.4247 L 37.4613 50.179 L 37.8303 49.9438 L 38.2043 49.7193 L 38.5803 49.5057 L 38.9603 49.3025 L 39.3433 49.1102 L 39.7293 48.9287 L 40.1183 48.7582 L 40.5083 48.5987 L 40.9013 48.45 L 41.2963 48.3125 L 41.6933 48.1862 L 42.0933 48.071 L 42.4923 47.967 L 42.8943 47.8742 L 43.2973 47.7929 L 43.7013 47.7229 L 44.1063 47.6644 L 44.5113 47.6172 L 44.9173 47.5817 L 45.3223 47.5579 L 45.7293 47.5455 L 46.1363 47.545 L 46.5423 47.5564 L 46.9473 47.5794 L 47.3523 47.6144 L 47.7573 47.6614 L 48.1603 47.7202 L 48.9143 47.8373 L 49.2573 47.9058 L 49.6893 48.0192 L 50.0953 48.145 L 50.2543 48.2025 L 50.3623 48.251 L 50.5803 48.3833 L 50.7953 48.5377 L 50.9653 48.6532 L 51.0353 48.685 L 51.0803 48.6927 L 51.1143 48.672 L 51.1453 48.624 L 51.1743 48.5497 L 51.2023 48.4494 L 51.2523 48.1742 L 51.2953 47.8042 L 51.3293 47.3452 L 51.3553 46.8027 L 51.3723 46.1824 L 51.3793 45.4901 L 51.3773 44.6717 L 51.3653 44.1911 L 51.3353 43.9022 L 51.2773 43.6591 L 51.2223 43.4831 L 51.1473 43.2831 L 51.0603 43.0834 L 50.9753 42.9087 L 50.8073 42.5861 L 50.6723 42.3052 L 50.5873 42.1022 L 50.5673 42.0414 L 50.5673 42.0151 L 50.6373 42.0246 L 50.7823 42.0729 L 50.9273 42.1051 L 51.1853 42.1343 L 52.0123 42.1826 L 53.2123 42.2158 L 54.7353 42.2319 L 55.6173 42.2423 L 55.9183 42.2536 L 56.1403 42.2708 L 56.2953 42.2946 L 56.3923 42.3263 L 56.4423 42.3673 L 56.4573 42.4188 L 56.4493 42.4566 L 56.4273 42.4916 L 56.3953 42.5208 L 56.3553 42.5406 L 56.2803 42.5718 L 56.1993 42.6174 L 56.0293 42.7434 L 55.8603 42.9023 L 55.7193 43.0774 L 55.5823 43.2974 L 55.4643 43.5439 L 55.3653 43.8251 L 55.2823 44.1486 L 55.2123 44.5229 L 55.1553 44.9559 L 55.1093 45.4559 L 55.0723 46.0308 L 55.0323 47.0551 L 55.0273 47.4933 L 55.0323 47.8721 L 55.0473 48.1838 L 55.0703 48.4213 L 55.1033 48.5766 L 55.1223 48.6211 L 55.1453 48.6424 L 55.1983 48.6349 L 55.3033 48.5964 L 55.6023 48.4516 L 55.7773 48.3659 L 55.9873 48.2784 L 56.2323 48.1897 L 56.5103 48.1002 L 57.1573 47.9217 L 57.9103 47.7471 L 58.2523 47.6799 L 58.6013 47.6229 L 58.9563 47.5757 L 59.3183 47.5386 L 59.6833 47.5112 L 60.0533 47.4939 L 60.4253 47.4864 L 60.7983 47.4887 L 61.1733 47.501 L 61.5463 47.5232 L 61.9213 47.555 L 62.2933 47.5969 L 62.6633 47.6484 L 63.0283 47.7097 L 63.3913 47.7807 L 63.7463 47.8615 L 64.4533 48.0517 L 65.1513 48.2772 L 65.8393 48.5377 L 66.5163 48.8327 L 67.1843 49.1615 L 67.8393 49.5239 L 68.4833 49.9189 L 69.1133 50.3464 L 69.7273 50.8057 L 70.3293 51.2964 L 70.9143 51.818 L 71.4843 52.3697 L 72.0373 52.9513 L 72.5743 53.5622 L 73.0913 54.2018 L 73.5893 54.8698 L 74.0073 55.4745 L 74.4073 56.0968 L 74.7873 56.736 L 75.1493 57.3915 L 75.4903 58.0615 L 75.8123 58.7455 L 76.1143 59.4425 L 76.3953 60.1525 L 76.6573 60.8735 L 76.8953 61.6055 L 77.1143 62.3475 L 77.3103 63.0975 L 77.4843 63.8565 L 77.6353 64.6225 L 77.7643 65.3935 L 77.8693 66.1705 L 77.9553 67.0165 L 78.0153 67.8725 L 78.0453 68.7345 L 78.0483 69.5975 L 78.0233 70.4575 L 77.9723 71.3095 L 77.8903 72.1485 L 77.7823 72.9705 L 77.6433 73.7895 L 77.4803 74.5975 L 77.2903 75.3915 L 77.0773 76.1715 L 76.8383 76.9375 L 76.5773 77.6865 L 76.2903 78.4195 L 75.9803 79.1335 L 75.6473 79.8295 L 75.2923 80.5065 L 74.9153 81.1625 L 74.5173 81.7965 L 74.0973 82.4085 L 73.6573 82.9975 L 73.1953 83.5615 L 72.7153 84.1005 L 72.3573 84.4755 L 72.0073 84.8295 L 71.6673 85.1575 L 71.3453 85.4535 L 71.0503 85.7105 L 70.7873 85.9225 L 70.5643 86.0845 L 70.3853 86.1895 L 70.1323 86.2975 L 69.8723 86.3805 L 69.6203 86.4325 L 69.3923 86.4515 L 69.2353 86.4555 L 69.1373 86.4755 L 69.0673 86.5265 L 68.9923 86.6225 L 68.9023 86.7315 L 68.7623 86.8805 L 68.3823 87.2535 L 67.9523 87.6485 L 67.5723 87.9725 L 67.2613 88.2065 L 66.9373 88.4335 L 66.6063 88.6475 L 66.2763 88.8455 L 65.9563 89.0205 L 65.6563 89.1685 L 65.3823 89.2855 L 65.1463 89.3645 L 64.7763 89.4425 L 64.3793 89.4935 L 63.9623 89.5255 L 63.6963 89.8385 L 63.5293 90.0265 L 63.3563 90.2065 L 63.1763 90.3785 L 62.9893 90.5425 L 62.7983 90.6985 L 62.5993 90.8465 L 62.3963 90.9855 L 62.1883 91.1175 L 61.9733 91.2395 L 61.7533 91.3535 L 61.5283 91.4595 L 61.2983 91.5555 L 61.0633 91.6435 L 60.8243 91.7215 L 60.5813 91.7915 L 60.3333 91.8515 L 60.0863 91.8955 L 59.7983 91.9275 L 59.4833 91.9485 L 59.1513 91.9575 L 58.8183 91.9545 L 58.4943 91.9395 L 58.1963 91.9125 L 57.9333 91.8735 L 57.3633 91.7505 L 56.7983 91.5945 L 56.2353 91.4045 L 55.6703 91.1795 L 55.1003 90.9165 L 54.5213 90.6155 L 53.9303 90.2745 L 53.3233 89.8925 L 53.0303 89.7145 L 52.9233 89.6605 L 52.8653 89.6405 L 52.8283 89.6575 L 52.7813 89.7035 L 52.7313 89.7745 L 52.6833 89.8625 L 52.6063 89.9955 L 52.5063 90.1355 L 52.3853 90.2805 L 52.2463 90.4235 L 52.0983 90.5625 L 51.9433 90.6905 L 51.7853 90.8045 L 51.6283 90.9005 L 51.3553 91.0425 L 51.0523 91.1835 L 50.7283 91.3195 L 50.3873 91.4505 L 50.0333 91.5725 L 49.6753 91.6855 L 49.3153 91.7865 L 48.9603 91.8725 L 48.6523 91.9355 L 48.3533 91.9735 L 47.9853 91.9965 L 47.4703 92.0105 L 47.0103 92.0145 L 46.6433 92.0085 L 46.3533 91.9915 L 46.1253 91.9625 L 46.1253 91.9625"
       id="path966" />
  </g>
  <g
     inkscape:label="F.SilkS"
     inkscape:groupmode="layer"
     id="g1572"
     style="display:inline">
    <path
       style="display:inline;fill:#000000;stroke-width:0.0457505"
       d="m 46.418273,91.891764 c -0.86828,-0.10281 -1.82265,-0.40549 -2.60389,-0.8258 -0.84085,-0.45239 -1.55666,-1.03533 -2.3371,-1.90325 -0.45963,-0.51116 -0.49225,-0.53757 -0.69927,-0.56636 -0.52901,-0.0735 -1.69559,-0.58291 -2.4892,-1.08684 -1.18361,-0.75157 -2.46031,-2.0211 -3.31598,-3.29736 -0.27092,-0.40409 -0.30567,-0.43714 -0.66568,-0.63311 -1.268,-0.69024 -3.20031,-3.2641 -4.36262,-5.811098 -2.95787,-6.481643 -2.49023,-14.555763 1.21391,-20.959022 0.82407,-1.424562 1.74807,-2.663072 2.89402,-3.879095 2.84597,-3.020001 6.24515,-4.845779 9.99618,-5.369175 0.75605,-0.1055 2.23908,-0.142184 3.01628,-0.07458 1.28197,0.111467 2.76404,0.418269 3.29126,0.681309 0.139,0.06932 0.33317,0.198311 0.4316,0.286644 0.1985,0.178095 0.3026,0.202174 0.33997,0.07863 0.13433,-0.444165 0.2826,-2.960778 0.23525,-3.993164 -0.015,-0.302375 -0.0638,-0.695559 -0.11384,-0.896327 -0.0832,-0.33372 -0.16616,-0.525593 -0.5639,-1.305185 -0.22575,-0.442411 -0.2167,-0.475215 0.0997,-0.361755 0.22097,0.07922 0.44463,0.09748 1.59752,0.13055 0.7373,0.02113 1.9036,0.03995 2.59175,0.04182 1.27526,0.0033 1.47464,0.02875 1.47464,0.186988 0,0.0358 -0.0905,0.115184 -0.20108,0.176422 -0.38267,0.211833 -0.71035,0.64965 -0.89222,1.192048 -0.103,0.307278 -0.20809,0.98044 -0.26929,1.725406 -0.0482,0.586065 -0.0618,2.897323 -0.0178,3.017391 0.0423,0.115467 0.17312,0.08918 0.54515,-0.109466 0.67744,-0.361727 2.21222,-0.74751 3.56134,-0.895173 0.71269,-0.078 2.21086,-0.06687 2.92516,0.02175 4.4164,0.54791 8.47709,3.137134 11.46462,7.310222 2.53062,3.534859 4.01789,7.776199 4.40194,12.553299 0.0628,0.78136 0.0623,2.81373 -6.2e-4,3.63015 -0.38713,5.001443 -2.0943,9.362291 -4.97069,12.697341 -0.66884,0.7755 -1.95579,1.98909 -2.42631,2.28801 -0.36045,0.22898 -0.80301,0.37625 -1.13411,0.37739 l -0.28592,6.5e-4 -0.56312,0.57496 c -0.8313,0.84876 -1.6309,1.45814 -2.5836,1.96896 -0.59475,0.31889 -1.01922,0.44995 -1.57672,0.48682 l -0.4245,0.0281 -0.49157,0.49893 c -0.75179,0.76311 -1.23735,1.11971 -1.98414,1.4572 -1.6924,0.76481 -3.74507,0.6647 -5.93192,-0.28934 -0.64012,-0.27925 -1.25226,-0.61135 -2.03671,-1.10497 -0.38655,-0.24324 -0.72365,-0.42876 -0.74913,-0.41226 -0.0253,0.0165 -0.088,0.11576 -0.13917,0.2206 -0.1445,0.29669 -0.66435,0.8031 -1.03318,1.00628 -0.87807,0.4837 -2.04719,0.88981 -3.07384,1.06775 -0.5292,0.0917 -1.64209,0.12673 -2.14302,0.0674 z m 1.38397,-0.0915 c 1.1205,-0.0893 2.21737,-0.39001 3.30819,-0.90696 0.28373,-0.13445 0.61432,-0.31546 0.73465,-0.40224 0.4097,-0.29547 0.80582,-0.80928 0.83355,-1.08119 0.007,-0.0628 -0.0905,-0.3353 -0.21553,-0.60595 -0.28512,-0.61727 -0.95882,-2.71018 -1.28919,-4.00488 -0.138,-0.541 -0.266,-1.03634 -0.28433,-1.10075 -0.0312,-0.10925 -0.0795,-0.12685 -0.7225,-0.26227 -0.91187,-0.19208 -1.41159,-0.34692 -2.15234,-0.66688 -0.61218,-0.26442 -0.61418,-0.26578 -0.61442,-0.41852 0,-0.0843 0.0497,-0.36883 0.11084,-0.63235 0.061,-0.26351 0.17036,-0.77421 0.24293,-1.13488 0.0725,-0.36067 0.16367,-0.80877 0.20247,-0.99576 0.0388,-0.186988 0.0872,-0.467538 0.1075,-0.623438 l 0.0368,-0.28346 -0.17468,-0.0934 c -0.55772,-0.29825 -3.32872,-1.30141 -3.64141,-1.31827 l -0.21033,-0.0113 -0.22962,0.31847 c -0.31687,0.43948 -0.6063,1.00031 -0.80207,1.55421 -0.17115,0.484208 -0.5629,1.959238 -0.54566,2.054578 0.015,0.0788 -0.43955,0.0439 -0.85466,-0.0656 -0.18813,-0.0497 -0.48421,-0.16516 -0.65795,-0.25667 -0.87386,-0.46032 -1.16505,-1.06768 -1.21248,-2.529118 -0.0911,-2.80719 1.20952,-6.0613 2.54437,-6.365843 0.0887,-0.0203 0.22697,0.024 0.50313,0.16087 0.54737,0.271313 0.9256,0.422633 1.80994,0.724133 1.32354,0.45123 4.82797,1.31375 4.91657,1.21008 0.0175,-0.0204 0.0167,-0.29002 -0.005,-0.59917 -0.0198,-0.30915 -0.0497,-1.331443 -0.0663,-2.271773 -0.14683,-8.23206 1.31289,-15.190703 3.67369,-17.513247 l 0.43375,-0.426724 h -0.98467 c -1.94317,0 -3.06872,-0.174318 -3.92455,-0.607825 -0.19662,-0.09958 -0.4411,-0.256511 -0.54334,-0.348711 -0.10216,-0.0922 -0.19833,-0.16764 -0.2136,-0.16764 -0.0627,0 -0.66923,0.56729 -1.29488,1.211118 -1.04404,1.074368 -1.94576,2.192605 -2.80734,3.481403 -0.28374,0.424436 -0.34107,0.539606 -0.31899,0.640916 0.0278,0.12772 0.21392,0.70419 1.05307,3.26183 1.00569,3.06519 2.27252,7.02007 2.26059,7.05723 -0.0188,0.0585 -1.19842,-3.50505 -2.58422,-7.80669 -0.39007,-1.21083 -0.7432,-2.29638 -0.78472,-2.41235 l -0.0755,-0.21084 0.34917,-0.515193 c 1.12628,-1.661735 2.3235,-3.093391 3.52387,-4.213863 0.57102,-0.533008 0.64287,-0.61601 0.58819,-0.679341 -0.0343,-0.03968 -0.11367,-0.188008 -0.17662,-0.329618 -0.153,-0.344704 -0.15534,-0.78269 -0.007,-1.240989 0.0697,-0.21403 0.0903,-0.338184 0.0602,-0.357833 -0.1035,-0.06705 -0.98484,-0.09072 -1.53179,-0.04113 -2.88004,0.261123 -5.53584,1.70244 -7.95406,4.316699 -2.8127,3.040738 -4.95179,7.503238 -5.87186,12.249728 -0.19654,1.0139 -0.31401,1.82238 -0.43785,3.01365 -0.11545,1.11045 -0.11523,4.194573 3.6e-4,5.269573 0.39165,3.64256 1.41792,6.761548 2.9977,9.110518 0.67262,1.00012 1.29968,1.73806 2.06046,2.42483 0.80751,0.72894 1.48228,1.16778 2.68225,1.7444 0.39732,0.19092 1.27243,0.46516 1.27243,0.39875 0,-0.011 -0.168,-0.27927 -0.37334,-0.59605 -1.56184,-2.40953 -2.46748,-5.53892 -2.7132,-9.375278 -0.0672,-1.04901 -0.0308,-3.59811 0.0666,-4.6674 0.15889,-1.743863 0.46264,-3.679153 0.7879,-5.019763 0.12595,-0.51911 0.1302,-0.50624 -0.16981,-0.51458 l -0.25695,-0.007 0.29046,-0.0342 c 0.39754,-0.0468 8.4737,-0.0429 8.22218,0.004 -0.11067,0.0206 -1.93379,0.0391 -4.05154,0.041 l -3.85044,0.003 -0.13505,0.59722 c -1.35703,6.000933 -1.14166,12.022331 0.58789,16.436351 0.92058,2.34942 2.34333,4.22395 4.03068,5.31062 1.10467,0.71142 2.20146,1.05129 3.75361,1.16315 0.049,0.004 0.36083,-0.0152 0.69262,-0.0417 z m -9.69599,-24.152831 c -0.001,-0.092 5.09498,-10.741993 5.14035,-10.741993 0.0552,0 0.0538,0.0371 -0.005,0.107373 -0.0257,0.0311 -1.12938,2.33303 -2.45262,5.11536 -2.38427,5.0133 -2.68181,5.62528 -2.68338,5.51926 z m 22.11531,23.990311 c 1.28747,-0.2631 2.24582,-0.81426 3.22636,-1.85549 0.99283,-1.05433 1.6741,-2.30508 2.22464,-4.08425 0.6724,-2.17297 0.92833,-4.35251 0.88388,-7.526898 -0.0427,-3.04686 -0.3604,-5.64366 -1.11042,-9.075383 l -0.18681,-0.85484 -2.79646,-0.007 c -1.53804,-0.004 -2.65569,-0.0225 -2.48365,-0.041 0.4399,-0.0473 8.44096,-0.0432 8.22218,0.004 -0.0983,0.0213 -0.7884,0.04 -1.53351,0.0415 -1.26903,0.002 -1.35321,0.008 -1.33048,0.0847 0.17115,0.57801 0.63602,2.96478 0.83247,4.274213 0.5054,3.36855 0.6215,6.62451 0.33156,9.297868 -0.32658,3.01118 -1.1438,5.52411 -2.32795,7.15844 l -0.16383,0.22603 0.33075,-0.0315 c 0.77965,-0.0743 1.34773,-0.28621 2.20938,-0.82423 1.00036,-0.62463 2.13889,-1.67043 2.92343,-2.68528 1.71967,-2.22457 2.96172,-5.43144 3.48414,-8.995908 0.209,-1.4261 0.24558,-2.0216 0.24598,-4.00488 4.5e-4,-2.046803 -0.0515,-2.806053 -0.31343,-4.590393 -0.82634,-5.62716 -3.25043,-10.95536 -6.53865,-14.372175 -2.06374,-2.144426 -4.41356,-3.490174 -6.75193,-3.866841 -0.42102,-0.06782 -1.69807,-0.150666 -1.69807,-0.11015 0,0.0115 0.0983,0.124217 0.21834,0.250277 0.26406,0.277163 0.41825,0.719131 0.40193,1.152141 -0.01,0.249399 10e-4,0.280584 0.15967,0.468407 0.28728,0.340736 1.46232,2.535764 2.32092,4.335662 0.62013,1.299939 1.18997,2.620939 1.8522,4.293779 0.028,0.0708 0.22437,-0.29794 0.89794,-1.68627 0.47415,-0.97726 0.86985,-1.785627 0.87935,-1.79636 0.045,-0.05087 0.0647,0.04452 0.0203,0.0984 -0.028,0.0339 -1.18718,2.45123 -2.57612,5.37185 -1.38895,2.92061 -2.5374,5.29759 -2.5521,5.28217 -0.015,-0.0155 0.72173,-1.60403 1.63657,-3.53024 1.26595,-2.66554 1.65786,-3.5307 1.64055,-3.62147 -0.028,-0.14722 -0.5294,-1.39155 -0.9899,-2.45702 -1.05216,-2.434507 -3.10683,-6.394006 -3.31783,-6.393703 -0.0182,2.5e-5 -0.088,0.102567 -0.15516,0.227845 -0.17482,0.326271 -0.43594,0.526025 -0.97275,0.74416 -0.80747,0.328108 -1.96956,0.57788 -3.23719,0.695761 -0.32662,0.03037 -0.37487,0.0489 -0.60489,0.232269 -2.18774,1.744019 -3.56699,6.686688 -3.93344,14.095998 -0.0848,1.71722 -0.0247,6.420103 0.0838,6.542563 0.0167,0.0174 0.35988,0.0799 0.76541,0.13886 0.63497,0.0923 0.9296,0.10742 2.12257,0.10882 l 1.38526,0.001 0.0292,1.39647 c 0.0328,1.5756 0.0195,1.51896 0.38945,1.64401 0.63059,0.21314 1.63166,0.24165 2.68707,0.0765 0.78959,-0.12355 0.87101,-0.14396 1.52594,-0.38264 l 0.5205,-0.18959 0.0293,-0.47603 c 0.0167,-0.26182 0.05,-0.73952 0.0755,-1.06155 0.0253,-0.32203 0.0393,-0.96492 0.031,-1.42864 l -0.015,-0.84313 0.34521,-0.0328 c 0.86989,-0.0827 2.06221,-0.67489 3.05674,-1.518243 0.39432,-0.33437 0.41609,-0.34598 0.64795,-0.34553 0.93417,0.002 1.89324,1.434763 2.43081,3.632033 0.22343,0.91319 0.30631,1.60099 0.30741,2.55047 0.002,1.48866 -0.20346,2.214068 -0.76503,2.704578 -0.70094,0.61224 -2.15644,1.5027 -3.04121,1.86059 -0.8033,0.32494 -2.34358,0.8691 -2.96457,1.04736 -1.00683,0.289 -2.41542,0.60419 -3.10062,0.6938 -0.85912,0.11235 -3.09739,0.10955 -4.28112,-0.005 -0.46219,-0.0449 -0.85179,-0.0696 -0.86579,-0.0549 -0.0547,0.0573 0.39235,1.78305 0.79667,3.07524 0.22628,0.72321 0.59978,1.7251 0.85198,2.28533 0.12634,0.28049 0.15667,0.31104 0.63125,0.63715 1.69357,1.16331 3.41919,1.88763 4.96721,2.08495 0.48782,0.0622 1.52762,0.0277 1.98524,-0.0658 z m 7.92652,-24.058321 c -0.0272,-0.0871 -0.4349,-1.32809 -0.9061,-2.75791 -0.47121,-1.42981 -1.17771,-3.60087 -1.57001,-4.82458 -0.3923,-1.22372 -0.75425,-2.3271 -0.80433,-2.45198 -0.05,-0.12488 -0.081,-0.23764 -0.0685,-0.2506 0.0382,-0.0401 0.11766,0.0343 0.11766,0.11007 0,0.0395 0.13284,0.47566 0.29506,0.96918 0.97855,2.97609 1.32231,4.03063 2.12368,6.51436 0.48974,1.51788 0.884,2.78001 0.87614,2.80474 -0.008,0.0247 -0.0367,-0.0262 -0.0637,-0.11328 z m 1.87045,18.518131 c 0.29223,-0.10877 0.5234,-0.26583 1.09375,-0.74316 1.33677,-1.11874 2.42382,-2.37767 3.43204,-3.9747 0.60315,-0.95543 0.8562,-1.41864 1.29525,-2.371158 1.03804,-2.25202 1.68839,-4.6931 1.97026,-7.395123 0.0988,-0.94668 0.134,-2.97486 0.0695,-3.98146 -0.32092,-4.99603 -1.98039,-9.63342 -4.75198,-13.279326 -2.8807,-3.789432 -6.64421,-6.148218 -10.76297,-6.745685 -1.05346,-0.152817 -2.88975,-0.139867 -3.8152,0.02688 -1.04327,0.187995 -1.59616,0.318204 -2.26416,0.533205 -0.35393,0.113934 -0.8734,0.382947 -0.8291,0.429385 0.0117,0.01183 0.20462,0.07333 0.42937,0.136367 0.49385,0.13855 1.25038,0.504978 1.63225,0.790611 l 0.27985,0.209339 0.33884,-0.02685 c 0.69971,-0.05547 2.03865,0.173281 3.03962,0.519318 2.65164,0.916673 5.17257,2.996191 7.23189,5.96559 2.42049,3.490156 4.04961,7.934236 4.6602,12.712476 0.17101,1.33839 0.22123,2.19159 0.22291,3.787483 0.002,1.50681 -0.042,2.28287 -0.19886,3.54991 -0.46487,3.752588 -1.71886,7.138138 -3.51281,9.484098 -0.16233,0.21222 -0.31748,0.41548 -0.34492,0.4517 -0.073,0.0965 0.45607,0.0433 0.7843,-0.0789 z m -13.70366,-2.51461 c 0.59775,-0.0858 1.96224,-0.39788 2.88214,-0.6592 0.6708,-0.19056 2.56432,-0.8684 3.21072,-1.14938 0.88746,-0.38576 1.84949,-1.00238 2.92891,-1.87731 0.15917,-0.12903 0.35143,-0.549978 0.478,-1.046758 0.13733,-0.53919 0.16775,-1.74763 0.0653,-2.60217 -0.145,-1.20996 -0.4047,-2.1863 -0.83226,-3.12791 -0.30577,-0.67333 -0.55092,-1.050053 -0.92834,-1.426503 -0.3211,-0.32027 -0.49937,-0.40819 -0.82765,-0.40819 -0.23352,0 -0.25772,0.0125 -0.63822,0.33041 -0.98903,0.826293 -2.19834,1.424603 -3.06929,1.518583 l -0.30545,0.0329 0.0297,0.59306 c 0.0167,0.32997 0.007,0.90474 -0.0205,1.29566 -0.0275,0.38644 -0.0622,0.96964 -0.0767,1.29601 l -0.0263,0.59339 -0.58579,0.21372 c -0.69055,0.2519 -0.77541,0.27239 -1.68063,0.40558 -1.11255,0.1637 -2.25617,0.085 -2.77191,-0.19083 -0.0975,-0.0521 -0.18051,-0.0997 -0.18436,-0.1056 -0.003,-0.006 -0.019,-0.63681 -0.0335,-1.40199 -0.0167,-0.85544 -0.0442,-1.40981 -0.0725,-1.43948 -0.0317,-0.0331 -0.31215,-0.0313 -0.89372,0.006 -0.7311,0.0465 -0.96127,0.043 -1.67431,-0.0263 -1.3299,-0.12918 -2.36472,-0.31915 -4.13344,-0.75875 -1.88962,-0.46966 -3.06947,-0.85085 -4.08874,-1.321 -0.63696,-0.293823 -0.7954,-0.314203 -1.08048,-0.13902 -0.82865,0.50919 -1.66745,2.25446 -1.99959,4.16045 -0.24249,1.39161 -0.21107,2.6424 0.0873,3.478458 0.23029,0.64513 1.22934,1.26811 2.09771,1.30805 l 0.2359,0.0108 0.15267,-0.60893 c 0.33451,-1.333338 0.61458,-2.050968 1.08725,-2.785958 0.35518,-0.55226 0.39228,-0.58226 0.68083,-0.55056 0.34945,0.0384 2.40716,0.77848 3.49361,1.25653 0.32513,0.14305 0.33885,0.15538 0.33885,0.30415 0,0.0853 -0.049,0.4038 -0.10917,0.707818 -0.0602,0.30402 -0.17115,0.86895 -0.24691,1.25538 -0.0758,0.38644 -0.18072,0.9195 -0.23319,1.18457 -0.059,0.29774 -0.0795,0.49863 -0.0538,0.52559 0.023,0.024 0.27627,0.14942 0.56302,0.27866 1.20458,0.54298 2.53175,0.81449 4.68262,0.95797 0.66265,0.0442 3.04277,-0.0147 3.55252,-0.0878 z m -21.83202,-0.14742 c -1.44862,-2.45695 -2.32937,-5.380058 -2.66384,-8.840958 -0.0964,-0.99776 -0.10902,-3.645823 -0.0222,-4.667413 0.42829,-5.03918 2.05568,-9.79548 4.62372,-13.513529 0.8709,-1.260907 2.21275,-2.756058 3.27125,-3.644968 1.90142,-1.596781 4.07099,-2.612773 6.06433,-2.839868 0.55298,-0.06298 1.77995,-0.06415 1.93637,-0.0018 0.10917,0.04352 0.13483,0.02933 0.29778,-0.164683 0.19887,-0.236807 0.42432,-0.388849 0.83765,-0.564907 0.41889,-0.17841 1.29416,-0.42931 1.62869,-0.466862 0.16283,-0.01828 0.30595,-0.0499 0.31797,-0.0703 0.0283,-0.04812 -0.21244,-0.259666 -0.42504,-0.373348 -0.3785,-0.20241 -1.85822,-0.539183 -2.90479,-0.661111 -0.74686,-0.08702 -2.38503,-0.0754 -3.17268,0.02245 -3.38006,0.420001 -6.48757,1.907264 -9.20242,4.404279 -1.2384,1.13903 -2.61538,2.825958 -3.5407,4.337679 -3.41788,5.583898 -4.3369,12.666298 -2.44265,18.824311 0.79587,2.58729 2.06348,4.930618 3.68972,6.820948 0.64164,0.74583 1.11859,1.19844 1.46973,1.39473 0.16895,0.0944 0.31385,0.17233 0.322,0.17307 0.008,6.5e-4 -0.0301,-0.0747 -0.0849,-0.16774 z m 20.40967,-30.368026 c 1.14922,-0.1649 2.01314,-0.38397 2.58361,-0.655105 0.3295,-0.1566 0.70573,-0.503438 0.83561,-0.770315 0.12017,-0.246838 0.11884,-0.841657 -0.003,-1.122867 -0.18858,-0.437413 -0.99315,-1.121163 -1.65935,-1.410214 -0.7811,-0.33888 -1.42849,-0.514662 -1.52456,-0.41395 -0.034,0.03567 -4.8e-4,0.190388 0.11617,0.535251 0.19572,0.57929 0.22492,0.696145 0.1737,0.694982 -0.0212,-4.82e-4 -0.11717,-0.258692 -0.2127,-0.573797 -0.0957,-0.315105 -0.19142,-0.621793 -0.2127,-0.681528 -0.0718,-0.201437 -0.0935,-1.477041 -0.0427,-2.505668 0.0528,-1.065281 0.13817,-1.844339 0.25265,-2.305308 0.148,-0.595433 0.57977,-1.229583 0.96331,-1.414718 0.0945,-0.04558 0.1722,-0.09605 0.17283,-0.11215 0.003,-0.06847 -0.35658,-0.08798 -1.66895,-0.09062 -1.76652,-0.0035 -3.67071,-0.06818 -3.86256,-0.13115 l -0.148,-0.04858 0.21177,0.407427 c 0.32106,0.617638 0.36431,0.719511 0.47423,1.1172 0.0967,0.350058 0.10133,0.438958 0.0972,1.866466 -0.007,2.163606 -0.0855,2.863926 -0.40384,3.579313 -0.16748,0.37627 -0.24655,0.491333 -0.53875,0.78403 -0.18835,0.188671 -0.35238,0.332653 -0.3645,0.319961 -0.0117,-0.01267 0.118,-0.165516 0.28907,-0.3396 0.30343,-0.308751 0.56137,-0.705421 0.62047,-0.954226 l 0.0293,-0.123567 -0.48395,0.09073 c -1.30304,0.24426 -2.2252,0.60569 -2.54664,0.998127 -0.28276,0.345231 -0.39317,0.651516 -0.41058,1.139175 -0.015,0.392593 -0.005,0.459591 0.10116,0.685216 0.41487,0.888873 1.57536,1.382563 3.57859,1.522385 1.00592,0.0702 2.78896,0.02695 3.58244,-0.0869 z"
       id="path1561" />
  </g>
</svg>
